STARTFONT 2.3
FONT -FontForge-Pacifico-Book-R-Normal--12-120-72-72-P-70-ISO10646-1
SIZE 12 72 72  2
FONTBOUNDINGBOX 27 24 -7 -6
COMMENT "Generated by fontforge, http://fontforge.sourceforge.net"
COMMENT "Copyright 2018 The Pacifico Project Authors (https://github.com/googlefonts/Pacifico)"
STARTPROPERTIES 41
FOUNDRY "FontForge"
FAMILY_NAME "Pacifico"
WEIGHT_NAME "Book"
SLANT "R"
SETWIDTH_NAME "Normal"
ADD_STYLE_NAME ""
PIXEL_SIZE 12
POINT_SIZE 120
RESOLUTION_X 72
RESOLUTION_Y 72
SPACING "P"
AVERAGE_WIDTH 70
CHARSET_REGISTRY "ISO10646"
CHARSET_ENCODING "1"
FONTNAME_REGISTRY ""
CHARSET_COLLECTIONS "ISO8859-2 ISO8859-5 ISO8859-9 ISO8859-4 ISO10646-1"
BITS_PER_PIXEL 2
FONT_NAME "Pacifico-Regular"
FACE_NAME "Pacifico Regular"
COPYRIGHT "Copyright 2018 The Pacifico Project Authors (https://github.com/googlefonts/Pacifico)"
FONT_VERSION "3.001"
FONT_ASCENT 10
FONT_DESCENT 2
UNDERLINE_POSITION -1
UNDERLINE_THICKNESS 1
X_HEIGHT 5
CAP_HEIGHT 10
DEFAULT_CHAR 1
RAW_ASCENT 800
RAW_DESCENT 200
NORM_SPACE 3
RELATIVE_WEIGHT 40
RELATIVE_SETWIDTH 50
SUPERSCRIPT_X 0
SUPERSCRIPT_Y 4
SUPERSCRIPT_SIZE 7
SUBSCRIPT_X 0
SUBSCRIPT_Y 0
SUBSCRIPT_SIZE 7
AVG_LOWERCASE_WIDTH 57
AVG_UPPERCASE_WIDTH 98
ENDPROPERTIES
CHARS 1514
STARTCHAR NULL.dup1
ENCODING 0
SWIDTH 0 0
DWIDTH 0 0
BBX 1 1 0 0
BITMAP
00
ENDCHAR
STARTCHAR nonmarkingreturn
ENCODING 13
SWIDTH 265 0
DWIDTH 3 0
BBX 1 1 0 0
BITMAP
00
ENDCHAR
STARTCHAR space
ENCODING 32
SWIDTH 265 0
DWIDTH 3 0
BBX 1 1 0 0
BITMAP
00
ENDCHAR
STARTCHAR exclam
ENCODING 33
SWIDTH 340 0
DWIDTH 4 0
BBX 5 11 0 0
BITMAP
0740
0B40
0B00
0E00
0D00
1D00
1C00
2800
0000
7800
7400
ENDCHAR
STARTCHAR quotedbl
ENCODING 34
SWIDTH 510 0
DWIDTH 6 0
BBX 5 4 1 7
BITMAP
76C0
76C0
B380
A340
ENDCHAR
STARTCHAR numbersign
ENCODING 35
SWIDTH 700 0
DWIDTH 8 0
BBX 8 8 0 0
BITMAP
0104
075C
3FFF
1E79
1D74
BFFE
2DE4
2490
ENDCHAR
STARTCHAR dollar
ENCODING 36
SWIDTH 524 0
DWIDTH 6 0
BBX 6 11 0 -2
BITMAP
0240
0240
1FD0
3BA0
3B10
1F40
07D0
75E0
7FD0
0900
0800
ENDCHAR
STARTCHAR percent
ENCODING 37
SWIDTH 896 0
DWIDTH 11 0
BBX 11 10 0 0
BITMAP
1E0240
379B40
73FE00
736C00
2E3800
00B2E0
00E774
02CA28
034774
0702E0
ENDCHAR
STARTCHAR ampersand
ENCODING 38
SWIDTH 851 0
DWIDTH 10 0
BBX 10 12 0 -1
BITMAP
02F800
076C00
0A1D00
0A2C00
07B400
07D000
2EE0A0
78B5D0
743F80
797F00
1BEB80
0002C0
ENDCHAR
STARTCHAR quotesingle
ENCODING 39
SWIDTH 290 0
DWIDTH 3 0
BBX 3 4 1 7
BITMAP
74
74
B0
A0
ENDCHAR
STARTCHAR parenleft
ENCODING 40
SWIDTH 613 0
DWIDTH 7 0
BBX 8 15 1 -3
BITMAP
01B9
079A
0E00
2D00
3800
7400
7400
B000
B000
E000
E000
A010
B5A0
2F80
0500
ENDCHAR
STARTCHAR parenright
ENCODING 41
SWIDTH 613 0
DWIDTH 7 0
BBX 8 15 -1 -3
BITMAP
02F4
0B6D
040E
000E
000E
000E
000E
001D
002C
002C
0038
00B0
92D0
BF40
0400
ENDCHAR
STARTCHAR asterisk
ENCODING 42
SWIDTH 520 0
DWIDTH 6 0
BBX 6 5 1 7
BITMAP
7600
2ED0
6F40
0D80
0400
ENDCHAR
STARTCHAR plus
ENCODING 43
SWIDTH 700 0
DWIDTH 8 0
BBX 7 8 1 0
BITMAP
0100
0340
0740
0740
FFF4
5B50
0A00
0900
ENDCHAR
STARTCHAR comma
ENCODING 44
SWIDTH 257 0
DWIDTH 3 0
BBX 3 5 0 -2
BITMAP
10
74
B4
A0
90
ENDCHAR
STARTCHAR hyphen
ENCODING 45
SWIDTH 403 0
DWIDTH 5 0
BBX 5 2 0 3
BITMAP
1600
7E40
ENDCHAR
STARTCHAR period
ENCODING 46
SWIDTH 257 0
DWIDTH 3 0
BBX 3 2 0 0
BITMAP
B4
74
ENDCHAR
STARTCHAR slash
ENCODING 47
SWIDTH 509 0
DWIDTH 6 0
BBX 7 12 0 0
BITMAP
0028
0074
00B0
01D0
02C0
0740
0B00
1D00
2C00
7400
B000
9000
ENDCHAR
STARTCHAR zero
ENCODING 48
SWIDTH 543 0
DWIDTH 7 0
BBX 6 7 0 0
BITMAP
0BD0
2DF0
7470
7070
74B0
3AD0
1F80
ENDCHAR
STARTCHAR one
ENCODING 49
SWIDTH 376 0
DWIDTH 5 0
BBX 4 8 0 0
BITMAP
05
7F
1E
0E
0E
1D
1D
1C
ENDCHAR
STARTCHAR two
ENCODING 50
SWIDTH 560 0
DWIDTH 7 0
BBX 6 8 0 0
BITMAP
1FD0
29F0
34B0
10E0
02D0
0B40
7E50
7FF0
ENDCHAR
STARTCHAR three
ENCODING 51
SWIDTH 520 0
DWIDTH 6 0
BBX 6 8 0 0
BITMAP
1FD0
39E0
20E0
06C0
0BD0
50E0
B6E0
2F80
ENDCHAR
STARTCHAR four
ENCODING 52
SWIDTH 577 0
DWIDTH 7 0
BBX 7 8 0 0
BITMAP
0100
0E00
1D70
28A0
74E0
7FF8
15E0
00D0
ENDCHAR
STARTCHAR five
ENCODING 53
SWIDTH 518 0
DWIDTH 6 0
BBX 6 7 0 0
BITMAP
3FF0
2950
3F80
16E0
60E0
7AD0
2F80
ENDCHAR
STARTCHAR six
ENCODING 54
SWIDTH 541 0
DWIDTH 6 0
BBX 6 8 0 0
BITMAP
0BE0
2DB0
3410
7BC0
79E0
74A0
3AE0
1F80
ENDCHAR
STARTCHAR seven
ENCODING 55
SWIDTH 497 0
DWIDTH 6 0
BBX 6 7 0 0
BITMAP
7FF0
16E0
0740
0E00
1D00
1D00
1C00
ENDCHAR
STARTCHAR eight
ENCODING 56
SWIDTH 512 0
DWIDTH 6 0
BBX 6 8 0 0
BITMAP
1FD0
39E0
38A0
2FC0
2FD0
70E0
7AE0
2F80
ENDCHAR
STARTCHAR nine
ENCODING 57
SWIDTH 541 0
DWIDTH 6 0
BBX 6 8 0 0
BITMAP
1FD0
39E0
34B0
39F0
2FF0
14A0
76D0
2F40
ENDCHAR
STARTCHAR colon
ENCODING 58
SWIDTH 257 0
DWIDTH 3 0
BBX 3 5 0 0
BITMAP
3C
38
00
B4
74
ENDCHAR
STARTCHAR semicolon
ENCODING 59
SWIDTH 257 0
DWIDTH 3 0
BBX 3 7 0 -2
BITMAP
3C
38
10
74
B4
A0
90
ENDCHAR
STARTCHAR less
ENCODING 60
SWIDTH 700 0
DWIDTH 8 0
BBX 7 6 1 1
BITMAP
0068
1BE4
BD00
F900
1BE0
01B0
ENDCHAR
STARTCHAR equal
ENCODING 61
SWIDTH 700 0
DWIDTH 8 0
BBX 7 5 1 1
BITMAP
BFF8
5550
0000
FFF4
5550
ENDCHAR
STARTCHAR greater
ENCODING 62
SWIDTH 700 0
DWIDTH 8 0
BBX 7 6 1 1
BITMAP
B400
6F80
02F4
06F4
7F40
E400
ENDCHAR
STARTCHAR question
ENCODING 63
SWIDTH 476 0
DWIDTH 6 0
BBX 6 11 1 0
BITMAP
2F40
B7C0
D2D0
43C0
0B40
1D00
3400
3000
0000
F000
E000
ENDCHAR
STARTCHAR at
ENCODING 64
SWIDTH 1015 0
DWIDTH 12 0
BBX 12 13 0 -4
BITMAP
00BFE0
07E5BC
0E001D
2C2E4A
38BB4A
74E34A
71D70D
71EB6C
74B6E0
380000
1E41B8
06FFE0
001400
ENDCHAR
STARTCHAR A
ENCODING 65
SWIDTH 786 0
DWIDTH 9 0
BBX 11 11 0 0
BITMAP
006FE0
02EAA0
0B4240
1D0380
2C0740
380740
740B00
740F00
782F08
2EBBA8
0B92E0
ENDCHAR
STARTCHAR B
ENCODING 66
SWIDTH 827 0
DWIDTH 10 0
BBX 11 12 0 -1
BITMAP
06FF80
7E96F0
A100B4
074074
0B01E0
0E3F40
0E1B80
1D02C0
1D03C0
2E6F40
2FF900
140000
ENDCHAR
STARTCHAR C
ENCODING 67
SWIDTH 686 0
DWIDTH 8 0
BBX 10 11 0 0
BITMAP
01BD00
079B00
1E0740
2C0740
380100
380000
780000
380000
2D0010
1F96E0
02FE40
ENDCHAR
STARTCHAR D
ENCODING 68
SWIDTH 836 0
DWIDTH 10 0
BBX 10 11 0 0
BITMAP
0AF900
7E6B80
5102D0
0B00E0
0B00E0
0E00E0
1D01E0
1D02D0
2D0780
2D6E00
1FE400
ENDCHAR
STARTCHAR E
ENCODING 69
SWIDTH 686 0
DWIDTH 8 0
BBX 10 11 0 0
BITMAP
02FD00
0B9B40
1E0380
1D0340
0E4100
0BE000
2E4000
740000
B40000
7E5AE0
1BFE40
ENDCHAR
STARTCHAR F
ENCODING 70
SWIDTH 712 0
DWIDTH 9 0
BBX 11 11 0 0
BITMAP
06BFF8
1E7954
387400
387400
147400
02FFC0
01B540
00B000
80E000
E6D000
6F4000
ENDCHAR
STARTCHAR G
ENCODING 71
SWIDTH 811 0
DWIDTH 10 0
BBX 11 17 0 -6
BITMAP
01BE00
079B80
1E0380
2C0380
380000
380000
781FC0
3806C0
2D0288
1F9BF4
06FBD0
000B40
002F00
006700
00DA00
00ED00
00B400
ENDCHAR
STARTCHAR H
ENCODING 72
SWIDTH 873 0
DWIDTH 10 0
BBX 12 11 0 0
BITMAP
2F407C
A780E9
8381C9
03829C
0787F8
2FFFD0
0B4740
0B0740
0E0382
0E02DA
0D01F8
ENDCHAR
STARTCHAR I
ENCODING 73
SWIDTH 495 0
DWIDTH 6 0
BBX 7 11 0 0
BITMAP
2FF8
1790
0780
0740
0740
0B00
0B00
0E00
0E00
5E40
FFC0
ENDCHAR
STARTCHAR J
ENCODING 74
SWIDTH 743 0
DWIDTH 9 0
BBX 8 13 1 -2
BITMAP
1BFE
B96E
D01D
D01D
901D
007C
07F8
1E38
3874
74B0
79D0
2F80
0400
ENDCHAR
STARTCHAR K
ENCODING 75
SWIDTH 937 0
DWIDTH 11 0
BBX 13 11 0 0
BITMAP
0BF80D00
2D781D00
34743C00
3474B400
10B6D000
01FE0000
00FB4000
00E3C000
91D2D180
B6C0FB40
2F407D00
ENDCHAR
STARTCHAR L
ENCODING 76
SWIDTH 673 0
DWIDTH 8 0
BBX 11 11 -1 0
BITMAP
002F80
00F6E0
02D0A0
03C0E0
038000
038000
074000
074000
2F8018
7FF9B4
7D6FD0
ENDCHAR
STARTCHAR M
ENCODING 77
SWIDTH 1232 0
DWIDTH 15 0
BBX 17 11 0 0
BITMAP
1F0B86D000
7B6ADEF000
C3A1E4B000
07C1F0B000
0781E0E000
0742D0E000
0B42C1D000
0B0381D000
0F0382C140
0E0781EB00
0D0340B900
ENDCHAR
STARTCHAR N
ENCODING 78
SWIDTH 884 0
DWIDTH 11 0
BBX 12 11 0 0
BITMAP
1F0BD0
7B69E0
C3A0B0
07D0E0
0780E0
0741D0
0B42D0
0B02C0
0F02C2
0E02EA
0D00B8
ENDCHAR
STARTCHAR O
ENCODING 79
SWIDTH 816 0
DWIDTH 10 0
BBX 10 11 0 0
BITMAP
01BE00
079B80
1E02D0
2C01D0
3801E0
3801D0
7801D0
3802C0
3C0780
1E6E00
06F400
ENDCHAR
STARTCHAR P
ENCODING 80
SWIDTH 805 0
DWIDTH 10 0
BBX 10 12 0 -1
BITMAP
00BF40
0797D0
0E70E0
28B0E0
34E1E0
75EBC0
73FE00
71D000
72C000
76C000
3B8000
1B4000
ENDCHAR
STARTCHAR Q
ENCODING 81
SWIDTH 816 0
DWIDTH 10 0
BBX 11 16 0 -5
BITMAP
01BE00
079B80
1E02D0
2C01D0
3801E0
3801E0
7801D0
3802C0
3C0780
1E6F00
07F800
00B400
003C04
002E64
000BE0
000140
ENDCHAR
STARTCHAR R
ENCODING 82
SWIDTH 880 0
DWIDTH 11 0
BBX 12 11 0 0
BITMAP
01BE40
0797D0
1D11E0
28B0E0
34E1D0
70E780
73FE00
71EF00
36C781
2BC3EB
0B41B8
ENDCHAR
STARTCHAR S
ENCODING 83
SWIDTH 693 0
DWIDTH 8 0
BBX 9 11 0 0
BITMAP
06F900
1E5F00
2C0740
2C0700
1F4000
07F400
007D00
700E00
B00E00
796D00
1BE400
ENDCHAR
STARTCHAR T
ENCODING 84
SWIDTH 697 0
DWIDTH 8 0
BBX 11 11 0 0
BITMAP
06FFF8
397954
707400
707400
20B000
00B000
00E000
00E000
01E000
01D000
01D000
ENDCHAR
STARTCHAR U
ENCODING 85
SWIDTH 890 0
DWIDTH 11 0
BBX 12 11 0 0
BITMAP
1F4070
7780B0
C380F0
0380E0
0741E0
0B42D0
0B03D0
0E07C0
0E0EC2
0FB5EB
07D0B8
ENDCHAR
STARTCHAR V
ENCODING 86
SWIDTH 763 0
DWIDTH 9 0
BBX 10 11 1 0
BITMAP
341E00
743B40
747340
747740
B43F40
B40FE0
741D40
742800
787400
3ED000
1F4000
ENDCHAR
STARTCHAR W
ENCODING 87
SWIDTH 1217 0
DWIDTH 15 0
BBX 16 11 1 0
BITMAP
340702D0
740B0AB0
740F0DB0
740F0DA0
B41E07E0
B02E02FD
B43E0394
747B0740
78D70E00
3FC3FC00
1E02E000
ENDCHAR
STARTCHAR X
ENCODING 88
SWIDTH 712 0
DWIDTH 9 0
BBX 10 11 0 0
BITMAP
2F41C0
AB8780
42DF00
01FC00
00F400
01F000
07F000
0F7400
2D3820
B42DA0
E00B80
ENDCHAR
STARTCHAR Y
ENCODING 89
SWIDTH 851 0
DWIDTH 10 0
BBX 12 16 0 -5
BITMAP
1F4070
7780B0
C380F0
0380E0
0741E0
0B42D0
0B07D0
0B5EC0
07F6ED
005BE4
00BF80
01E380
038740
039A00
02FC00
005000
ENDCHAR
STARTCHAR Z
ENCODING 90
SWIDTH 721 0
DWIDTH 9 0
BBX 10 11 0 0
BITMAP
0BFE80
3E5BD0
740B40
341E00
102C00
007400
01F000
03D000
6F8020
BFF9A0
796F80
ENDCHAR
STARTCHAR bracketleft
ENCODING 91
SWIDTH 405 0
DWIDTH 5 0
BBX 5 14 1 -2
BITMAP
2F80
3940
3800
3400
7400
7400
B000
B000
B000
E000
E000
E000
FE00
5400
ENDCHAR
STARTCHAR backslash
ENCODING 92
SWIDTH 509 0
DWIDTH 6 0
BBX 5 12 1 0
BITMAP
6000
B000
7400
3800
2800
2C00
1D00
0E00
0B00
0700
0740
0240
ENDCHAR
STARTCHAR bracketright
ENCODING 93
SWIDTH 405 0
DWIDTH 5 0
BBX 6 14 -1 -2
BITMAP
0FD0
05E0
01D0
01D0
01D0
02C0
02C0
0280
0380
0380
0740
0740
7F00
1400
ENDCHAR
STARTCHAR asciicircum
ENCODING 94
SWIDTH 700 0
DWIDTH 8 0
BBX 6 7 1 1
BITMAP
0340
0B80
0EC0
2CD0
3490
B0A0
9060
ENDCHAR
STARTCHAR underscore
ENCODING 95
SWIDTH 354 0
DWIDTH 4 0
BBX 5 2 -1 -2
BITMAP
7FC0
1540
ENDCHAR
STARTCHAR grave
ENCODING 96
SWIDTH 600 0
DWIDTH 7 0
BBX 3 4 1 7
BITMAP
60
74
28
08
ENDCHAR
STARTCHAR a
ENCODING 97
SWIDTH 470 0
DWIDTH 6 0
BBX 7 6 0 0
BITMAP
0B40
2EC0
75C0
B2C8
7BEC
3DE0
ENDCHAR
STARTCHAR b
ENCODING 98
SWIDTH 473 0
DWIDTH 6 0
BBX 8 12 0 0
BITMAP
0780
0EC0
1CC0
2980
3A40
3A00
7F80
7AD4
75FD
74D0
3AC0
1F40
ENDCHAR
STARTCHAR c
ENCODING 99
SWIDTH 368 0
DWIDTH 4 0
BBX 6 6 0 0
BITMAP
1F00
3B40
7200
B020
79E0
2F80
ENDCHAR
STARTCHAR d
ENCODING 100
SWIDTH 515 0
DWIDTH 6 0
BBX 8 12 0 0
BITMAP
0028
007D
0099
00DC
01DC
01D8
0BE4
2EE0
76D0
B1C2
7BED
2DB4
ENDCHAR
STARTCHAR e
ENCODING 101
SWIDTH 393 0
DWIDTH 5 0
BBX 7 6 0 0
BITMAP
1F40
7B80
B340
BD24
79F0
2F80
ENDCHAR
STARTCHAR f
ENCODING 102
SWIDTH 371 0
DWIDTH 4 0
BBX 6 17 0 -5
BITMAP
02D0
07A0
0EA0
1D90
2CC0
2980
3A00
3D00
7400
7BE0
7A40
7600
7600
7600
3A00
2D00
0400
ENDCHAR
STARTCHAR g
ENCODING 103
SWIDTH 479 0
DWIDTH 6 0
BBX 7 12 0 -6
BITMAP
0B40
2EC0
75C0
B288
7BF8
3FD0
0B40
2F00
6700
9A00
ED00
B400
ENDCHAR
STARTCHAR h
ENCODING 104
SWIDTH 502 0
DWIDTH 6 0
BBX 8 12 0 0
BITMAP
0780
0EC0
1CC0
2980
3A40
3A00
7DD0
77E0
79D0
79D5
79ED
70F4
ENDCHAR
STARTCHAR i
ENCODING 105
SWIDTH 246 0
DWIDTH 3 0
BBX 5 8 0 0
BITMAP
2D00
0400
2400
3400
7400
7140
7B40
3D00
ENDCHAR
STARTCHAR j
ENCODING 106
SWIDTH 254 0
DWIDTH 3 0
BBX 8 14 -3 -6
BITMAP
00F0
0040
0090
00D0
01D0
01C9
01EC
02E0
0780
1F40
3740
6700
AE00
7800
ENDCHAR
STARTCHAR k
ENCODING 107
SWIDTH 525 0
DWIDTH 6 0
BBX 8 12 0 0
BITMAP
0780
0EC0
1CC0
2980
3A40
3A00
7DE0
77B0
79B0
7AD2
76DE
35F8
ENDCHAR
STARTCHAR l
ENCODING 108
SWIDTH 326 0
DWIDTH 4 0
BBX 6 12 0 0
BITMAP
0780
0EC0
1CC0
28C0
3980
3640
7700
7900
7C00
7450
3AC0
1F40
ENDCHAR
STARTCHAR m
ENCODING 109
SWIDTH 744 0
DWIDTH 9 0
BBX 11 6 0 0
BITMAP
25D740
3BEF40
7DF740
79E714
75D7B4
71C7D0
ENDCHAR
STARTCHAR n
ENCODING 110
SWIDTH 496 0
DWIDTH 6 0
BBX 8 6 0 0
BITMAP
25D0
3BD0
7DD0
79C5
75ED
70F4
ENDCHAR
STARTCHAR o
ENCODING 111
SWIDTH 451 0
DWIDTH 5 0
BBX 7 6 0 0
BITMAP
1F40
7BD4
B2FC
B1D0
7A80
2E00
ENDCHAR
STARTCHAR p
ENCODING 112
SWIDTH 481 0
DWIDTH 6 0
BBX 10 12 -2 -6
BITMAP
037800
07ED00
075D00
076C50
0BBAC0
1FEE00
2B0000
370000
670000
6A0000
7D0000
380000
ENDCHAR
STARTCHAR q
ENCODING 113
SWIDTH 500 0
DWIDTH 6 0
BBX 8 12 0 -5
BITMAP
0050
0BE0
2ED0
75C0
B280
7BBD
3F74
0370
0770
0770
03E0
02C0
ENDCHAR
STARTCHAR r
ENCODING 114
SWIDTH 455 0
DWIDTH 5 0
BBX 7 6 0 0
BITMAP
25D0
37D0
79D8
78F8
7410
7000
ENDCHAR
STARTCHAR s
ENCODING 115
SWIDTH 427 0
DWIDTH 5 0
BBX 7 6 0 0
BITMAP
0A00
1D00
2F00
7798
DBF4
1FD0
ENDCHAR
STARTCHAR t
ENCODING 116
SWIDTH 393 0
DWIDTH 5 0
BBX 6 11 0 0
BITMAP
03C0
0AD0
0DC0
1D80
2F40
FFD0
7940
3800
3810
2DB0
0B80
ENDCHAR
STARTCHAR u
ENCODING 117
SWIDTH 462 0
DWIDTH 6 0
BBX 7 6 0 0
BITMAP
28D0
35C0
72C0
7788
7FA8
39E0
ENDCHAR
STARTCHAR v
ENCODING 118
SWIDTH 449 0
DWIDTH 5 0
BBX 7 6 0 0
BITMAP
71C0
73D4
73FC
7B50
7E00
3800
ENDCHAR
STARTCHAR w
ENCODING 119
SWIDTH 700 0
DWIDTH 8 0
BBX 10 6 0 0
BITMAP
71C700
72CB50
77CFF0
7AED40
7DF800
38A000
ENDCHAR
STARTCHAR x
ENCODING 120
SWIDTH 529 0
DWIDTH 6 0
BBX 8 6 0 0
BITMAP
2DB4
3BE4
0380
6742
AB9E
79F8
ENDCHAR
STARTCHAR y
ENCODING 121
SWIDTH 479 0
DWIDTH 6 0
BBX 7 12 0 -6
BITMAP
28D0
35C0
72C0
7788
7FF8
3AD0
0B40
2F00
6700
DA00
ED00
B400
ENDCHAR
STARTCHAR z
ENCODING 122
SWIDTH 445 0
DWIDTH 5 0
BBX 7 6 0 0
BITMAP
7FE0
1BD0
1D00
3808
39B8
1F90
ENDCHAR
STARTCHAR braceleft
ENCODING 123
SWIDTH 490 0
DWIDTH 6 0
BBX 7 14 0 -2
BITMAP
00B8
02E4
0380
0380
0740
0B00
7D00
1E00
0B00
0A00
0E00
0E00
07E0
0040
ENDCHAR
STARTCHAR bar
ENCODING 124
SWIDTH 326 0
DWIDTH 4 0
BBX 4 16 0 -4
BITMAP
0A
0A
0E
0D
1D
1D
1C
2C
28
38
34
34
74
70
B0
A0
ENDCHAR
STARTCHAR braceright
ENCODING 125
SWIDTH 490 0
DWIDTH 6 0
BBX 7 14 -1 -2
BITMAP
0F80
06D0
01D0
01D0
01D0
01D0
00F8
02D0
0380
0380
0340
0B40
7E00
1000
ENDCHAR
STARTCHAR asciitilde
ENCODING 126
SWIDTH 700 0
DWIDTH 8 0
BBX 7 3 1 2
BITMAP
7828
BFB4
D1E0
ENDCHAR
STARTCHAR uni00A0
ENCODING 160
SWIDTH 265 0
DWIDTH 3 0
BBX 1 1 0 0
BITMAP
00
ENDCHAR
STARTCHAR exclamdown
ENCODING 161
SWIDTH 340 0
DWIDTH 4 0
BBX 5 11 -1 -5
BITMAP
0740
0780
0100
0A00
0E00
0D00
1D00
2C00
3800
7800
2000
ENDCHAR
STARTCHAR cent
ENCODING 162
SWIDTH 466 0
DWIDTH 6 0
BBX 5 9 0 -2
BITMAP
0200
0600
2FC0
7AC0
7540
7980
3F80
0D00
0800
ENDCHAR
STARTCHAR sterling
ENCODING 163
SWIDTH 525 0
DWIDTH 6 0
BBX 7 7 0 0
BITMAP
0BE0
1D74
2800
BF80
3900
7950
BFF0
ENDCHAR
STARTCHAR currency
ENCODING 164
SWIDTH 700 0
DWIDTH 8 0
BBX 6 6 1 1
BITMAP
6FB0
39E0
3060
34A0
7FE0
5120
ENDCHAR
STARTCHAR yen
ENCODING 165
SWIDTH 497 0
DWIDTH 6 0
BBX 6 8 0 0
BITMAP
5010
74B0
29D0
1F80
7FD0
1F40
7FD0
1E40
ENDCHAR
STARTCHAR brokenbar
ENCODING 166
SWIDTH 326 0
DWIDTH 4 0
BBX 4 16 0 -4
BITMAP
0A
0A
0E
0D
1D
1C
1C
00
00
24
38
34
74
70
B0
A0
ENDCHAR
STARTCHAR section
ENCODING 167
SWIDTH 607 0
DWIDTH 7 0
BBX 6 11 1 0
BITMAP
1B80
39E0
34A0
3D00
7B80
A1D0
79D0
1B80
D2C0
E680
7E40
ENDCHAR
STARTCHAR dieresis
ENCODING 168
SWIDTH 600 0
DWIDTH 7 0
BBX 5 2 1 7
BITMAP
7680
7680
ENDCHAR
STARTCHAR copyright
ENCODING 169
SWIDTH 647 0
DWIDTH 8 0
BBX 7 8 1 4
BITMAP
1FD0
6BA4
9D88
D80C
D85C
7BB4
2FE0
0100
ENDCHAR
STARTCHAR ordfeminine
ENCODING 170
SWIDTH 393 0
DWIDTH 5 0
BBX 4 5 1 5
BITMAP
2E
B7
D7
DA
BA
ENDCHAR
STARTCHAR guillemotleft
ENCODING 171
SWIDTH 615 0
DWIDTH 7 0
BBX 7 5 0 1
BITMAP
0A28
7DF4
B1D0
3DB4
0928
ENDCHAR
STARTCHAR logicalnot
ENCODING 172
SWIDTH 700 0
DWIDTH 8 0
BBX 7 4 1 0
BITMAP
FFF4
5574
0034
0020
ENDCHAR
STARTCHAR uni00AD
ENCODING 173
SWIDTH 403 0
DWIDTH 5 0
BBX 5 2 0 3
BITMAP
1600
7E40
ENDCHAR
STARTCHAR registered
ENCODING 174
SWIDTH 647 0
DWIDTH 8 0
BBX 7 8 1 4
BITMAP
1FD0
7FB4
9998
CB4C
C98C
7474
2FE0
0100
ENDCHAR
STARTCHAR macron
ENCODING 175
SWIDTH 600 0
DWIDTH 7 0
BBX 5 2 1 6
BITMAP
7F40
1500
ENDCHAR
STARTCHAR degree
ENCODING 176
SWIDTH 385 0
DWIDTH 5 0
BBX 4 4 1 7
BITMAP
7D
AA
9A
7D
ENDCHAR
STARTCHAR plusminus
ENCODING 177
SWIDTH 700 0
DWIDTH 8 0
BBX 6 8 1 0
BITMAP
0100
0340
0740
7FF0
1B50
0600
5550
BFE0
ENDCHAR
STARTCHAR uni00B2
ENCODING 178
SWIDTH 450 0
DWIDTH 5 0
BBX 6 6 0 4
BITMAP
1F80
25D0
11C0
0780
2E00
7FD0
ENDCHAR
STARTCHAR uni00B3
ENCODING 179
SWIDTH 450 0
DWIDTH 5 0
BBX 5 6 1 4
BITMAP
6E00
9740
0A00
1E00
C740
BE00
ENDCHAR
STARTCHAR acute
ENCODING 180
SWIDTH 600 0
DWIDTH 7 0
BBX 3 4 3 7
BITMAP
28
38
70
90
ENDCHAR
STARTCHAR uni00B5
ENCODING 181
SWIDTH 462 0
DWIDTH 6 0
BBX 7 10 0 -4
BITMAP
28D0
35C0
72C0
7788
7FA8
B9E0
A000
A000
A000
5000
ENDCHAR
STARTCHAR paragraph
ENCODING 182
SWIDTH 739 0
DWIDTH 9 0
BBX 8 11 1 0
BITMAP
1BF8
7FAD
BF9D
BF6C
2F6C
0B28
0B38
0E38
0E74
0E74
0D70
ENDCHAR
STARTCHAR periodcentered
ENCODING 183
SWIDTH 257 0
DWIDTH 3 0
BBX 3 2 0 2
BITMAP
78
78
ENDCHAR
STARTCHAR cedilla
ENCODING 184
SWIDTH 600 0
DWIDTH 7 0
BBX 4 5 0 -4
BITMAP
2E
07
07
7E
14
ENDCHAR
STARTCHAR uni00B9
ENCODING 185
SWIDTH 450 0
DWIDTH 5 0
BBX 4 6 1 4
BITMAP
6D
6D
0D
1C
1C
18
ENDCHAR
STARTCHAR ordmasculine
ENCODING 186
SWIDTH 408 0
DWIDTH 5 0
BBX 4 5 1 5
BITMAP
2D
A7
D7
D7
7D
ENDCHAR
STARTCHAR guillemotright
ENCODING 187
SWIDTH 615 0
DWIDTH 7 0
BBX 7 5 0 1
BITMAP
74D0
2DB4
0E2C
2DB8
74D0
ENDCHAR
STARTCHAR onequarter
ENCODING 188
SWIDTH 955 0
DWIDTH 11 0
BBX 10 10 1 0
BITMAP
6D0000
6D0900
0D1C00
1C3800
1CB340
19D750
028EA0
075CD0
061FF0
0001D0
ENDCHAR
STARTCHAR onehalf
ENCODING 189
SWIDTH 1024 0
DWIDTH 12 0
BBX 11 10 1 0
BITMAP
6D0000
6D0900
0D1C00
1C3800
1CB2F4
19D638
028534
0740A0
060790
000FF8
ENDCHAR
STARTCHAR threequarters
ENCODING 190
SWIDTH 1035 0
DWIDTH 12 0
BBX 11 10 1 0
BITMAP
6E0000
974240
0A0700
1E0D00
C76CD0
BE75D4
00A368
01D734
0287FC
000170
ENDCHAR
STARTCHAR questiondown
ENCODING 191
SWIDTH 476 0
DWIDTH 6 0
BBX 6 11 -1 -5
BITMAP
00E0
01E0
0040
01C0
0380
0A00
3C00
7490
75E0
3FC0
0500
ENDCHAR
STARTCHAR Agrave
ENCODING 192
SWIDTH 786 0
DWIDTH 9 0
BBX 11 15 0 0
BITMAP
00E000
00B800
001900
000000
006FE0
02EAA0
0B4240
1D0380
2C0740
380740
740B00
740F00
782F08
2EBBA8
0B92E0
ENDCHAR
STARTCHAR Aacute
ENCODING 193
SWIDTH 786 0
DWIDTH 9 0
BBX 11 15 0 0
BITMAP
000074
0001E0
000340
000000
006FE0
02EAA0
0B4240
1D0380
2C0740
380740
740B00
740F00
782F08
2EBBA8
0B92E0
ENDCHAR
STARTCHAR Acircumflex
ENCODING 194
SWIDTH 786 0
DWIDTH 9 0
BBX 11 16 0 0
BITMAP
000100
000B80
001DC0
0024D0
000000
006FE0
02EAA0
0B4240
1D0380
2C0740
380740
740B00
740F00
782F08
2EBBA8
0B92E0
ENDCHAR
STARTCHAR Atilde
ENCODING 195
SWIDTH 786 0
DWIDTH 9 0
BBX 11 15 0 0
BITMAP
000410
003EB0
0072D0
000000
006FE0
02EAA0
0B4240
1D0380
2C0740
380740
740B00
740F00
782F08
2EBBA8
0B92E0
ENDCHAR
STARTCHAR Adieresis
ENCODING 196
SWIDTH 786 0
DWIDTH 9 0
BBX 11 14 0 0
BITMAP
0029D0
0029D0
000000
006FE0
02EAA0
0B4240
1D0380
2C0740
380740
740B00
740F00
782F08
2EBBA8
0B92E0
ENDCHAR
STARTCHAR Aring
ENCODING 197
SWIDTH 786 0
DWIDTH 9 0
BBX 11 15 0 0
BITMAP
000B80
000EC0
000F80
000100
006FE0
02EAA0
0B4240
1D0380
2C0740
380740
740B00
740F00
782F08
2EBBA8
0B92E0
ENDCHAR
STARTCHAR AE
ENCODING 198
SWIDTH 1015 0
DWIDTH 12 0
BBX 14 11 0 0
BITMAP
006CBF80
02E9E540
0B42C000
1D038000
3C078000
3807FF00
780B9500
740F0000
782F4010
2EB7E6E0
0BD1BE40
ENDCHAR
STARTCHAR Ccedilla
ENCODING 199
SWIDTH 686 0
DWIDTH 8 0
BBX 10 15 0 -4
BITMAP
01BD00
079B00
1E0740
2C0740
380100
380000
780000
380000
2D0010
1F96E0
07FE40
01A000
00B000
07D000
010000
ENDCHAR
STARTCHAR Egrave
ENCODING 200
SWIDTH 686 0
DWIDTH 8 0
BBX 10 15 0 0
BITMAP
060000
07D000
00A000
000000
02FD00
0B9B40
1E0380
1D0340
0E4100
0BE000
2E4000
740000
B40000
7E5AE0
1BFE40
ENDCHAR
STARTCHAR Eacute
ENCODING 201
SWIDTH 686 0
DWIDTH 8 0
BBX 10 15 0 0
BITMAP
000280
000B40
002800
000000
02FD00
0B9B40
1E0380
1D0340
0E4100
0BE000
2E4000
740000
B40000
7E5AE0
1BFE40
ENDCHAR
STARTCHAR Ecircumflex
ENCODING 202
SWIDTH 686 0
DWIDTH 8 0
BBX 10 16 0 0
BITMAP
001400
007C00
00EA00
01C600
000000
02FD00
0B9B40
1E0380
1D0340
0E4100
0BE000
2E4000
740000
B40000
7E5AE0
1BFE40
ENDCHAR
STARTCHAR Edieresis
ENCODING 203
SWIDTH 686 0
DWIDTH 8 0
BBX 10 14 0 0
BITMAP
01DA00
01DA00
000000
02FD00
0B9B40
1E0380
1D0340
0E4100
0BE000
2E4000
740000
B40000
7E5AE0
1BFE40
ENDCHAR
STARTCHAR Igrave
ENCODING 204
SWIDTH 495 0
DWIDTH 6 0
BBX 7 15 0 0
BITMAP
3400
2E00
0640
0000
2FF8
1790
0780
0740
0740
0B00
0B00
0E00
0E00
5E40
FFC0
ENDCHAR
STARTCHAR Iacute
ENCODING 205
SWIDTH 495 0
DWIDTH 6 0
BBX 7 15 0 0
BITMAP
001C
0078
01D0
0000
2FF8
1790
0780
0740
0740
0B00
0B00
0E00
0E00
5E40
FFC0
ENDCHAR
STARTCHAR Icircumflex
ENCODING 206
SWIDTH 495 0
DWIDTH 6 0
BBX 7 16 0 0
BITMAP
0040
02E0
0770
0930
0000
2FF8
1790
0780
0740
0740
0B00
0B00
0E00
0E00
5E40
FFC0
ENDCHAR
STARTCHAR Idieresis
ENCODING 207
SWIDTH 495 0
DWIDTH 6 0
BBX 7 14 0 0
BITMAP
0A74
0A74
0000
2FF8
1790
0780
0740
0740
0B00
0B00
0E00
0E00
5E40
FFC0
ENDCHAR
STARTCHAR Eth
ENCODING 208
SWIDTH 821 0
DWIDTH 10 0
BBX 10 11 0 0
BITMAP
02F900
079B80
0702D0
0B01E0
0E00E0
BFF1E0
2D51D0
2C02C0
2C0B80
3D6E00
2FE400
ENDCHAR
STARTCHAR Ntilde
ENCODING 209
SWIDTH 884 0
DWIDTH 11 0
BBX 12 15 0 0
BITMAP
001450
007DD0
009780
000000
1F0BD0
7B69E0
C3A0B0
07D0E0
0780E0
0741D0
0B42D0
0B02C0
0F02C2
0E02EA
0D00B8
ENDCHAR
STARTCHAR Ograve
ENCODING 210
SWIDTH 816 0
DWIDTH 10 0
BBX 10 15 0 0
BITMAP
074000
03D000
007000
000000
01BE00
079B80
1E02D0
2C01D0
3801E0
3801D0
7801D0
3802C0
3C0780
1E6E00
06F400
ENDCHAR
STARTCHAR Oacute
ENCODING 211
SWIDTH 816 0
DWIDTH 10 0
BBX 10 15 0 0
BITMAP
000280
000B80
001900
000000
01BE00
079B80
1E02D0
2C01D0
3801E0
3801D0
7801D0
3802C0
3C0780
1E6E00
06F400
ENDCHAR
STARTCHAR Ocircumflex
ENCODING 212
SWIDTH 816 0
DWIDTH 10 0
BBX 10 16 0 0
BITMAP
001400
003D00
00AA00
00D600
000000
01BE00
079B80
1E02D0
2C01D0
3801E0
3801D0
7801D0
3802C0
3C0780
1E6E00
06F400
ENDCHAR
STARTCHAR Otilde
ENCODING 213
SWIDTH 816 0
DWIDTH 10 0
BBX 10 15 0 0
BITMAP
005040
01FA80
029A00
000000
01BE00
079B80
1E02D0
2C01D0
3801E0
3801D0
7801D0
3802C0
3C0780
1E6E00
06F400
ENDCHAR
STARTCHAR Odieresis
ENCODING 214
SWIDTH 816 0
DWIDTH 10 0
BBX 10 14 0 0
BITMAP
00D700
00D700
000000
01BE00
079B80
1E02D0
2C01D0
3801E0
3801D0
7801D0
3802C0
3C0780
1E6E00
06F400
ENDCHAR
STARTCHAR multiply
ENCODING 215
SWIDTH 700 0
DWIDTH 8 0
BBX 6 6 1 1
BITMAP
3470
3DE0
1F80
1F80
7AD0
A0A0
ENDCHAR
STARTCHAR Oslash
ENCODING 216
SWIDTH 816 0
DWIDTH 10 0
BBX 10 14 0 -2
BITMAP
000D00
01BE00
07AF80
1E2AD0
2C35D0
3871E0
3861D0
78A1D0
38D2C0
3DC780
1FEE00
07F400
034000
010000
ENDCHAR
STARTCHAR Ugrave
ENCODING 217
SWIDTH 890 0
DWIDTH 11 0
BBX 12 15 0 0
BITMAP
028000
01E000
002800
000000
1F4070
7780B0
C380F0
0380E0
0741E0
0B42D0
0B03D0
0E07C0
0E0EC2
0FB5EB
07D0B8
ENDCHAR
STARTCHAR Uacute
ENCODING 218
SWIDTH 890 0
DWIDTH 11 0
BBX 12 15 0 0
BITMAP
000090
0007D0
000A00
000000
1F4070
7780B0
C380F0
0380E0
0741E0
0B42D0
0B03D0
0E07C0
0E0EC2
0FB5EB
07D0B8
ENDCHAR
STARTCHAR Ucircumflex
ENCODING 219
SWIDTH 890 0
DWIDTH 11 0
BBX 12 16 0 0
BITMAP
000500
001F00
003740
006240
000000
1F4070
7780B0
C380F0
0380E0
0741E0
0B42D0
0B03D0
0E07C0
0E0EC2
0FB5EB
07D0B8
ENDCHAR
STARTCHAR Udieresis
ENCODING 220
SWIDTH 890 0
DWIDTH 11 0
BBX 12 14 0 0
BITMAP
007380
007380
000000
1F4070
7780B0
C380F0
0380E0
0741E0
0B42D0
0B03D0
0E07C0
0E0EC2
0FB5EB
07D0B8
ENDCHAR
STARTCHAR Yacute
ENCODING 221
SWIDTH 851 0
DWIDTH 10 0
BBX 12 20 0 -5
BITMAP
0000A0
0002D0
000A00
000000
1F4070
7780B0
C380F0
0380E0
0741E0
0B42D0
0B07D0
0B5EC0
07F6ED
005BE4
00BF80
01E380
038740
039A00
02FC00
005000
ENDCHAR
STARTCHAR Thorn
ENCODING 222
SWIDTH 776 0
DWIDTH 9 0
BBX 10 14 0 -2
BITMAP
007000
00B000
00B000
02FE40
0FE7C0
2DE2D0
35D2D0
71D7C0
77FF40
73E400
738000
778000
2F4000
050000
ENDCHAR
STARTCHAR germandbls
ENCODING 223
SWIDTH 596 0
DWIDTH 7 0
BBX 9 13 0 -3
BITMAP
07F400
0E6800
2C2800
38B400
36C000
76D000
72FA40
776D40
7B7800
76E400
700000
700000
100000
ENDCHAR
STARTCHAR agrave
ENCODING 224
SWIDTH 470 0
DWIDTH 6 0
BBX 7 11 0 0
BITMAP
1C00
1D00
0A00
0200
0000
0B40
2EC0
75C0
B2C8
7BEC
3DE0
ENDCHAR
STARTCHAR aacute
ENCODING 225
SWIDTH 470 0
DWIDTH 6 0
BBX 7 11 0 0
BITMAP
0060
00E0
01C0
0240
0000
0B40
2EC0
75C0
B2C8
7BEC
3DE0
ENDCHAR
STARTCHAR acircumflex
ENCODING 226
SWIDTH 470 0
DWIDTH 6 0
BBX 7 11 0 0
BITMAP
02C0
07D0
0DA0
1CA0
0000
0B40
2EC0
75C0
B2C8
7BEC
3DE0
ENDCHAR
STARTCHAR atilde
ENCODING 227
SWIDTH 470 0
DWIDTH 6 0
BBX 7 10 0 0
BITMAP
0510
1F74
25E0
0000
0B40
2EC0
75C0
B2C8
7BEC
3DE0
ENDCHAR
STARTCHAR adieresis
ENCODING 228
SWIDTH 470 0
DWIDTH 6 0
BBX 7 9 0 0
BITMAP
0DA0
0DA0
0000
0B40
2EC0
75C0
B2C8
7BEC
3DE0
ENDCHAR
STARTCHAR aring
ENCODING 229
SWIDTH 470 0
DWIDTH 6 0
BBX 7 10 0 0
BITMAP
07D0
0A90
07D0
0100
0B40
2EC0
75C0
B2C8
7BEC
3DE0
ENDCHAR
STARTCHAR ae
ENCODING 230
SWIDTH 653 0
DWIDTH 8 0
BBX 10 6 0 0
BITMAP
0BAD00
2EEA00
75CA00
B2F890
7BE6C0
2D7E00
ENDCHAR
STARTCHAR ccedilla
ENCODING 231
SWIDTH 368 0
DWIDTH 4 0
BBX 6 10 0 -4
BITMAP
1F00
3B40
7240
B010
75A0
2F40
0700
0700
7E00
1400
ENDCHAR
STARTCHAR egrave
ENCODING 232
SWIDTH 393 0
DWIDTH 5 0
BBX 7 11 0 0
BITMAP
2400
2C00
0D00
0600
0000
1F40
7B80
B340
BD24
79F0
2F80
ENDCHAR
STARTCHAR eacute
ENCODING 233
SWIDTH 393 0
DWIDTH 5 0
BBX 7 11 0 0
BITMAP
00D0
01C0
0280
0200
0000
1F40
7B80
B340
BD24
79F0
2F80
ENDCHAR
STARTCHAR ecircumflex
ENCODING 234
SWIDTH 393 0
DWIDTH 5 0
BBX 7 11 0 0
BITMAP
0740
0A80
1DC0
24C0
0000
1F40
7B80
B340
BD24
79F0
2F80
ENDCHAR
STARTCHAR edieresis
ENCODING 235
SWIDTH 393 0
DWIDTH 5 0
BBX 7 9 0 0
BITMAP
28D0
28D0
0000
1F40
7B80
B340
BD24
79F0
2F80
ENDCHAR
STARTCHAR igrave
ENCODING 236
SWIDTH 246 0
DWIDTH 3 0
BBX 5 11 0 0
BITMAP
D000
E000
7000
2400
0000
2400
3400
7400
7140
7B40
3D00
ENDCHAR
STARTCHAR iacute
ENCODING 237
SWIDTH 246 0
DWIDTH 3 0
BBX 5 11 0 0
BITMAP
0700
0B00
0D00
1800
0000
2400
3400
7400
7140
7B40
3D00
ENDCHAR
STARTCHAR icircumflex
ENCODING 238
SWIDTH 246 0
DWIDTH 3 0
BBX 5 11 0 0
BITMAP
1D00
3A00
A700
D700
0000
2400
3400
7400
7140
7B40
3D00
ENDCHAR
STARTCHAR idieresis
ENCODING 239
SWIDTH 246 0
DWIDTH 3 0
BBX 5 9 0 0
BITMAP
A700
A700
0000
2400
3400
7400
7140
7B40
3D00
ENDCHAR
STARTCHAR eth
ENCODING 240
SWIDTH 451 0
DWIDTH 5 0
BBX 6 12 0 0
BITMAP
0D10
0BB0
07D0
1EC0
01D0
00D0
1FD0
7AD0
B0D0
B1C0
7B80
2E00
ENDCHAR
STARTCHAR ntilde
ENCODING 241
SWIDTH 496 0
DWIDTH 6 0
BBX 8 10 0 0
BITMAP
0514
1F64
25E0
0000
25D0
3BD0
7DD0
79C5
75ED
70F4
ENDCHAR
STARTCHAR ograve
ENCODING 242
SWIDTH 451 0
DWIDTH 5 0
BBX 7 11 0 0
BITMAP
2400
2800
0D00
0500
0000
1F40
7BD4
B2FC
B1D0
7A80
2E00
ENDCHAR
STARTCHAR oacute
ENCODING 243
SWIDTH 451 0
DWIDTH 5 0
BBX 7 11 0 0
BITMAP
00D0
01C0
0340
0200
0000
1F40
7BD4
B2FC
B1D0
7A80
2E00
ENDCHAR
STARTCHAR ocircumflex
ENCODING 244
SWIDTH 451 0
DWIDTH 5 0
BBX 7 11 0 0
BITMAP
0740
0A80
1DC0
24C0
0000
1F40
7BD4
B2FC
B1D0
7A80
2E00
ENDCHAR
STARTCHAR otilde
ENCODING 245
SWIDTH 451 0
DWIDTH 5 0
BBX 7 10 0 0
BITMAP
0410
3EA0
62D0
0000
1F40
7BD4
B2FC
B1D0
7A80
2E00
ENDCHAR
STARTCHAR odieresis
ENCODING 246
SWIDTH 451 0
DWIDTH 5 0
BBX 7 9 0 0
BITMAP
28D0
29D0
0000
1F40
7BD4
B2FC
B1D0
7A80
2E00
ENDCHAR
STARTCHAR divide
ENCODING 247
SWIDTH 700 0
DWIDTH 8 0
BBX 7 7 1 0
BITMAP
0740
0100
0000
FFF4
5550
0500
0E00
ENDCHAR
STARTCHAR oslash
ENCODING 248
SWIDTH 459 0
DWIDTH 6 0
BBX 7 10 0 -2
BITMAP
0100
0300
1F40
7BC0
B6EC
B9E4
7EC0
2E40
0800
0400
ENDCHAR
STARTCHAR ugrave
ENCODING 249
SWIDTH 462 0
DWIDTH 6 0
BBX 7 11 0 0
BITMAP
1800
1D00
0A00
0200
0000
28D0
35C0
72C0
7788
7FA8
39E0
ENDCHAR
STARTCHAR uacute
ENCODING 250
SWIDTH 462 0
DWIDTH 6 0
BBX 7 11 0 0
BITMAP
00A0
00D0
0180
0200
0000
28D0
35C0
72C0
7788
7FA8
39E0
ENDCHAR
STARTCHAR ucircumflex
ENCODING 251
SWIDTH 462 0
DWIDTH 6 0
BBX 7 11 0 0
BITMAP
0280
06C0
0DD0
1890
0000
28D0
35C0
72C0
7788
7FA8
39E0
ENDCHAR
STARTCHAR udieresis
ENCODING 252
SWIDTH 462 0
DWIDTH 6 0
BBX 7 9 0 0
BITMAP
1CA0
1CA0
0000
28D0
35C0
72C0
7788
7FA8
39E0
ENDCHAR
STARTCHAR yacute
ENCODING 253
SWIDTH 479 0
DWIDTH 6 0
BBX 7 17 0 -6
BITMAP
00A0
00D0
0180
0200
0000
28D0
35C0
72C0
7788
7FF8
3AD0
0B40
2F00
6700
DA00
ED00
B400
ENDCHAR
STARTCHAR thorn
ENCODING 254
SWIDTH 508 0
DWIDTH 6 0
BBX 8 14 0 -4
BITMAP
1C00
2C00
2800
3800
36D0
7AE0
78E0
75D6
B7DD
BEF4
A000
A000
A000
A000
ENDCHAR
STARTCHAR ydieresis
ENCODING 255
SWIDTH 479 0
DWIDTH 6 0
BBX 7 15 0 -6
BITMAP
1CA0
1CA0
0000
28D0
35C0
72C0
7788
7FF8
3AD0
0B40
2F00
6700
DA00
ED00
B400
ENDCHAR
STARTCHAR Amacron
ENCODING 256
SWIDTH 786 0
DWIDTH 9 0
BBX 11 13 0 0
BITMAP
002FC0
000540
006FE0
02EAA0
0B4240
1D0380
2C0740
380740
740B00
740F00
782F08
2EBBA8
0B92E0
ENDCHAR
STARTCHAR amacron
ENCODING 257
SWIDTH 470 0
DWIDTH 6 0
BBX 7 8 0 0
BITMAP
0FE0
0540
0B40
2EC0
75C0
B2C8
7BEC
3DE0
ENDCHAR
STARTCHAR Abreve
ENCODING 258
SWIDTH 786 0
DWIDTH 9 0
BBX 11 14 0 0
BITMAP
0034A0
002FD0
000500
006FE0
02EAA0
0B4240
1D0380
2C0740
380740
740B00
740F00
782F08
2EBBA8
0B92E0
ENDCHAR
STARTCHAR abreve
ENCODING 259
SWIDTH 470 0
DWIDTH 6 0
BBX 7 10 0 0
BITMAP
1420
2D74
0FE0
0100
0B40
2EC0
75C0
B2C8
7BEC
3DE0
ENDCHAR
STARTCHAR Aogonek
ENCODING 260
SWIDTH 786 0
DWIDTH 9 0
BBX 11 15 0 -4
BITMAP
006FE0
02E5A0
0B4280
1D0380
2C0740
380740
780B00
740F00
782F08
2EBBA8
0B93E0
000340
000740
0002F0
000040
ENDCHAR
STARTCHAR aogonek
ENCODING 261
SWIDTH 470 0
DWIDTH 6 0
BBX 7 9 0 -3
BITMAP
0B40
2EC0
75C0
B2C8
7BEC
3DE0
0280
0340
02F0
ENDCHAR
STARTCHAR Cacute
ENCODING 262
SWIDTH 686 0
DWIDTH 8 0
BBX 10 15 0 0
BITMAP
000280
000B80
001900
000000
01BD00
079B00
1E0740
2C0740
380100
380000
780000
380000
2D0010
1F96E0
02FE40
ENDCHAR
STARTCHAR cacute
ENCODING 263
SWIDTH 368 0
DWIDTH 4 0
BBX 6 11 0 0
BITMAP
00D0
01C0
0340
0600
0000
1F00
3B40
7200
B020
79E0
2F80
ENDCHAR
STARTCHAR Ccircumflex
ENCODING 264
SWIDTH 686 0
DWIDTH 8 0
BBX 10 16 0 0
BITMAP
001400
003D00
00AA00
00D600
000000
01BD00
079B00
1E0740
2C0740
380100
380000
780000
380000
2D0010
1F96E0
02FE40
ENDCHAR
STARTCHAR ccircumflex
ENCODING 265
SWIDTH 368 0
DWIDTH 4 0
BBX 6 11 0 0
BITMAP
0740
0E80
1DC0
24C0
0000
1F00
3B40
7200
B020
79E0
2F80
ENDCHAR
STARTCHAR Cdotaccent
ENCODING 266
SWIDTH 686 0
DWIDTH 8 0
BBX 10 14 0 0
BITMAP
003C00
003800
000000
01BD00
079B00
1E0740
2C0740
380100
380000
780000
380000
2D0010
1F96E0
02FE40
ENDCHAR
STARTCHAR cdotaccent
ENCODING 267
SWIDTH 368 0
DWIDTH 4 0
BBX 6 8 0 0
BITMAP
0B40
0100
1F00
3B40
7200
B020
79E0
2F80
ENDCHAR
STARTCHAR Ccaron
ENCODING 268
SWIDTH 686 0
DWIDTH 8 0
BBX 10 15 0 0
BITMAP
009300
006A00
002800
000000
01BD00
079B00
1E0740
2C0740
380100
380000
780000
380000
2D0010
1F96E0
02FE40
ENDCHAR
STARTCHAR ccaron
ENCODING 269
SWIDTH 368 0
DWIDTH 4 0
BBX 6 11 0 0
BITMAP
1CA0
1DD0
0E80
0B00
0000
1F00
3B40
7200
B020
79E0
2F80
ENDCHAR
STARTCHAR Dcaron
ENCODING 270
SWIDTH 836 0
DWIDTH 10 0
BBX 10 15 0 0
BITMAP
01CA00
00ED00
007400
000000
0AF900
7E6B80
5102D0
0B00E0
0B00E0
0E00E0
1D01E0
1D02D0
2D0780
2D6E00
1FE400
ENDCHAR
STARTCHAR dcaron
ENCODING 271
SWIDTH 470 0
DWIDTH 6 0
BBX 8 12 0 0
BITMAP
0006
007B
00B5
00B0
00A0
00D0
0BD0
2EC0
75C0
B2C8
7BEC
3DE0
ENDCHAR
STARTCHAR Dcroat
ENCODING 272
SWIDTH 821 0
DWIDTH 10 0
BBX 10 11 0 0
BITMAP
02F900
079B80
0702D0
0B01E0
0E00E0
BFF1E0
2D51D0
2C02C0
2C0B80
3D6E00
2FE400
ENDCHAR
STARTCHAR dcroat
ENCODING 273
SWIDTH 470 0
DWIDTH 6 0
BBX 7 11 0 0
BITMAP
0070
00B0
0FF8
05E0
00D0
0BD0
2EC0
75C0
B2C8
7BEC
3DE0
ENDCHAR
STARTCHAR Emacron
ENCODING 274
SWIDTH 686 0
DWIDTH 8 0
BBX 10 13 0 0
BITMAP
00FE00
005400
02FD00
0B9B40
1E0380
1D0340
0E4100
0BE000
2E4000
740000
B40000
7E5AE0
1BFE40
ENDCHAR
STARTCHAR emacron
ENCODING 275
SWIDTH 393 0
DWIDTH 5 0
BBX 7 8 0 0
BITMAP
2FC0
0540
1F40
7B80
B340
BD24
79F0
2F80
ENDCHAR
STARTCHAR Ebreve
ENCODING 276
SWIDTH 686 0
DWIDTH 8 0
BBX 10 14 0 0
BITMAP
02D740
01FE00
001400
02FD00
0B9B40
1E0380
1D0340
0E4100
0BE000
2E4000
740000
B40000
7E5AE0
1BFE40
ENDCHAR
STARTCHAR ebreve
ENCODING 277
SWIDTH 393 0
DWIDTH 5 0
BBX 7 10 0 0
BITMAP
2050
38A0
1FD0
0100
1F40
7B80
B340
BD24
79F0
2F80
ENDCHAR
STARTCHAR Edotaccent
ENCODING 278
SWIDTH 686 0
DWIDTH 8 0
BBX 10 14 0 0
BITMAP
003800
003800
000000
02FD00
0B9B40
1E0380
1D0340
0E4100
0BE000
2E4000
740000
B40000
7E5AE0
1BFE40
ENDCHAR
STARTCHAR edotaccent
ENCODING 279
SWIDTH 393 0
DWIDTH 5 0
BBX 7 8 0 0
BITMAP
0B40
0100
1F40
7B80
B340
BD24
79F0
2F80
ENDCHAR
STARTCHAR Eogonek
ENCODING 280
SWIDTH 686 0
DWIDTH 8 0
BBX 10 15 0 -4
BITMAP
02FD00
0B9B40
1E0380
1D0340
0E4100
0BE000
2E4000
740000
B40000
7E5AE0
1BFE40
00A000
00D000
00BC00
001000
ENDCHAR
STARTCHAR eogonek
ENCODING 281
SWIDTH 393 0
DWIDTH 5 0
BBX 6 9 0 -3
BITMAP
1F40
3B80
7340
BE10
79B0
2F80
0D00
0D00
0BC0
ENDCHAR
STARTCHAR Ecaron
ENCODING 282
SWIDTH 686 0
DWIDTH 8 0
BBX 10 15 0 0
BITMAP
00D700
00AD00
003800
000000
02FD00
0B9B40
1E0380
1D0340
0E4100
0BE000
2E4000
740000
B40000
7E5AE0
1BFE40
ENDCHAR
STARTCHAR ecaron
ENCODING 283
SWIDTH 393 0
DWIDTH 5 0
BBX 7 11 0 0
BITMAP
1C60
0DD0
0E80
0B00
0000
1F40
7B80
B340
BD24
79F0
2F80
ENDCHAR
STARTCHAR Gcircumflex
ENCODING 284
SWIDTH 811 0
DWIDTH 10 0
BBX 11 22 0 -6
BITMAP
000400
003E00
00BB00
00D700
000000
01BE00
079B80
1E0380
2C0380
380000
380000
781FC0
3806C0
2D0288
1F9BF4
06FBD0
000B40
002F00
006700
00DA00
00ED00
00B400
ENDCHAR
STARTCHAR gcircumflex
ENCODING 285
SWIDTH 479 0
DWIDTH 6 0
BBX 7 17 0 -6
BITMAP
02C0
07D0
0DA0
1CA0
0000
0B40
2EC0
75C0
B288
7BF8
3FD0
0B40
2F00
6700
9A00
ED00
B400
ENDCHAR
STARTCHAR Gbreve
ENCODING 286
SWIDTH 811 0
DWIDTH 10 0
BBX 11 20 0 -6
BITMAP
01D680
00BF00
001400
01BE00
079B80
1E0380
2C0380
380000
380000
781FC0
3806C0
2D0288
1F9BF4
06FBD0
000B40
002F00
006700
00DA00
00ED00
00B400
ENDCHAR
STARTCHAR gbreve
ENCODING 287
SWIDTH 479 0
DWIDTH 6 0
BBX 7 16 0 -6
BITMAP
1420
2D74
0FE0
0100
0B40
2EC0
75C0
B288
7BF8
3FD0
0B40
2F00
6700
9A00
ED00
B400
ENDCHAR
STARTCHAR Gdotaccent
ENCODING 288
SWIDTH 811 0
DWIDTH 10 0
BBX 11 20 0 -6
BITMAP
002C00
002C00
000000
01BE00
079B80
1E0380
2C0380
380000
380000
781FC0
3806C0
2D0288
1F9BF4
06FBD0
000B40
002F00
006700
00DA00
00ED00
00B400
ENDCHAR
STARTCHAR gdotaccent
ENCODING 289
SWIDTH 479 0
DWIDTH 6 0
BBX 7 14 0 -6
BITMAP
0380
0100
0B40
2EC0
75C0
B288
7BF8
3FD0
0B40
2F00
6700
9A00
ED00
B400
ENDCHAR
STARTCHAR uni0122
ENCODING 290
SWIDTH 811 0
DWIDTH 10 0
BBX 11 17 0 -6
BITMAP
01BE00
079B80
1E0380
2C0380
380000
380000
781FC0
3806C0
2D0288
1F9BF4
06FBD0
000B40
062F00
0A6700
05DA00
00ED00
00B400
ENDCHAR
STARTCHAR uni0123
ENCODING 291
SWIDTH 479 0
DWIDTH 6 0
BBX 7 16 0 -6
BITMAP
0180
0280
0240
0000
0B40
2EC0
75C0
B288
7BF8
3FD0
0B40
2F00
6700
9A00
ED00
B400
ENDCHAR
STARTCHAR Hcircumflex
ENCODING 292
SWIDTH 873 0
DWIDTH 10 0
BBX 12 16 0 0
BITMAP
000500
002F00
007740
00A240
000000
2F407C
A780E9
8381C9
03829C
0787F8
2FFFD0
0B4740
0B0740
0E0382
0E02DA
0D01F8
ENDCHAR
STARTCHAR hcircumflex
ENCODING 293
SWIDTH 502 0
DWIDTH 6 0
BBX 8 17 0 0
BITMAP
0040
03E0
0BB0
0D70
0000
0780
0EC0
1CC0
2980
3A40
3A00
7DD0
77E0
79D0
79D5
79ED
70F4
ENDCHAR
STARTCHAR Hbar
ENCODING 294
SWIDTH 856 0
DWIDTH 10 0
BBX 11 11 0 0
BITMAP
0700D0
0B01E0
2FFFF4
1F56D0
0E02C0
7FFFF0
2E57D0
1D0380
2C0380
2C0740
280740
ENDCHAR
STARTCHAR hbar
ENCODING 295
SWIDTH 502 0
DWIDTH 6 0
BBX 8 11 0 0
BITMAP
0D00
1D00
7FD0
2D40
3800
35D0
37E0
7DD0
79D5
79ED
34F4
ENDCHAR
STARTCHAR Itilde
ENCODING 296
SWIDTH 495 0
DWIDTH 6 0
BBX 7 15 0 0
BITMAP
0104
0FA8
18B4
0000
2FF8
1790
0780
0740
0740
0B00
0B00
0E00
0E00
5E40
FFC0
ENDCHAR
STARTCHAR itilde
ENCODING 297
SWIDTH 246 0
DWIDTH 3 0
BBX 6 10 -1 0
BITMAP
1410
3EA0
62C0
0000
0900
0D00
1D00
1C50
1ED0
0F40
ENDCHAR
STARTCHAR Imacron
ENCODING 298
SWIDTH 495 0
DWIDTH 6 0
BBX 7 13 0 0
BITMAP
0BF0
0150
2FF8
1790
0780
0740
0740
0B00
0B00
0E00
0E00
5E40
FFC0
ENDCHAR
STARTCHAR imacron
ENCODING 299
SWIDTH 246 0
DWIDTH 3 0
BBX 5 8 0 0
BITMAP
BF00
5500
2400
3400
7400
7140
7B40
3D00
ENDCHAR
STARTCHAR Ibreve
ENCODING 300
SWIDTH 495 0
DWIDTH 6 0
BBX 7 14 0 0
BITMAP
0D68
0BF4
0140
2FF8
1790
0780
0740
0740
0B00
0B00
0E00
0E00
5E40
FFC0
ENDCHAR
STARTCHAR ibreve
ENCODING 301
SWIDTH 246 0
DWIDTH 3 0
BBX 6 10 -1 0
BITMAP
2050
75E0
2F80
0500
0900
0D00
1D00
1C50
1ED0
0F40
ENDCHAR
STARTCHAR Iogonek
ENCODING 302
SWIDTH 495 0
DWIDTH 6 0
BBX 7 15 0 -4
BITMAP
2FF8
1790
0780
0740
0740
0B00
0B00
0E00
0E00
5E40
FFC0
2800
2800
1F40
0500
ENDCHAR
STARTCHAR iogonek
ENCODING 303
SWIDTH 246 0
DWIDTH 3 0
BBX 5 11 0 -3
BITMAP
2C00
0000
2400
3400
7400
7140
7B40
3D00
7000
A000
7D00
ENDCHAR
STARTCHAR Idotaccent
ENCODING 304
SWIDTH 495 0
DWIDTH 6 0
BBX 7 14 0 0
BITMAP
02D0
02C0
0000
2FF8
1790
0780
0740
0740
0B00
0B00
0E00
0E00
5E40
FFC0
ENDCHAR
STARTCHAR dotlessi
ENCODING 305
SWIDTH 246 0
DWIDTH 3 0
BBX 5 6 0 0
BITMAP
2400
3400
7400
7140
7B40
3D00
ENDCHAR
STARTCHAR Jcircumflex
ENCODING 308
SWIDTH 743 0
DWIDTH 9 0
BBX 8 18 1 -2
BITMAP
0050
02E0
0774
0A24
0000
1BFE
B96E
D01D
D01D
901D
007C
07F8
1E38
3874
74B0
79D0
2F80
0400
ENDCHAR
STARTCHAR jcircumflex
ENCODING 309
SWIDTH 254 0
DWIDTH 3 0
BBX 8 17 -3 -6
BITMAP
0074
00E8
0298
035C
0000
0090
00D0
01D0
01C9
01EC
02E0
0780
1F40
3740
6700
AE00
7800
ENDCHAR
STARTCHAR uni0136
ENCODING 310
SWIDTH 937 0
DWIDTH 11 0
BBX 13 15 0 -4
BITMAP
0BF80D00
2D781D00
34743C00
3474B400
10B6D000
01FE0000
00FB4000
00E3C000
91D2D180
B6C0FB40
2F407D00
00000000
00140000
00280000
00240000
ENDCHAR
STARTCHAR uni0137
ENCODING 311
SWIDTH 525 0
DWIDTH 6 0
BBX 8 16 0 -4
BITMAP
0780
0EC0
1CC0
2980
3A40
3A00
7DE0
77B0
79B0
7AD2
76DE
35F8
0000
0900
0D00
0C00
ENDCHAR
STARTCHAR kgreenlandic
ENCODING 312
SWIDTH 465 0
DWIDTH 6 0
BBX 7 6 0 0
BITMAP
26E0
3BB0
7E60
7E08
7F68
72E0
ENDCHAR
STARTCHAR Lacute
ENCODING 313
SWIDTH 673 0
DWIDTH 8 0
BBX 11 15 -1 0
BITMAP
000070
0001E0
000740
000000
002F80
00F6E0
02D0A0
03C0E0
038000
038000
074000
074000
2F8018
7FF9B4
7D6FD0
ENDCHAR
STARTCHAR lacute
ENCODING 314
SWIDTH 326 0
DWIDTH 4 0
BBX 7 16 0 0
BITMAP
001C
00B8
0190
0000
0780
0EC0
1CC0
28C0
3980
3640
7700
7900
7C00
7450
3AC0
1F40
ENDCHAR
STARTCHAR uni013B
ENCODING 315
SWIDTH 673 0
DWIDTH 8 0
BBX 11 15 -1 -4
BITMAP
002F80
00F6E0
02D0A0
03C0E0
038000
038000
074000
074000
2F8018
7FF9B4
7D6FD0
000000
009000
00D000
00C000
ENDCHAR
STARTCHAR uni013C
ENCODING 316
SWIDTH 326 0
DWIDTH 4 0
BBX 6 16 0 -4
BITMAP
0780
0EC0
1CC0
28C0
3980
3640
7700
7900
7C00
7450
3AC0
1F40
0000
1800
2800
2400
ENDCHAR
STARTCHAR Lcaron
ENCODING 317
SWIDTH 673 0
DWIDTH 8 0
BBX 12 11 -1 0
BITMAP
002F85
00F6EA
02D0A9
03C0E0
038000
038000
074000
074000
2F8018
7FF9B4
7D6FD0
ENDCHAR
STARTCHAR lcaron
ENCODING 318
SWIDTH 237 0
DWIDTH 3 0
BBX 5 12 0 0
BITMAP
0080
0EC0
1D80
2C00
2C00
3800
3400
7400
7000
7140
7B00
3D00
ENDCHAR
STARTCHAR Ldot
ENCODING 319
SWIDTH 673 0
DWIDTH 8 0
BBX 11 11 -1 0
BITMAP
002F80
00F6E0
02D0A0
03C0E0
038000
038000
075E00
074400
2F8018
7FF9B4
7D6FD0
ENDCHAR
STARTCHAR ldot
ENCODING 320
SWIDTH 363 0
DWIDTH 4 0
BBX 6 12 0 0
BITMAP
0A00
0E00
1D00
1C00
2C00
3A80
3B80
7400
7000
7420
79E0
2F40
ENDCHAR
STARTCHAR Lslash
ENCODING 321
SWIDTH 673 0
DWIDTH 8 0
BBX 11 13 -1 0
BITMAP
006FF0
00A550
002F80
00F6E0
02D0A0
0380E0
038040
038000
074000
074000
2F8018
7FF9B4
7D6FD0
ENDCHAR
STARTCHAR lslash
ENCODING 322
SWIDTH 326 0
DWIDTH 4 0
BBX 7 13 0 0
BITMAP
06FC
1E54
0780
0EC0
1CC0
29C0
3680
7740
7A00
7C00
7450
3AC0
1F40
ENDCHAR
STARTCHAR Nacute
ENCODING 323
SWIDTH 884 0
DWIDTH 11 0
BBX 12 15 0 0
BITMAP
0000A0
0002D0
000A00
000000
1F0BD0
7B69E0
C3A0B0
07D0E0
0780E0
0741D0
0B42D0
0B02C0
0F02C2
0E02EA
0D00B8
ENDCHAR
STARTCHAR nacute
ENCODING 324
SWIDTH 496 0
DWIDTH 6 0
BBX 8 11 0 0
BITMAP
0060
00E0
01C0
0240
0000
25D0
3BD0
7DD0
79C5
75ED
70F4
ENDCHAR
STARTCHAR uni0145
ENCODING 325
SWIDTH 884 0
DWIDTH 11 0
BBX 12 15 0 -4
BITMAP
1F0BD0
7B69E0
C3A0B0
07D0E0
0780E0
0741D0
0B42D0
0B02C0
0F02C2
0E02EA
0D00B8
000000
006000
00A000
009000
ENDCHAR
STARTCHAR uni0146
ENCODING 326
SWIDTH 496 0
DWIDTH 6 0
BBX 8 10 0 -4
BITMAP
25D0
3BD0
7DD0
79C5
75ED
70F4
0000
0900
0D00
0C00
ENDCHAR
STARTCHAR Ncaron
ENCODING 327
SWIDTH 884 0
DWIDTH 11 0
BBX 12 15 0 0
BITMAP
0035C0
002B40
000E00
000000
1F0BD0
7B69E0
C3A0B0
07D0E0
0780E0
0741D0
0B42D0
0B02C0
0F02C2
0E02EA
0D00B8
ENDCHAR
STARTCHAR ncaron
ENCODING 328
SWIDTH 496 0
DWIDTH 6 0
BBX 8 11 0 0
BITMAP
0934
0A70
07D0
0380
0000
25D0
3BD0
7DD0
79C5
75ED
70F4
ENDCHAR
STARTCHAR napostrophe
ENCODING 329
SWIDTH 496 0
DWIDTH 6 0
BBX 8 10 0 0
BITMAP
9000
D000
C000
0000
25D0
3BD0
7DD0
79C5
75ED
70F4
ENDCHAR
STARTCHAR Eng
ENCODING 330
SWIDTH 884 0
DWIDTH 11 0
BBX 12 16 0 -5
BITMAP
1F0BD0
7B69E0
C3A0F0
07D0E0
0780E0
0741D0
0B42D0
0B02C0
0F0382
0E03DB
0D07F8
000B00
000E00
0E6C00
07F400
004000
ENDCHAR
STARTCHAR eng
ENCODING 331
SWIDTH 495 0
DWIDTH 6 0
BBX 8 10 0 -4
BITMAP
25D0
3BD0
7DD0
79C5
75ED
72F4
0340
0700
AA00
7C00
ENDCHAR
STARTCHAR Omacron
ENCODING 332
SWIDTH 816 0
DWIDTH 10 0
BBX 10 13 0 0
BITMAP
00FE00
005400
01BE00
079B80
1E02D0
2C01D0
3801E0
3801D0
7801D0
3802C0
3C0780
1E6E00
06F400
ENDCHAR
STARTCHAR omacron
ENCODING 333
SWIDTH 451 0
DWIDTH 5 0
BBX 7 8 0 0
BITMAP
2FC0
0540
1F40
7BD4
B2FC
B1D0
7A80
2E00
ENDCHAR
STARTCHAR Obreve
ENCODING 334
SWIDTH 816 0
DWIDTH 10 0
BBX 10 14 0 0
BITMAP
01D740
00FE00
001400
01BE00
079B80
1E02D0
2C01D0
3801E0
3801D0
7801D0
3802C0
3C0780
1E6E00
06F400
ENDCHAR
STARTCHAR obreve
ENCODING 335
SWIDTH 451 0
DWIDTH 5 0
BBX 7 10 0 0
BITMAP
2050
39E0
1FC0
0100
1F40
7BD4
B2FC
B1D0
7A80
2E00
ENDCHAR
STARTCHAR Ohungarumlaut
ENCODING 336
SWIDTH 816 0
DWIDTH 10 0
BBX 10 15 0 0
BITMAP
003340
007700
009600
000000
01BE00
079B80
1E02D0
2C01D0
3801E0
3801D0
7801D0
3802C0
3C0780
1E6E00
06F400
ENDCHAR
STARTCHAR ohungarumlaut
ENCODING 337
SWIDTH 451 0
DWIDTH 5 0
BBX 7 11 0 0
BITMAP
0670
0AB0
0DD0
1880
0000
1F40
7BD4
B2FC
B1D0
7A80
2E00
ENDCHAR
STARTCHAR OE
ENCODING 338
SWIDTH 1124 0
DWIDTH 13 0
BBX 15 11 0 0
BITMAP
01BE2FF0
079BF950
1E02F400
2C01F000
3801F000
3801FFD0
7801E540
3802D000
3C07E004
1E6EB9BC
06F42FE0
ENDCHAR
STARTCHAR oe
ENCODING 339
SWIDTH 668 0
DWIDTH 8 0
BBX 10 6 0 0
BITMAP
1F6D00
7AEB00
B1DA00
B1F850
7BE6D0
2E6E40
ENDCHAR
STARTCHAR Racute
ENCODING 340
SWIDTH 880 0
DWIDTH 11 0
BBX 12 15 0 0
BITMAP
0001D0
000780
000D00
000000
01BE40
0797D0
1D11E0
28B0E0
34E1D0
70E780
73FE00
71EF00
36C781
2BC3EB
0B41B8
ENDCHAR
STARTCHAR racute
ENCODING 341
SWIDTH 455 0
DWIDTH 5 0
BBX 7 11 0 0
BITMAP
00A0
00D0
0280
0200
0000
25D0
37D0
79D8
78F8
7410
7000
ENDCHAR
STARTCHAR uni0156
ENCODING 342
SWIDTH 880 0
DWIDTH 11 0
BBX 12 15 0 -4
BITMAP
01BE40
0797D0
1D11E0
28B0E0
34E1D0
70E780
73FE00
71EF00
36C781
2BC3EB
0B41B8
000000
002400
003400
002400
ENDCHAR
STARTCHAR uni0157
ENCODING 343
SWIDTH 455 0
DWIDTH 5 0
BBX 7 10 0 -4
BITMAP
25D0
37D0
79D8
78F8
7410
7000
0000
6000
6000
5000
ENDCHAR
STARTCHAR Rcaron
ENCODING 344
SWIDTH 880 0
DWIDTH 11 0
BBX 12 15 0 0
BITMAP
006240
003B00
001D00
000000
01BE40
0797D0
1D11E0
28B0E0
34E1D0
70E780
73FE00
71EF00
36C781
2BC3EB
0B41B8
ENDCHAR
STARTCHAR rcaron
ENCODING 345
SWIDTH 455 0
DWIDTH 5 0
BBX 7 11 0 0
BITMAP
0D70
09A0
0AC0
0740
0000
25D0
37D0
79D8
78F8
7410
7000
ENDCHAR
STARTCHAR Sacute
ENCODING 346
SWIDTH 693 0
DWIDTH 8 0
BBX 9 15 0 0
BITMAP
000740
001E00
003400
000000
06F900
1E5F00
2C0740
2C0700
1F4000
07F400
007D00
700E00
B00E00
796D00
1BE400
ENDCHAR
STARTCHAR sacute
ENCODING 347
SWIDTH 427 0
DWIDTH 5 0
BBX 7 11 0 0
BITMAP
00D0
01C0
0340
0200
0000
0A00
1D00
2F00
7798
DBF4
1FD0
ENDCHAR
STARTCHAR Scircumflex
ENCODING 348
SWIDTH 693 0
DWIDTH 8 0
BBX 9 16 0 0
BITMAP
001000
00B800
01DC00
024C00
000000
06F900
1E5F00
2C0740
2C0700
1F4000
07F400
007D00
700E00
B00E00
796D00
1BE400
ENDCHAR
STARTCHAR scircumflex
ENCODING 349
SWIDTH 427 0
DWIDTH 5 0
BBX 7 11 0 0
BITMAP
0740
0A80
1DC0
24C0
0000
0A00
1D00
2F00
7798
DBF4
1FD0
ENDCHAR
STARTCHAR Scedilla
ENCODING 350
SWIDTH 693 0
DWIDTH 8 0
BBX 9 15 0 -4
BITMAP
06F900
1E5F00
2C0740
2C0700
1F4000
0BF400
01BD00
601E00
B00E00
741D00
1FE400
01D000
01D000
0F8000
050000
ENDCHAR
STARTCHAR scedilla
ENCODING 351
SWIDTH 427 0
DWIDTH 5 0
BBX 7 9 0 -3
BITMAP
0A00
1D00
2E00
7B44
D3A4
5FE0
0700
0700
7E00
ENDCHAR
STARTCHAR Scaron
ENCODING 352
SWIDTH 693 0
DWIDTH 8 0
BBX 9 15 0 0
BITMAP
018900
00EC00
00B400
000000
06F900
1E5F00
2C0740
2C0700
1F4000
07F400
007D00
700E00
B00E00
796D00
1BE400
ENDCHAR
STARTCHAR scaron
ENCODING 353
SWIDTH 427 0
DWIDTH 5 0
BBX 7 11 0 0
BITMAP
1CA0
0DD0
0E80
0B00
0000
0A00
1D00
2F00
7798
DBF4
1FD0
ENDCHAR
STARTCHAR uni0162
ENCODING 354
SWIDTH 697 0
DWIDTH 8 0
BBX 11 15 0 -4
BITMAP
0AFFF8
397954
B07400
707400
10B000
00B000
00E000
00E000
01D000
01D000
03D000
01A000
00A000
0BD000
010000
ENDCHAR
STARTCHAR uni0163
ENCODING 355
SWIDTH 393 0
DWIDTH 5 0
BBX 6 15 0 -4
BITMAP
03C0
0AD0
0DC0
1D80
2F40
FFD0
7940
3800
3810
2DB0
1F80
1B00
0740
3E00
1400
ENDCHAR
STARTCHAR Tcaron
ENCODING 356
SWIDTH 697 0
DWIDTH 8 0
BBX 11 15 0 0
BITMAP
006240
007B00
002C00
000000
06FFF8
397954
707400
707400
20B000
00B000
00E000
00E000
01E000
01D000
01D000
ENDCHAR
STARTCHAR tcaron
ENCODING 357
SWIDTH 343 0
DWIDTH 4 0
BBX 6 12 0 0
BITMAP
0050
00D0
0D80
1D00
1C00
2C00
BF80
3900
3400
3450
39D0
1F40
ENDCHAR
STARTCHAR Tbar
ENCODING 358
SWIDTH 697 0
DWIDTH 8 0
BBX 11 11 0 0
BITMAP
06FFF8
3A7954
707400
B07400
20B000
0BFE00
05F500
00E000
01E000
01D000
01D000
ENDCHAR
STARTCHAR tbar
ENCODING 359
SWIDTH 343 0
DWIDTH 4 0
BBX 6 10 0 0
BITMAP
0D00
1D00
1C00
2C00
BF80
7900
FF40
7450
39D0
1F40
ENDCHAR
STARTCHAR Utilde
ENCODING 360
SWIDTH 890 0
DWIDTH 11 0
BBX 12 15 0 0
BITMAP
001040
00BDC0
00D780
000000
1F4070
7780B0
C380F0
0380E0
0741E0
0B42D0
0B03D0
0E07C0
0E0EC2
0FB5EB
07D0B8
ENDCHAR
STARTCHAR utilde
ENCODING 361
SWIDTH 462 0
DWIDTH 6 0
BBX 7 10 0 0
BITMAP
0410
2F70
25E0
0000
28D0
35C0
72C0
7788
7FA8
39E0
ENDCHAR
STARTCHAR Umacron
ENCODING 362
SWIDTH 890 0
DWIDTH 11 0
BBX 12 13 0 0
BITMAP
007F40
001500
1F4070
7780B0
C380F0
0380E0
0741E0
0B42D0
0B03D0
0E07C0
0E0EC2
0FB5EB
07D0B8
ENDCHAR
STARTCHAR umacron
ENCODING 363
SWIDTH 462 0
DWIDTH 6 0
BBX 7 8 0 0
BITMAP
1FD0
0540
28D0
35C0
72C0
7788
7FA8
39E0
ENDCHAR
STARTCHAR Ubreve
ENCODING 364
SWIDTH 890 0
DWIDTH 11 0
BBX 12 14 0 0
BITMAP
00A1C0
007F80
000400
1F4070
7780B0
C380F0
0380E0
0741E0
0B42D0
0B03D0
0E07C0
0E0EC2
0FB5EB
07D0B8
ENDCHAR
STARTCHAR ubreve
ENCODING 365
SWIDTH 462 0
DWIDTH 6 0
BBX 7 10 0 0
BITMAP
1420
2DB0
1FD0
0100
28D0
35C0
72C0
7788
7FA8
39E0
ENDCHAR
STARTCHAR Uring
ENCODING 366
SWIDTH 890 0
DWIDTH 11 0
BBX 12 15 0 0
BITMAP
001F00
003B40
002F00
000400
1F4070
7780B0
C380F0
0380E0
0741E0
0B42D0
0B03D0
0E07C0
0E0EC2
0FB5EB
07D0B8
ENDCHAR
STARTCHAR uring
ENCODING 367
SWIDTH 462 0
DWIDTH 6 0
BBX 7 10 0 0
BITMAP
07C0
0AD0
0BC0
0100
28D0
35C0
72C0
7788
7FA8
39E0
ENDCHAR
STARTCHAR Uhungarumlaut
ENCODING 368
SWIDTH 890 0
DWIDTH 11 0
BBX 12 15 0 0
BITMAP
0019C0
002A80
003240
000000
1F4070
7780B0
C380F0
0380E0
0741E0
0B42D0
0B03D0
0E07C0
0E0EC2
0FB5EB
07D0B8
ENDCHAR
STARTCHAR uhungarumlaut
ENCODING 369
SWIDTH 462 0
DWIDTH 6 0
BBX 7 11 0 0
BITMAP
0374
0774
0AA0
0890
0000
28D0
35C0
72C0
7788
7FA8
39E0
ENDCHAR
STARTCHAR Uogonek
ENCODING 370
SWIDTH 890 0
DWIDTH 11 0
BBX 12 14 0 -3
BITMAP
1F4060
7780B0
D380F0
0380E0
0741E0
0B42D0
0B03D0
0E07D0
0E0AC1
0F66EB
07D0B9
000070
0000A0
00007D
ENDCHAR
STARTCHAR uogonek
ENCODING 371
SWIDTH 462 0
DWIDTH 6 0
BBX 7 9 0 -3
BITMAP
28D0
35C0
72C0
7788
7FA8
39E0
0280
0340
02F0
ENDCHAR
STARTCHAR Wcircumflex
ENCODING 372
SWIDTH 1217 0
DWIDTH 15 0
BBX 16 16 1 0
BITMAP
00014000
0007C000
000DD000
00189000
00000000
340702D0
740B0AB0
740F0DB0
740F0DA0
B41E07E0
B02E02FD
B43E0394
747B0740
78D70E00
3FC3FC00
1E02E000
ENDCHAR
STARTCHAR wcircumflex
ENCODING 373
SWIDTH 700 0
DWIDTH 8 0
BBX 10 11 0 0
BITMAP
00A000
01B000
037400
062400
000000
71C700
72CB50
77CFF0
7AED40
7DF800
38A000
ENDCHAR
STARTCHAR Ycircumflex
ENCODING 374
SWIDTH 851 0
DWIDTH 10 0
BBX 12 21 0 -5
BITMAP
000500
001F00
003B40
007280
000000
1F4070
7780B0
C380F0
0380E0
0741E0
0B42D0
0B07D0
0B5EC0
07F6ED
005BE4
00BF80
01E380
038740
039A00
02FC00
005000
ENDCHAR
STARTCHAR ycircumflex
ENCODING 375
SWIDTH 479 0
DWIDTH 6 0
BBX 7 17 0 -6
BITMAP
0280
06C0
0DD0
1890
0000
28D0
35C0
72C0
7788
7FF8
3AD0
0B40
2F00
6700
DA00
ED00
B400
ENDCHAR
STARTCHAR Ydieresis
ENCODING 376
SWIDTH 851 0
DWIDTH 10 0
BBX 12 19 0 -5
BITMAP
007680
007680
000000
1F4070
7780B0
C380F0
0380E0
0741E0
0B42D0
0B07D0
0B5EC0
07F6ED
005BE4
00BF80
01E380
038740
039A00
02FC00
005000
ENDCHAR
STARTCHAR Zacute
ENCODING 377
SWIDTH 721 0
DWIDTH 9 0
BBX 10 15 0 0
BITMAP
000240
001F40
002800
000000
0BFE80
3E5BD0
740B40
341E00
102C00
007400
01F000
03D000
6F8020
BFF9A0
796F80
ENDCHAR
STARTCHAR zacute
ENCODING 378
SWIDTH 445 0
DWIDTH 5 0
BBX 7 11 0 0
BITMAP
0090
01D0
0280
0200
0000
7FE0
1BD0
1D00
3808
39B8
1F90
ENDCHAR
STARTCHAR Zdotaccent
ENCODING 379
SWIDTH 721 0
DWIDTH 9 0
BBX 10 14 0 0
BITMAP
007800
007400
000000
0BFE80
3E5BD0
740B40
341E00
102C00
007400
01F000
03D000
6F8020
BFF9A0
796F80
ENDCHAR
STARTCHAR zdotaccent
ENCODING 380
SWIDTH 445 0
DWIDTH 5 0
BBX 7 8 0 0
BITMAP
0780
0100
7FE0
1BD0
1D00
3808
39B8
1F90
ENDCHAR
STARTCHAR Zcaron
ENCODING 381
SWIDTH 721 0
DWIDTH 9 0
BBX 10 15 0 0
BITMAP
00C600
00AD00
007400
000000
0BFE80
3E5BD0
740B40
341E00
102C00
007400
01F000
03D000
6F8020
BFF9A0
796F80
ENDCHAR
STARTCHAR zcaron
ENCODING 382
SWIDTH 445 0
DWIDTH 5 0
BBX 7 11 0 0
BITMAP
0D70
0DA0
0AC0
0740
0000
7FE0
1BD0
1D00
3808
39B8
1F90
ENDCHAR
STARTCHAR uni018F
ENCODING 399
SWIDTH 792 0
DWIDTH 10 0
BBX 10 11 0 0
BITMAP
06F900
1E5F40
1403C0
0002D0
0002D0
3FFFD0
7957C0
780380
3C0B40
1E6E00
07E400
ENDCHAR
STARTCHAR florin
ENCODING 402
SWIDTH 478 0
DWIDTH 6 0
BBX 8 14 -1 -4
BITMAP
00BD
01E4
01C0
02C0
1FFC
07D0
0380
0380
0740
0740
0700
0B00
BD00
1000
ENDCHAR
STARTCHAR Ohorn
ENCODING 416
SWIDTH 816 0
DWIDTH 10 0
BBX 11 13 0 0
BITMAP
000034
000074
01BFE0
079BC0
1E02D0
2C01D0
3801E0
3801D0
7801D0
3802C0
3C0780
1E6E00
06F400
ENDCHAR
STARTCHAR ohorn
ENCODING 417
SWIDTH 451 0
DWIDTH 5 0
BBX 7 8 0 0
BITMAP
0010
0070
1FD0
7BD4
B2FC
B1D0
7A80
2E00
ENDCHAR
STARTCHAR Uhorn
ENCODING 431
SWIDTH 890 0
DWIDTH 11 0
BBX 12 13 0 0
BITMAP
000006
00000A
1F407D
7780B4
C380F0
0380E0
0741E0
0B42D0
0B03D0
0E07C0
0E0EC2
0FB5EB
07D0B8
ENDCHAR
STARTCHAR uhorn
ENCODING 432
SWIDTH 512 0
DWIDTH 6 0
BBX 8 8 0 0
BITMAP
0004
0028
28F4
35C0
72C0
7786
7FDD
39F4
ENDCHAR
STARTCHAR uni01C4
ENCODING 452
SWIDTH 1531 0
DWIDTH 18 0
BBX 19 15 1 0
BITMAP
0000006240
0000003B00
0000002D00
0000000000
1BE406FF90
39BD1E56E0
040F2C03C0
38075C0B40
3807440E00
7407402D00
B007407800
B00F01F000
F02D1BE008
F6F83FFE78
BF902E5BE0
ENDCHAR
STARTCHAR uni01C5
ENCODING 453
SWIDTH 1191 0
DWIDTH 14 0
BBX 14 11 1 0
BITMAP
1BE40930
39BD0AA0
040F06C0
38074340
38074000
74077FD0
B0075BD0
B00F1E00
F02D3800
F6F87540
BF907FD0
ENDCHAR
STARTCHAR uni01C6
ENCODING 454
SWIDTH 895 0
DWIDTH 11 0
BBX 13 11 0 0
BITMAP
00728900
00B19C00
00B1F400
00A0E000
00D00000
0BDBFC00
2EC6F800
75C38000
B28B0240
7BEFAF00
3DE6F800
ENDCHAR
STARTCHAR uni01C7
ENCODING 455
SWIDTH 1276 0
DWIDTH 15 0
BBX 17 13 -1 -2
BITMAP
006F41FE40
00F6CB9F40
02D1DD0B00
03C1DE0E00
0380050E00
0380002D00
074001ED00
0740076C00
2F801D3800
7FF9B87400
7D6FFDA000
00001FC000
0000010000
ENDCHAR
STARTCHAR uni01C8
ENCODING 456
SWIDTH 927 0
DWIDTH 11 0
BBX 14 17 -1 -6
BITMAP
002F8000
00F6E000
02D0A000
03C0EF00
03804400
03800A00
07400D00
07400D00
2F801D90
7FF9BE80
7D6FED00
00007800
0001F800
00037400
00067000
000AE000
00078000
ENDCHAR
STARTCHAR uni01C9
ENCODING 457
SWIDTH 610 0
DWIDTH 7 0
BBX 9 18 0 -6
BITMAP
078000
0EC000
1CC000
28C000
39AC00
364400
772800
792800
7C3800
747540
3AFB40
1FB800
00F000
03E000
09A000
1CD000
1E8000
0F0000
ENDCHAR
STARTCHAR uni01CA
ENCODING 458
SWIDTH 1497 0
DWIDTH 18 0
BBX 18 13 0 -2
BITMAP
1F4BD0AFE0
BB69E2E5E0
83A0B741D0
07D0E741D0
0780E241D0
0741D007C0
0B42D02FC0
0B02C0E380
0F02C2C740
0E02EB4B00
0D00BB9D00
000002F800
0000004000
ENDCHAR
STARTCHAR uni01CB
ENCODING 459
SWIDTH 1138 0
DWIDTH 14 0
BBX 15 17 0 -6
BITMAP
1F0BD000
7B59E000
D3A0B000
4790E1E0
0780E040
0741D1C0
0B42D1C0
0B02C2C0
0F02C288
0E02EBB8
0D00BBD0
00000B40
00002F00
00006700
0000DA00
0000EC00
0000B400
ENDCHAR
STARTCHAR uni01CC
ENCODING 460
SWIDTH 750 0
DWIDTH 9 0
BBX 11 14 0 -6
BITMAP
0003C0
000100
25D340
3BD340
7DD740
79C724
75EFE0
70FB80
001E00
007D00
00DD00
029C00
02B400
01E000
ENDCHAR
STARTCHAR Gcaron
ENCODING 486
SWIDTH 811 0
DWIDTH 10 0
BBX 11 21 0 -6
BITMAP
00A240
007A00
002C00
000000
01BE00
079B80
1E0380
2C0380
380000
380000
781FC0
3806C0
2D0288
1F9BF4
06FBD0
000B40
002F00
006700
00DA00
00ED00
00B400
ENDCHAR
STARTCHAR gcaron
ENCODING 487
SWIDTH 479 0
DWIDTH 6 0
BBX 7 17 0 -6
BITMAP
0930
0AA0
07D0
0380
0000
0B40
2EC0
75C0
B288
7BF8
3FD0
0B40
2F00
6700
9A00
ED00
B400
ENDCHAR
STARTCHAR uni01EA
ENCODING 490
SWIDTH 816 0
DWIDTH 10 0
BBX 10 15 0 -4
BITMAP
01BE00
079B80
1E02D0
2C01D0
3801E0
3801D0
7801D0
3802C0
3C0780
1FAE00
07F400
00D000
01D000
00BC00
001000
ENDCHAR
STARTCHAR uni01EB
ENCODING 491
SWIDTH 451 0
DWIDTH 5 0
BBX 7 9 0 -3
BITMAP
1F40
7BD4
B2FC
B1D0
7B80
1E00
1C00
1C00
1F80
ENDCHAR
STARTCHAR Aringacute
ENCODING 506
SWIDTH 786 0
DWIDTH 9 0
BBX 12 17 0 0
BITMAP
000005
00001E
000BA4
000EC0
000F80
000100
006FE0
02EAA0
0B4240
1D0380
2C0740
380740
740B00
740F00
782F08
2EBBA8
0B92E0
ENDCHAR
STARTCHAR aringacute
ENCODING 507
SWIDTH 470 0
DWIDTH 6 0
BBX 8 12 0 0
BITMAP
0001
03D9
0A90
0A90
07C0
0100
0B40
2EC0
75C0
B2C8
7BEC
3DE0
ENDCHAR
STARTCHAR AEacute
ENCODING 508
SWIDTH 1015 0
DWIDTH 12 0
BBX 14 15 0 0
BITMAP
00000900
00003D00
0000A000
00000000
006CBF80
02E9E540
0B42C000
1D038000
3C078000
3807FF00
780B9500
740F0000
782F4010
2EB7E6E0
0BD1BE40
ENDCHAR
STARTCHAR aeacute
ENCODING 509
SWIDTH 653 0
DWIDTH 8 0
BBX 10 11 0 0
BITMAP
000D00
001D00
002800
002000
000000
0BAD00
2EEA00
75CA00
B2F890
7BE6C0
2D7E00
ENDCHAR
STARTCHAR Oslashacute
ENCODING 510
SWIDTH 816 0
DWIDTH 10 0
BBX 10 17 0 -2
BITMAP
000A00
002D00
00A000
000D00
01BE00
07AF80
1E2AD0
2C35D0
3871E0
3861D0
78A1D0
38D2C0
3DC780
1FEE00
07F400
034000
010000
ENDCHAR
STARTCHAR oslashacute
ENCODING 511
SWIDTH 459 0
DWIDTH 6 0
BBX 7 13 0 -2
BITMAP
0300
0B00
0D00
1900
0300
1F40
7BC0
B6EC
B9E4
7EC0
2E40
0800
0400
ENDCHAR
STARTCHAR uni0200
ENCODING 512
SWIDTH 786 0
DWIDTH 9 0
BBX 11 15 0 0
BITMAP
003340
003780
001980
000000
006FE0
02EAA0
0B4240
1D0380
2C0740
380740
740B00
740F00
782F08
2EBBA8
0B92E0
ENDCHAR
STARTCHAR uni0201
ENCODING 513
SWIDTH 470 0
DWIDTH 6 0
BBX 7 11 0 0
BITMAP
3640
3A80
19C0
0890
0000
0B40
2EC0
75C0
B2C8
7BEC
3DE0
ENDCHAR
STARTCHAR uni0202
ENCODING 514
SWIDTH 786 0
DWIDTH 9 0
BBX 11 14 0 0
BITMAP
001FD0
0039A0
001000
006FE0
02EAA0
0B4240
1D0380
2C0740
380740
740B00
740F00
782F08
2EBBA8
0B92E0
ENDCHAR
STARTCHAR uni0203
ENCODING 515
SWIDTH 470 0
DWIDTH 6 0
BBX 7 10 0 0
BITMAP
0BE0
1DB4
1420
0000
0B40
2EC0
75C0
B2C8
7BEC
3DE0
ENDCHAR
STARTCHAR uni0204
ENCODING 516
SWIDTH 686 0
DWIDTH 8 0
BBX 10 15 0 0
BITMAP
029800
02DC00
00C900
000000
02FD00
0B9B40
1E0380
1D0340
0E4100
0BE000
2E4000
740000
B40000
7E5AE0
1BFE40
ENDCHAR
STARTCHAR uni0205
ENCODING 517
SWIDTH 393 0
DWIDTH 5 0
BBX 7 11 0 0
BITMAP
6600
7740
3640
1580
0000
1F40
7B80
B340
BD24
79F0
2F80
ENDCHAR
STARTCHAR uni0206
ENCODING 518
SWIDTH 686 0
DWIDTH 8 0
BBX 10 14 0 0
BITMAP
00BE00
02D740
000100
02FD00
0B9B40
1E0380
1D0340
0E4100
0BE000
2E4000
740000
B40000
7E5AE0
1BFE40
ENDCHAR
STARTCHAR uni0207
ENCODING 519
SWIDTH 393 0
DWIDTH 5 0
BBX 7 10 0 0
BITMAP
1FD0
39E0
2060
0000
1F40
7B80
B340
BD24
79F0
2F80
ENDCHAR
STARTCHAR uni0208
ENCODING 520
SWIDTH 495 0
DWIDTH 6 0
BBX 7 15 0 0
BITMAP
1CD0
0DD0
0560
0000
2FF8
1790
0780
0740
0740
0B00
0B00
0E00
0E00
5E40
FFC0
ENDCHAR
STARTCHAR uni0209
ENCODING 521
SWIDTH 246 0
DWIDTH 3 0
BBX 6 11 -1 0
BITMAP
9A00
B700
3740
2540
0000
0900
0D00
1D00
1C50
1ED0
0F40
ENDCHAR
STARTCHAR uni020A
ENCODING 522
SWIDTH 495 0
DWIDTH 6 0
BBX 7 14 0 0
BITMAP
07F4
0E68
0400
2FF8
1790
0780
0740
0740
0B00
0B00
0E00
0E00
5E40
FFC0
ENDCHAR
STARTCHAR uni020B
ENCODING 523
SWIDTH 246 0
DWIDTH 3 0
BBX 5 10 0 0
BITMAP
7E00
E780
8140
0000
2400
3400
7400
7140
7B40
3D00
ENDCHAR
STARTCHAR uni020C
ENCODING 524
SWIDTH 816 0
DWIDTH 10 0
BBX 10 15 0 0
BITMAP
019C00
01DD00
009900
000000
01BE00
079B80
1E02D0
2C01D0
3801E0
3801D0
7801D0
3802C0
3C0780
1E6E00
06F400
ENDCHAR
STARTCHAR uni020D
ENCODING 525
SWIDTH 451 0
DWIDTH 5 0
BBX 7 11 0 0
BITMAP
A600
7700
3640
1580
0000
1F40
7BD4
B2FC
B1D0
7A80
2E00
ENDCHAR
STARTCHAR uni020E
ENCODING 526
SWIDTH 816 0
DWIDTH 10 0
BBX 10 14 0 0
BITMAP
00BE00
01D740
000000
01BE00
079B80
1E02D0
2C01D0
3801E0
3801D0
7801D0
3802C0
3C0780
1E6E00
06F400
ENDCHAR
STARTCHAR uni020F
ENCODING 527
SWIDTH 451 0
DWIDTH 5 0
BBX 7 10 0 0
BITMAP
1FC0
39E0
2050
0000
1F40
7BD4
B2FC
B1D0
7A80
2E00
ENDCHAR
STARTCHAR uni0210
ENCODING 528
SWIDTH 880 0
DWIDTH 11 0
BBX 12 15 0 0
BITMAP
00CD00
00DA00
006600
000000
01BE40
0797D0
1D11E0
28B0E0
34E1D0
70E780
73FE00
71EF00
36C781
2BC3EB
0B41B8
ENDCHAR
STARTCHAR uni0211
ENCODING 529
SWIDTH 455 0
DWIDTH 5 0
BBX 7 11 0 0
BITMAP
7340
3780
2980
0880
0000
25D0
37D0
79D8
78F8
7410
7000
ENDCHAR
STARTCHAR uni0212
ENCODING 530
SWIDTH 880 0
DWIDTH 11 0
BBX 12 14 0 0
BITMAP
007F40
00E6C0
004000
01BE40
0797D0
1D11E0
28B0E0
34E1D0
70E780
73FE00
71EF00
36C781
2BC3EB
0B41B8
ENDCHAR
STARTCHAR uni0213
ENCODING 531
SWIDTH 455 0
DWIDTH 5 0
BBX 7 10 0 0
BITMAP
0BD0
2DB0
2420
0000
25D0
37D0
79D8
78F8
7410
7000
ENDCHAR
STARTCHAR uni0214
ENCODING 532
SWIDTH 890 0
DWIDTH 11 0
BBX 12 15 0 0
BITMAP
009900
00AA00
006300
000000
1F4070
7780B0
C380F0
0380E0
0741E0
0B42D0
0B03D0
0E07C0
0E0EC2
0FB5EB
07D0B8
ENDCHAR
STARTCHAR uni0215
ENCODING 533
SWIDTH 462 0
DWIDTH 6 0
BBX 7 11 0 0
BITMAP
7340
3780
2980
0880
0000
28D0
35C0
72C0
7788
7FA8
39E0
ENDCHAR
STARTCHAR uni0216
ENCODING 534
SWIDTH 890 0
DWIDTH 11 0
BBX 12 14 0 0
BITMAP
006F40
00A6C0
000040
1F4070
7780B0
C380F0
0380E0
0741E0
0B42D0
0B03D0
0E07C0
0E0EC2
0FB5EB
07D0B8
ENDCHAR
STARTCHAR uni0217
ENCODING 535
SWIDTH 462 0
DWIDTH 6 0
BBX 7 10 0 0
BITMAP
0BD0
2DB0
1420
0000
28D0
35C0
72C0
7788
7FA8
39E0
ENDCHAR
STARTCHAR uni0218
ENCODING 536
SWIDTH 693 0
DWIDTH 8 0
BBX 9 15 0 -4
BITMAP
06F900
1E5F00
2C0740
2C0700
1F4000
07F400
007D00
700E00
B00E00
796D00
1BE400
000000
024000
034000
030000
ENDCHAR
STARTCHAR uni0219
ENCODING 537
SWIDTH 427 0
DWIDTH 5 0
BBX 7 10 0 -4
BITMAP
0A00
1D00
2F00
7798
DBF4
1FD0
0000
0D00
0D00
0C00
ENDCHAR
STARTCHAR uni021A
ENCODING 538
SWIDTH 697 0
DWIDTH 8 0
BBX 11 15 0 -4
BITMAP
06FFF8
397954
707400
707400
20B000
00B000
00E000
00E000
01E000
01D000
01D000
000000
018000
01C000
018000
ENDCHAR
STARTCHAR uni021B
ENCODING 539
SWIDTH 393 0
DWIDTH 5 0
BBX 6 15 0 -4
BITMAP
03C0
0AD0
0DC0
1D80
2F40
FFD0
7940
3800
3810
2DB0
0B80
0000
0900
0D00
0C00
ENDCHAR
STARTCHAR uni022A
ENCODING 554
SWIDTH 816 0
DWIDTH 10 0
BBX 10 15 0 0
BITMAP
00BF00
00EB00
00D700
000000
01BE00
079B80
1E02D0
2C01D0
3801E0
3801D0
7801D0
3802C0
3C0780
1E6E00
06F400
ENDCHAR
STARTCHAR uni022B
ENCODING 555
SWIDTH 451 0
DWIDTH 5 0
BBX 7 11 0 0
BITMAP
1FD0
0540
28D0
29D0
0000
1F40
7BD4
B2FC
B1D0
7A80
2E00
ENDCHAR
STARTCHAR uni022C
ENCODING 556
SWIDTH 816 0
DWIDTH 10 0
BBX 10 16 0 0
BITMAP
00BF00
006540
01FA80
029A00
000000
01BE00
079B80
1E02D0
2C01D0
3801E0
3801D0
7801D0
3802C0
3C0780
1E6E00
06F400
ENDCHAR
STARTCHAR uni022D
ENCODING 557
SWIDTH 451 0
DWIDTH 5 0
BBX 7 11 0 0
BITMAP
1FD0
1950
3EA0
62D0
0000
1F40
7BD4
B2FC
B1D0
7A80
2E00
ENDCHAR
STARTCHAR uni0230
ENCODING 560
SWIDTH 816 0
DWIDTH 10 0
BBX 10 15 0 0
BITMAP
00BF00
003D00
003800
000000
01BE00
079B80
1E02D0
2C01D0
3801E0
3801D0
7801D0
3802C0
3C0780
1E6E00
06F400
ENDCHAR
STARTCHAR uni0231
ENCODING 561
SWIDTH 451 0
DWIDTH 5 0
BBX 7 11 0 0
BITMAP
1FD0
0540
0000
0B40
0100
1F40
7BD4
B2FC
B1D0
7A80
2E00
ENDCHAR
STARTCHAR uni0232
ENCODING 562
SWIDTH 851 0
DWIDTH 10 0
BBX 12 18 0 -5
BITMAP
007F80
001500
1F4070
7780B0
C380F0
0380E0
0741E0
0B42D0
0B07D0
0B5EC0
07F6ED
005BE4
00BF80
01E380
038740
039A00
02FC00
005000
ENDCHAR
STARTCHAR uni0233
ENCODING 563
SWIDTH 479 0
DWIDTH 6 0
BBX 7 14 0 -6
BITMAP
1FD0
0540
28D0
35C0
72C0
7788
7FF8
3AD0
0B40
2F00
6700
DA00
ED00
B400
ENDCHAR
STARTCHAR uni0237
ENCODING 567
SWIDTH 254 0
DWIDTH 3 0
BBX 8 12 -3 -6
BITMAP
0090
00D0
01D0
01C9
01EC
02E0
0780
1F40
3740
6700
AE00
7800
ENDCHAR
STARTCHAR uni0259
ENCODING 601
SWIDTH 458 0
DWIDTH 6 0
BBX 6 6 0 0
BITMAP
2F40
26C0
01D0
7FD0
7BC0
2F40
ENDCHAR
STARTCHAR uni02BC
ENCODING 700
SWIDTH 600 0
DWIDTH 7 0
BBX 2 3 3 7
BITMAP
A0
A0
90
ENDCHAR
STARTCHAR circumflex
ENCODING 710
SWIDTH 600 0
DWIDTH 7 0
BBX 5 4 1 7
BITMAP
0A00
1F40
3640
6280
ENDCHAR
STARTCHAR caron
ENCODING 711
SWIDTH 600 0
DWIDTH 7 0
BBX 4 4 2 7
BITMAP
93
AA
6C
34
ENDCHAR
STARTCHAR uni02C9
ENCODING 713
SWIDTH 600 0
DWIDTH 7 0
BBX 5 2 1 6
BITMAP
7F40
1500
ENDCHAR
STARTCHAR breve
ENCODING 728
SWIDTH 600 0
DWIDTH 7 0
BBX 5 4 1 6
BITMAP
5080
B5C0
3F40
0400
ENDCHAR
STARTCHAR dotaccent
ENCODING 729
SWIDTH 600 0
DWIDTH 7 0
BBX 3 2 2 6
BITMAP
78
10
ENDCHAR
STARTCHAR ring
ENCODING 730
SWIDTH 600 0
DWIDTH 7 0
BBX 4 4 2 6
BITMAP
7C
AD
BC
10
ENDCHAR
STARTCHAR ogonek
ENCODING 731
SWIDTH 600 0
DWIDTH 7 0
BBX 4 5 1 -4
BITMAP
14
30
74
3E
04
ENDCHAR
STARTCHAR tilde
ENCODING 732
SWIDTH 600 0
DWIDTH 7 0
BBX 6 3 1 7
BITMAP
1440
7DD0
9780
ENDCHAR
STARTCHAR hungarumlaut
ENCODING 733
SWIDTH 600 0
DWIDTH 7 0
BBX 5 4 2 7
BITMAP
3640
7740
A600
8900
ENDCHAR
STARTCHAR gravecomb
ENCODING 768
SWIDTH 0 0
DWIDTH 0 0
BBX 3 4 -6 7
BITMAP
A0
B0
24
18
ENDCHAR
STARTCHAR acutecomb
ENCODING 769
SWIDTH 0 0
DWIDTH 0 0
BBX 3 4 -4 7
BITMAP
24
74
A0
80
ENDCHAR
STARTCHAR uni0302
ENCODING 770
SWIDTH 0 0
DWIDTH 0 0
BBX 5 4 -6 7
BITMAP
0A00
2B00
3740
6240
ENDCHAR
STARTCHAR tildecomb
ENCODING 771
SWIDTH 0 0
DWIDTH 0 0
BBX 5 3 -6 7
BITMAP
1040
BDC0
D740
ENDCHAR
STARTCHAR uni0304
ENCODING 772
SWIDTH 0 0
DWIDTH 0 0
BBX 5 2 -6 6
BITMAP
7F40
1500
ENDCHAR
STARTCHAR uni0306
ENCODING 774
SWIDTH 0 0
DWIDTH 0 0
BBX 5 4 -6 6
BITMAP
5080
A2C0
7F40
0400
ENDCHAR
STARTCHAR uni0307
ENCODING 775
SWIDTH 0 0
DWIDTH 0 0
BBX 3 2 -5 6
BITMAP
74
10
ENDCHAR
STARTCHAR uni0308
ENCODING 776
SWIDTH 0 0
DWIDTH 0 0
BBX 5 2 -6 7
BITMAP
7380
7340
ENDCHAR
STARTCHAR hookabovecomb
ENCODING 777
SWIDTH 0 0
DWIDTH 0 0
BBX 3 4 -5 6
BITMAP
B8
1C
38
10
ENDCHAR
STARTCHAR uni030A
ENCODING 778
SWIDTH 0 0
DWIDTH 0 0
BBX 4 4 -5 6
BITMAP
78
ED
BC
10
ENDCHAR
STARTCHAR uni030B
ENCODING 779
SWIDTH 0 0
DWIDTH 0 0
BBX 5 4 -5 7
BITMAP
7340
B700
9A00
8800
ENDCHAR
STARTCHAR uni030C
ENCODING 780
SWIDTH 0 0
DWIDTH 0 0
BBX 4 4 -5 7
BITMAP
C6
D9
AC
74
ENDCHAR
STARTCHAR uni030F
ENCODING 783
SWIDTH 0 0
DWIDTH 0 0
BBX 5 4 -7 7
BITMAP
7700
7740
2A80
1880
ENDCHAR
STARTCHAR uni0311
ENCODING 785
SWIDTH 0 0
DWIDTH 0 0
BBX 5 3 -6 7
BITMAP
2F40
B6C0
9080
ENDCHAR
STARTCHAR uni0312
ENCODING 786
SWIDTH 0 0
DWIDTH 0 0
BBX 2 3 -4 7
BITMAP
90
D0
C0
ENDCHAR
STARTCHAR uni031B
ENCODING 795
SWIDTH 0 0
DWIDTH 0 0
BBX 3 4 -4 4
BITMAP
10
34
A0
40
ENDCHAR
STARTCHAR dotbelowcomb
ENCODING 803
SWIDTH 0 0
DWIDTH 0 0
BBX 3 2 -6 -3
BITMAP
74
74
ENDCHAR
STARTCHAR uni0324
ENCODING 804
SWIDTH 0 0
DWIDTH 0 0
BBX 5 2 -7 -3
BITMAP
7340
B340
ENDCHAR
STARTCHAR uni0326
ENCODING 806
SWIDTH 0 0
DWIDTH 0 0
BBX 2 3 -6 -4
BITMAP
30
70
60
ENDCHAR
STARTCHAR uni0327
ENCODING 807
SWIDTH 0 0
DWIDTH 0 0
BBX 4 5 -7 -4
BITMAP
2D
0B
07
7D
10
ENDCHAR
STARTCHAR uni0328
ENCODING 808
SWIDTH 0 0
DWIDTH 0 0
BBX 4 5 -6 -4
BITMAP
24
70
A0
7E
04
ENDCHAR
STARTCHAR uni032E
ENCODING 814
SWIDTH 0 0
DWIDTH 0 0
BBX 5 4 -7 -5
BITMAP
8140
E280
7F00
0400
ENDCHAR
STARTCHAR uni0331
ENCODING 817
SWIDTH 0 0
DWIDTH 0 0
BBX 5 2 -7 -3
BITMAP
7F40
1500
ENDCHAR
STARTCHAR uni0394
ENCODING 916
SWIDTH 700 0
DWIDTH 8 0
BBX 8 10 0 0
BITMAP
00A0
00F0
02F0
0374
0728
0E28
1C1C
281C
795D
7FFD
ENDCHAR
STARTCHAR uni03A9
ENCODING 937
SWIDTH 816 0
DWIDTH 10 0
BBX 10 10 0 0
BITMAP
01BE00
0BAB80
1E02D0
2C01E0
3801E0
7801D0
3802C0
3C0780
6E1F80
FF2FD0
ENDCHAR
STARTCHAR uni03BC
ENCODING 956
SWIDTH 462 0
DWIDTH 6 0
BBX 7 9 0 -3
BITMAP
28D0
35C0
72C0
7388
BFA8
B9E0
A000
A000
A000
ENDCHAR
STARTCHAR pi
ENCODING 960
SWIDTH 496 0
DWIDTH 6 0
BBX 8 6 0 0
BITMAP
BFF8
79E0
75D0
71C5
B1DD
60F4
ENDCHAR
STARTCHAR uni0400
ENCODING 1024
SWIDTH 686 0
DWIDTH 8 0
BBX 10 15 0 0
BITMAP
060000
07D000
00A000
000000
02FD00
0B9B40
1E0380
1D0340
0E4100
0BE000
2E4000
740000
B40000
7E5AE0
1BFE40
ENDCHAR
STARTCHAR uni0401
ENCODING 1025
SWIDTH 686 0
DWIDTH 8 0
BBX 10 14 0 0
BITMAP
01DA00
01DA00
000000
02FD00
0B9B40
1E0380
1D0340
0E4100
0BE000
2E4000
740000
B40000
7E5AE0
1BFE40
ENDCHAR
STARTCHAR uni0402
ENCODING 1026
SWIDTH 974 0
DWIDTH 12 0
BBX 13 17 0 -6
BITMAP
06FFF800
39795400
70740000
B0740000
60B00000
00B6F400
00FE7800
00F42C00
01E03DC0
01D03F40
01D07D00
0001F400
0007F000
000EB000
001CD000
001EC000
000F4000
ENDCHAR
STARTCHAR uni0403
ENCODING 1027
SWIDTH 635 0
DWIDTH 8 0
BBX 11 15 0 0
BITMAP
000700
002E00
006400
000000
0AFFF4
3EE550
B1D000
B2D000
12C000
03C000
038000
038000
074000
074000
070000
ENDCHAR
STARTCHAR uni0404
ENCODING 1028
SWIDTH 687 0
DWIDTH 8 0
BBX 10 11 0 0
BITMAP
01BD00
079B40
1E0740
2C0740
380000
3FF400
795000
380000
2D0000
1F96E0
02FE40
ENDCHAR
STARTCHAR uni0405
ENCODING 1029
SWIDTH 693 0
DWIDTH 8 0
BBX 9 11 0 0
BITMAP
06F900
1E5F00
2C0740
2C0700
1F4000
07F400
007D00
700E00
B00E00
796D00
1BE400
ENDCHAR
STARTCHAR uni0406
ENCODING 1030
SWIDTH 495 0
DWIDTH 6 0
BBX 7 11 0 0
BITMAP
2FF8
1790
0780
0740
0740
0B00
0B00
0E00
0E00
5E40
FFC0
ENDCHAR
STARTCHAR uni0407
ENCODING 1031
SWIDTH 495 0
DWIDTH 6 0
BBX 7 14 0 0
BITMAP
0A74
0A74
0000
2FF8
1790
0780
0740
0740
0B00
0B00
0E00
0E00
5E40
FFC0
ENDCHAR
STARTCHAR uni0408
ENCODING 1032
SWIDTH 743 0
DWIDTH 9 0
BBX 8 13 1 -2
BITMAP
1BFE
B96E
D01D
D01D
901D
007C
07F8
1E38
3874
74B0
79D0
2F80
0400
ENDCHAR
STARTCHAR uni0409
ENCODING 1033
SWIDTH 1158 0
DWIDTH 14 0
BBX 14 11 0 0
BITMAP
00074000
000B8000
000F4000
001F4000
002FAF80
003BD6D0
007740E0
00A340E0
91D381D0
B782E7C0
2E00BE00
ENDCHAR
STARTCHAR uni040A
ENCODING 1034
SWIDTH 1182 0
DWIDTH 14 0
BBX 14 11 0 0
BITMAP
1F40D000
A781D000
C382C000
0382C000
0787FF80
2FFF80E0
0B5740B0
0B0340B0
0E0381E0
0E02D7C0
0D00BE00
ENDCHAR
STARTCHAR uni040B
ENCODING 1035
SWIDTH 979 0
DWIDTH 12 0
BBX 14 11 0 0
BITMAP
06FFF800
39795400
70740000
B0740000
60B00000
00B6F400
00FE7C00
00F42C00
01E03850
01D03EC0
01D02E00
ENDCHAR
STARTCHAR uni040C
ENCODING 1036
SWIDTH 937 0
DWIDTH 11 0
BBX 13 15 0 0
BITMAP
00002800
0000B800
00019000
00000000
0BF80D00
2D781D00
34743C00
3474B400
10B6D000
01FE0000
00FB4000
00E3C000
91D2D180
B6C0FB40
2F407D00
ENDCHAR
STARTCHAR uni040D
ENCODING 1037
SWIDTH 890 0
DWIDTH 11 0
BBX 12 15 0 0
BITMAP
028000
01E000
002800
000000
1F4070
7780B0
C380F0
0380E0
0741E0
0B42D0
0B03D0
0E07C0
0E0EC2
0FB5EB
07D0B8
ENDCHAR
STARTCHAR uni040E
ENCODING 1038
SWIDTH 824 0
DWIDTH 10 0
BBX 12 18 0 -4
BITMAP
000040
00A280
007E00
1F40A0
7780F0
0380E0
0741E0
0B43D0
0B5ED0
03F9C4
0042FD
001BE4
00BF80
02E340
038740
039A00
02F800
005000
ENDCHAR
STARTCHAR uni040F
ENCODING 1039
SWIDTH 890 0
DWIDTH 11 0
BBX 12 14 0 -3
BITMAP
1F4070
7780B0
C380F0
0380E0
0741E0
0B42D0
0B03D0
0E07C0
0E0EC2
0FB5EB
07D0B8
028000
038000
010000
ENDCHAR
STARTCHAR uni0410
ENCODING 1040
SWIDTH 786 0
DWIDTH 9 0
BBX 11 11 0 0
BITMAP
006FE0
02EAA0
0B4240
1D0380
2C0740
380740
740B00
740F00
782F08
2EBBA8
0B92E0
ENDCHAR
STARTCHAR uni0411
ENCODING 1041
SWIDTH 917 0
DWIDTH 11 0
BBX 11 12 0 -1
BITMAP
0AFFF4
39F550
70E000
B0E000
71D000
02FFD0
07E5B4
02C038
02C038
0380B4
0386E0
025A40
ENDCHAR
STARTCHAR uni0412
ENCODING 1042
SWIDTH 827 0
DWIDTH 10 0
BBX 11 12 0 -1
BITMAP
06FF80
7E96F0
A100B4
074074
0B01E0
0E3F40
0E1B80
1D02C0
1D03C0
2E6F40
2FF900
140000
ENDCHAR
STARTCHAR uni0413
ENCODING 1043
SWIDTH 635 0
DWIDTH 8 0
BBX 11 11 0 0
BITMAP
0AFFF4
3EE550
B1D000
B2D000
12C000
03C000
038000
038000
074000
074000
070000
ENDCHAR
STARTCHAR uni0414
ENCODING 1044
SWIDTH 964 0
DWIDTH 12 0
BBX 12 11 0 0
BITMAP
01BF90
0B96F4
091038
00A02C
01D02D
02C01D
02C02C
03802C
7F8078
BBE5F0
7D2F80
ENDCHAR
STARTCHAR uni0415
ENCODING 1045
SWIDTH 686 0
DWIDTH 8 0
BBX 10 11 0 0
BITMAP
02FD00
0B9B40
1E0380
1D0340
0E4100
0BE000
2E4000
740000
B40000
7E5AE0
1BFE40
ENDCHAR
STARTCHAR uni0416
ENCODING 1046
SWIDTH 1234 0
DWIDTH 15 0
BBX 16 11 0 0
BITMAP
0BD0A07D
09E0E0EA
0070E2C0
0035D380
0029EF00
001FF800
007AED00
00E38E00
52D38B42
B78383DA
3E0341F8
ENDCHAR
STARTCHAR uni0417
ENCODING 1047
SWIDTH 725 0
DWIDTH 9 0
BBX 9 11 0 0
BITMAP
02F800
0F5E00
1D0A00
1C0E00
002C00
02FD00
014B00
340B40
740F00
3D6D00
1BE400
ENDCHAR
STARTCHAR uni0418
ENCODING 1048
SWIDTH 890 0
DWIDTH 11 0
BBX 12 11 0 0
BITMAP
1F4070
7780B0
C380F0
0380E0
0741E0
0B42D0
0B03D0
0E07C0
0E0EC2
0FB5EB
07D0B8
ENDCHAR
STARTCHAR uni0419
ENCODING 1049
SWIDTH 890 0
DWIDTH 11 0
BBX 12 14 0 0
BITMAP
000040
0061C0
002E40
1F4070
7780B0
C380F0
0380E0
0741E0
0B42D0
0B03D0
0E07C0
0E0EC2
0FB5EB
07D0B8
ENDCHAR
STARTCHAR uni041A
ENCODING 1050
SWIDTH 937 0
DWIDTH 11 0
BBX 13 11 0 0
BITMAP
0BF80D00
2D781D00
34743C00
3474B400
10B6D000
01FE0000
00FB4000
00E3C000
91D2D180
B6C0FB40
2F407D00
ENDCHAR
STARTCHAR uni041B
ENCODING 1051
SWIDTH 861 0
DWIDTH 10 0
BBX 12 11 0 0
BITMAP
000740
000B80
000F40
001F40
002F40
003B40
007740
00A380
91D382
B782DA
2E00B8
ENDCHAR
STARTCHAR uni041C
ENCODING 1052
SWIDTH 1133 0
DWIDTH 14 0
BBX 15 11 0 0
BITMAP
002D0B00
003D1F00
003D2F00
007D3F00
00BD7B00
00ADAB00
00DDDB00
01DECB00
92CB8B08
BB4B47A8
7E0702E0
ENDCHAR
STARTCHAR uni041D
ENCODING 1053
SWIDTH 873 0
DWIDTH 10 0
BBX 12 11 0 0
BITMAP
2F407C
A780E9
8381C9
03829C
0787F8
2FFFD0
0B4740
0B0740
0E0382
0E02DA
0D01F8
ENDCHAR
STARTCHAR uni041E
ENCODING 1054
SWIDTH 816 0
DWIDTH 10 0
BBX 10 11 0 0
BITMAP
01BE00
079B80
1E02D0
2C01D0
3801E0
3801D0
7801D0
3802C0
3C0780
1E6E00
06F400
ENDCHAR
STARTCHAR uni041F
ENCODING 1055
SWIDTH 892 0
DWIDTH 11 0
BBX 12 11 0 0
BITMAP
06FFFA
3EE5BA
71D0B0
71D0F0
22C0E0
02C1E0
0381D0
0382C0
0782C1
0741EB
0740B8
ENDCHAR
STARTCHAR uni0420
ENCODING 1056
SWIDTH 805 0
DWIDTH 10 0
BBX 10 12 0 -1
BITMAP
00BF40
0797D0
0E70E0
28B0E0
34E1E0
75EBC0
73FE00
71D000
72C000
76C000
3B8000
1B4000
ENDCHAR
STARTCHAR uni0421
ENCODING 1057
SWIDTH 686 0
DWIDTH 8 0
BBX 10 11 0 0
BITMAP
01BD00
079B00
1E0740
2C0740
380100
380000
780000
380000
2D0010
1F96E0
02FE40
ENDCHAR
STARTCHAR uni0422
ENCODING 1058
SWIDTH 697 0
DWIDTH 8 0
BBX 11 11 0 0
BITMAP
06FFF8
397954
707400
707400
20B000
00B000
00E000
00E000
01E000
01D000
01D000
ENDCHAR
STARTCHAR uni0423
ENCODING 1059
SWIDTH 824 0
DWIDTH 10 0
BBX 12 15 0 -4
BITMAP
1F40A0
7780F0
0380E0
0741E0
0B43D0
0B5ED0
03F9C4
0042FD
001BE4
00BF80
02E340
038740
039A00
02F800
005000
ENDCHAR
STARTCHAR uni0424
ENCODING 1060
SWIDTH 977 0
DWIDTH 12 0
BBX 12 16 0 -4
BITMAP
0E4000
0BFF40
005E00
07EDB8
1E7FAD
2C1E1D
382C1D
74281D
74782C
79FD78
2F7FE0
047540
14B000
2DE000
0FC000
010000
ENDCHAR
STARTCHAR uni0425
ENCODING 1061
SWIDTH 712 0
DWIDTH 9 0
BBX 10 11 0 0
BITMAP
2F41C0
AB8780
42DF00
01FC00
00F400
01F000
07F000
0F7400
2D3820
B42DA0
E00B80
ENDCHAR
STARTCHAR uni0426
ENCODING 1062
SWIDTH 890 0
DWIDTH 11 0
BBX 12 16 0 -5
BITMAP
1F4060
7780B0
C380F0
0380E0
0741E0
0B42D0
0B02D0
0E07D0
0E0AC0
0F65FB
07D0BD
0003F4
000FB0
000DA0
000FC0
000100
ENDCHAR
STARTCHAR uni0427
ENCODING 1063
SWIDTH 773 0
DWIDTH 9 0
BBX 8 11 1 0
BITMAP
340A
380A
780E
741E
B42D
B07D
7EED
2F5C
002C
002C
0028
ENDCHAR
STARTCHAR uni0428
ENCODING 1064
SWIDTH 1272 0
DWIDTH 15 0
BBX 17 11 0 0
BITMAP
1F40A03400
7780E03800
C380E07400
0381D07400
0742C0B400
0B42C0F000
0B0381F000
0E0B82E000
0E1E86E080
0FB6ECFB40
07D1F47D00
ENDCHAR
STARTCHAR uni0429
ENCODING 1065
SWIDTH 1272 0
DWIDTH 15 0
BBX 17 16 0 -5
BITMAP
1F40A03400
7780E03800
C380E07400
0381D07400
0742C0B000
0B42C0F000
0B0381F000
0E0B82E000
0E1F86E000
0FB6ECBE80
07D1F46E00
000001F800
000007B800
00000B7400
000007E000
0000004000
ENDCHAR
STARTCHAR uni042A
ENCODING 1066
SWIDTH 863 0
DWIDTH 10 0
BBX 10 11 1 0
BITMAP
015000
BFD000
178000
074000
0BFF40
2F57C0
1E02D0
0E02C0
0E0380
0B5F40
02F900
ENDCHAR
STARTCHAR uni042B
ENCODING 1067
SWIDTH 1078 0
DWIDTH 13 0
BBX 13 11 0 0
BITMAP
06000340
0F000740
0E000740
1D000740
1FFD0B00
7E5B4B00
7C074E00
2C074E00
2C0B1D00
1E6E1D00
07E41D00
ENDCHAR
STARTCHAR uni042C
ENCODING 1068
SWIDTH 721 0
DWIDTH 9 0
BBX 9 11 0 0
BITMAP
060000
0F0000
0E0000
1D0000
1FFD00
7E5B40
7C0740
2C0740
2C0B00
1E6E00
07E400
ENDCHAR
STARTCHAR uni042D
ENCODING 1069
SWIDTH 755 0
DWIDTH 9 0
BBX 9 11 0 0
BITMAP
06F800
1E6F00
240B40
000380
000380
07FF80
015780
200740
700F00
797D00
1FE000
ENDCHAR
STARTCHAR uni042E
ENCODING 1070
SWIDTH 1246 0
DWIDTH 15 0
BBX 15 11 0 0
BITMAP
1F400780
7B81F2F0
D383B074
4387A038
038BC038
1BBF0038
2FAE0074
0B0E00B4
0E0B41E0
0E07EBC0
0D01BE00
ENDCHAR
STARTCHAR uni042F
ENCODING 1071
SWIDTH 850 0
DWIDTH 10 0
BBX 12 11 0 0
BITMAP
01BED0
0396D0
0B01D0
0B02D0
0B03C0
0787C0
02FF80
002F80
407781
E6D2D9
6E41F8
ENDCHAR
STARTCHAR uni0430
ENCODING 1072
SWIDTH 470 0
DWIDTH 6 0
BBX 7 6 0 0
BITMAP
0B40
2EC0
75C0
B2C8
7BEC
3DE0
ENDCHAR
STARTCHAR uni0431
ENCODING 1073
SWIDTH 473 0
DWIDTH 6 0
BBX 8 12 0 0
BITMAP
0050
0BE0
2D00
1D00
0B00
0380
1FD0
3AD4
71FD
B2D0
7780
2E00
ENDCHAR
STARTCHAR uni0432
ENCODING 1074
SWIDTH 473 0
DWIDTH 6 0
BBX 8 12 0 0
BITMAP
0780
0EC0
1CC0
2980
3A40
3A00
7F80
7AD4
75FD
74D0
3AC0
1F40
ENDCHAR
STARTCHAR uni0433
ENCODING 1075
SWIDTH 380 0
DWIDTH 5 0
BBX 6 6 0 0
BITMAP
2F00
2740
0A00
7420
B5E0
6F80
ENDCHAR
STARTCHAR uni0434
ENCODING 1076
SWIDTH 479 0
DWIDTH 6 0
BBX 7 12 0 -6
BITMAP
0B40
2EC0
75C0
B288
7BF8
3FD0
0B40
2F00
6700
9A00
ED00
B400
ENDCHAR
STARTCHAR uni0435
ENCODING 1077
SWIDTH 393 0
DWIDTH 5 0
BBX 7 6 0 0
BITMAP
1F40
7B80
B340
BD24
79F0
2F80
ENDCHAR
STARTCHAR uni0436
ENCODING 1078
SWIDTH 717 0
DWIDTH 9 0
BBX 10 6 0 0
BITMAP
2D9780
3BEEC0
03E880
67F820
AAEDA0
78CB80
ENDCHAR
STARTCHAR uni0437
ENCODING 1079
SWIDTH 435 0
DWIDTH 5 0
BBX 8 12 -1 -6
BITMAP
0BD0
09A0
00A0
0685
1E2D
0BE0
07C0
1E80
3680
6340
6B00
7900
ENDCHAR
STARTCHAR uni0438
ENCODING 1080
SWIDTH 462 0
DWIDTH 6 0
BBX 7 6 0 0
BITMAP
28D0
35C0
72C0
7788
7FA8
39E0
ENDCHAR
STARTCHAR uni0439
ENCODING 1081
SWIDTH 462 0
DWIDTH 6 0
BBX 7 10 0 0
BITMAP
0010
28A0
1F80
0100
28D0
35C0
72C0
7788
7FA8
39E0
ENDCHAR
STARTCHAR uni043A
ENCODING 1082
SWIDTH 465 0
DWIDTH 6 0
BBX 7 6 0 0
BITMAP
26E0
3BB0
7E60
7E08
7F68
72E0
ENDCHAR
STARTCHAR uni043B
ENCODING 1083
SWIDTH 549 0
DWIDTH 7 0
BBX 8 6 0 0
BITMAP
01D0
02D0
03D0
9AD2
EDEA
B478
ENDCHAR
STARTCHAR uni043C
ENCODING 1084
SWIDTH 734 0
DWIDTH 9 0
BBX 11 6 0 0
BITMAP
028B00
03DF00
07EB00
9AF714
EDF7B0
B493D0
ENDCHAR
STARTCHAR uni043D
ENCODING 1085
SWIDTH 475 0
DWIDTH 6 0
BBX 8 6 0 0
BITMAP
2490
35D0
7FC0
76C9
72E8
71E0
ENDCHAR
STARTCHAR uni043E
ENCODING 1086
SWIDTH 451 0
DWIDTH 5 0
BBX 7 6 0 0
BITMAP
1F40
7BD4
B2FC
B1D0
7A80
2E00
ENDCHAR
STARTCHAR uni043F
ENCODING 1087
SWIDTH 496 0
DWIDTH 6 0
BBX 8 6 0 0
BITMAP
25D0
3BD0
7DD0
79C5
75ED
70F4
ENDCHAR
STARTCHAR uni0440
ENCODING 1088
SWIDTH 481 0
DWIDTH 6 0
BBX 10 12 -2 -6
BITMAP
037800
07ED00
075D00
076C50
0BBAC0
1FEE00
2B0000
370000
670000
6A0000
7D0000
380000
ENDCHAR
STARTCHAR uni0441
ENCODING 1089
SWIDTH 368 0
DWIDTH 4 0
BBX 6 6 0 0
BITMAP
1F00
3B40
7200
B020
79E0
2F80
ENDCHAR
STARTCHAR uni0442
ENCODING 1090
SWIDTH 744 0
DWIDTH 9 0
BBX 11 6 0 0
BITMAP
25D740
3BEF40
7DF740
79E714
75D7B4
71C7D0
ENDCHAR
STARTCHAR uni0443
ENCODING 1091
SWIDTH 479 0
DWIDTH 6 0
BBX 7 12 0 -6
BITMAP
28D0
35C0
72C0
7788
7FF8
3AD0
0B40
2F00
6700
DA00
ED00
B400
ENDCHAR
STARTCHAR uni0444
ENCODING 1092
SWIDTH 721 0
DWIDTH 9 0
BBX 10 14 0 -4
BITMAP
007000
00A000
00A000
00D000
0BEE00
2EEB00
75D700
B2CB20
7BEEB0
3EFB80
028000
028000
028000
028000
ENDCHAR
STARTCHAR uni0445
ENCODING 1093
SWIDTH 529 0
DWIDTH 6 0
BBX 8 6 0 0
BITMAP
2DB4
3BE4
0380
6742
AB9E
79F8
ENDCHAR
STARTCHAR uni0446
ENCODING 1094
SWIDTH 501 0
DWIDTH 6 0
BBX 8 11 0 -5
BITMAP
28D0
35C0
72C0
7780
7FED
39F4
07D0
0EC0
1A80
1F00
0400
ENDCHAR
STARTCHAR uni0447
ENCODING 1095
SWIDTH 555 0
DWIDTH 7 0
BBX 8 7 0 0
BITMAP
0B40
0EF8
1CB4
26D0
7342
D39E
02F8
ENDCHAR
STARTCHAR uni0448
ENCODING 1096
SWIDTH 693 0
DWIDTH 8 0
BBX 10 6 0 0
BITMAP
28C700
35CB00
72CE00
779D20
7FFEA0
39DB80
ENDCHAR
STARTCHAR uni0449
ENCODING 1097
SWIDTH 732 0
DWIDTH 9 0
BBX 10 11 0 -5
BITMAP
28C700
35CA00
72CE00
779D00
7FFFB0
39DBD0
001F00
007A00
00AD00
00B800
001000
ENDCHAR
STARTCHAR uni044A
ENCODING 1098
SWIDTH 542 0
DWIDTH 7 0
BBX 8 6 0 0
BITMAP
7F00
2D00
3FD0
39A2
39EA
1FB8
ENDCHAR
STARTCHAR uni044B
ENCODING 1099
SWIDTH 702 0
DWIDTH 8 0
BBX 10 6 0 0
BITMAP
280700
340B00
7BDE00
79FE20
7ADEA0
1F4780
ENDCHAR
STARTCHAR uni044C
ENCODING 1100
SWIDTH 517 0
DWIDTH 6 0
BBX 8 6 0 0
BITMAP
2800
3400
7BD0
79D1
7AED
1FF4
ENDCHAR
STARTCHAR uni044D
ENCODING 1101
SWIDTH 466 0
DWIDTH 6 0
BBX 7 6 0 0
BITMAP
2F80
16D4
0BFC
61D0
76C0
2E40
ENDCHAR
STARTCHAR uni044E
ENCODING 1102
SWIDTH 676 0
DWIDTH 8 0
BBX 10 6 0 0
BITMAP
24BD00
36EE00
7F8FE0
778A40
72DD00
70B800
ENDCHAR
STARTCHAR uni044F
ENCODING 1103
SWIDTH 543 0
DWIDTH 7 0
BBX 8 6 0 0
BITMAP
07F0
0EB0
0DA0
9BE2
E7AA
7D78
ENDCHAR
STARTCHAR uni0450
ENCODING 1104
SWIDTH 393 0
DWIDTH 5 0
BBX 7 11 0 0
BITMAP
2400
2C00
0D00
0600
0000
1F40
7B80
B340
BD24
79F0
2F80
ENDCHAR
STARTCHAR uni0451
ENCODING 1105
SWIDTH 393 0
DWIDTH 5 0
BBX 7 9 0 0
BITMAP
28D0
28D0
0000
1F40
7B80
B340
BD24
79F0
2F80
ENDCHAR
STARTCHAR uni0452
ENCODING 1106
SWIDTH 514 0
DWIDTH 6 0
BBX 8 17 0 -6
BITMAP
0900
1D00
7FD0
2D40
3800
39D0
3BE0
7DD0
79D9
79FC
35E0
0780
1F80
3740
6700
AA00
7800
ENDCHAR
STARTCHAR uni0453
ENCODING 1107
SWIDTH 380 0
DWIDTH 5 0
BBX 6 11 0 0
BITMAP
0280
0380
0700
0900
0000
2F00
2740
0A00
7420
B5E0
6F80
ENDCHAR
STARTCHAR uni0454
ENCODING 1108
SWIDTH 379 0
DWIDTH 5 0
BBX 6 6 0 0
BITMAP
1F40
7A80
BE00
B430
79E0
2F80
ENDCHAR
STARTCHAR uni0455
ENCODING 1109
SWIDTH 427 0
DWIDTH 5 0
BBX 7 6 0 0
BITMAP
0A00
1D00
2F00
7798
DBF4
1FD0
ENDCHAR
STARTCHAR uni0456
ENCODING 1110
SWIDTH 246 0
DWIDTH 3 0
BBX 5 8 0 0
BITMAP
2D00
0400
2400
3400
7400
7140
7B40
3D00
ENDCHAR
STARTCHAR uni0457
ENCODING 1111
SWIDTH 246 0
DWIDTH 3 0
BBX 5 9 0 0
BITMAP
A700
A700
0000
2400
3400
7400
7140
7B40
3D00
ENDCHAR
STARTCHAR uni0458
ENCODING 1112
SWIDTH 254 0
DWIDTH 3 0
BBX 8 14 -3 -6
BITMAP
00F0
0040
0090
00D0
01D0
01C9
01EC
02E0
0780
1F40
3740
6700
AE00
7800
ENDCHAR
STARTCHAR uni0459
ENCODING 1113
SWIDTH 794 0
DWIDTH 10 0
BBX 11 6 0 0
BITMAP
01D000
02E000
03EF40
5BE688
EDA7A8
B87EE0
ENDCHAR
STARTCHAR uni045A
ENCODING 1114
SWIDTH 751 0
DWIDTH 9 0
BBX 11 6 0 0
BITMAP
24D000
35D000
7FFF00
76D754
71EBB4
70BFD0
ENDCHAR
STARTCHAR uni045B
ENCODING 1115
SWIDTH 502 0
DWIDTH 6 0
BBX 8 11 0 0
BITMAP
0D00
1D00
7FD0
2D40
3800
35D0
37E0
7DD0
79D5
79ED
34F4
ENDCHAR
STARTCHAR uni045C
ENCODING 1116
SWIDTH 465 0
DWIDTH 6 0
BBX 7 11 0 0
BITMAP
0090
00D0
0280
0200
0000
26E0
3BB0
7E60
7E08
7F68
72E0
ENDCHAR
STARTCHAR uni045D
ENCODING 1117
SWIDTH 462 0
DWIDTH 6 0
BBX 7 11 0 0
BITMAP
1800
1D00
0A00
0200
0000
28D0
35C0
72C0
7788
7FA8
39E0
ENDCHAR
STARTCHAR uni045E
ENCODING 1118
SWIDTH 479 0
DWIDTH 6 0
BBX 7 16 0 -6
BITMAP
0010
28A0
1F80
0100
28D0
35C0
72C0
7788
7FF8
3AD0
0B40
2F00
6700
DA00
ED00
B400
ENDCHAR
STARTCHAR uni045F
ENCODING 1119
SWIDTH 600 0
DWIDTH 7 0
BBX 7 8 0 -2
BITMAP
28D0
35C0
72C0
7788
7FA8
39E0
2400
2400
ENDCHAR
STARTCHAR uni0462
ENCODING 1122
SWIDTH 721 0
DWIDTH 9 0
BBX 9 11 0 0
BITMAP
0B0000
7FD000
1E4000
1D0000
1FFD00
BE5B40
7C0740
2C0740
2C0B00
1E6E00
07E400
ENDCHAR
STARTCHAR uni0463
ENCODING 1123
SWIDTH 517 0
DWIDTH 6 0
BBX 8 9 0 0
BITMAP
0400
2C00
2C00
BF40
7900
7BD0
79D1
7AED
2FF4
ENDCHAR
STARTCHAR uni046A
ENCODING 1130
SWIDTH 1234 0
DWIDTH 15 0
BBX 16 11 0 0
BITMAP
0BFFFFFC
05B556E4
007402C0
00340780
00281F00
001FF800
007AED00
00E38E00
52D38B42
B78383DA
3E0341F8
ENDCHAR
STARTCHAR uni046B
ENCODING 1131
SWIDTH 788 0
DWIDTH 9 0
BBX 11 11 0 0
BITMAP
000E00
001E00
002E00
003A00
007A00
07EAD0
02DB40
01DE00
62EE08
ABBB68
78B2E0
ENDCHAR
STARTCHAR uni0472
ENCODING 1138
SWIDTH 816 0
DWIDTH 10 0
BBX 10 11 0 0
BITMAP
01BE00
079B80
1E02D0
2C01D0
3C01E0
3FFFD0
7956D0
3802C0
3C0780
1E6E00
06F400
ENDCHAR
STARTCHAR uni0473
ENCODING 1139
SWIDTH 451 0
DWIDTH 5 0
BBX 7 6 0 0
BITMAP
1F40
7AD4
B9FC
BBD0
7B80
2E00
ENDCHAR
STARTCHAR uni0474
ENCODING 1140
SWIDTH 797 0
DWIDTH 10 0
BBX 11 11 1 0
BITMAP
3402F8
7407A8
740740
740B00
B40F00
B40E00
742D00
743800
38B400
2FE000
1F4000
ENDCHAR
STARTCHAR uni0475
ENCODING 1141
SWIDTH 420 0
DWIDTH 5 0
BBX 7 6 0 0
BITMAP
70F4
71D0
7280
7740
7E00
3800
ENDCHAR
STARTCHAR uni048A
ENCODING 1162
SWIDTH 890 0
DWIDTH 11 0
BBX 12 18 0 -3
BITMAP
000040
0061C0
007F40
000400
1F4070
7780B0
C380F0
0380E0
0741E0
0B42D0
0B03D0
0E07C0
0E0EC2
0FB5EB
07D0BD
000074
0000E0
0000D0
ENDCHAR
STARTCHAR uni048B
ENCODING 1163
SWIDTH 462 0
DWIDTH 6 0
BBX 7 13 0 -3
BITMAP
1420
2890
1F80
0100
28D0
35C0
72C0
7788
7FA8
39F0
01D0
0280
0100
ENDCHAR
STARTCHAR uni048C
ENCODING 1164
SWIDTH 721 0
DWIDTH 9 0
BBX 9 11 0 0
BITMAP
0B0000
7FD000
1E4000
1D0000
1FFD00
BE5B40
7C0740
2C0740
2C0B00
1E6E00
07E400
ENDCHAR
STARTCHAR uni048D
ENCODING 1165
SWIDTH 517 0
DWIDTH 6 0
BBX 8 9 0 0
BITMAP
0400
2C00
2C00
BF40
7900
7BD0
79D1
7AED
2FF4
ENDCHAR
STARTCHAR uni048E
ENCODING 1166
SWIDTH 805 0
DWIDTH 10 0
BBX 11 12 0 -1
BITMAP
00BF40
0796D0
0E70E0
28B6E0
34E2F4
71EB94
73FE00
71D000
72C000
76C000
3B8000
1B4000
ENDCHAR
STARTCHAR uni048F
ENCODING 1167
SWIDTH 481 0
DWIDTH 6 0
BBX 10 12 -2 -6
BITMAP
037800
07ED00
075D00
07AC50
0BBAC0
1FEE00
2B0000
370000
670000
6A0000
6D0000
380000
ENDCHAR
STARTCHAR uni0490
ENCODING 1168
SWIDTH 645 0
DWIDTH 8 0
BBX 11 14 0 0
BITMAP
000028
000028
000034
0AFFF4
3EE540
B1D000
B2D000
12C000
03C000
038000
038000
074000
074000
070000
ENDCHAR
STARTCHAR uni0491
ENCODING 1169
SWIDTH 394 0
DWIDTH 5 0
BBX 5 8 0 0
BITMAP
00C0
01C0
2F80
3900
7000
7000
7000
7000
ENDCHAR
STARTCHAR uni0492
ENCODING 1170
SWIDTH 635 0
DWIDTH 8 0
BBX 11 11 0 0
BITMAP
0AFFF4
3EE550
B1D000
B2D000
22C000
0FF400
079000
038000
074000
074000
070000
ENDCHAR
STARTCHAR uni0493
ENCODING 1171
SWIDTH 380 0
DWIDTH 5 0
BBX 6 6 0 0
BITMAP
2F00
2740
5B00
7E20
B5E0
6F80
ENDCHAR
STARTCHAR uni0494
ENCODING 1172
SWIDTH 884 0
DWIDTH 11 0
BBX 12 17 0 -6
BITMAP
0AFFF4
3EE550
71D000
B2D000
62C000
03DBD0
03F5E0
03C0F0
0780EB
0740FD
0701F4
0007D0
001FC0
003A80
007340
00BB00
007D00
ENDCHAR
STARTCHAR uni0495
ENCODING 1173
SWIDTH 441 0
DWIDTH 5 0
BBX 7 10 0 -4
BITMAP
2F00
2740
0A00
7400
B5B4
7FE0
0B40
2B40
7700
3D00
ENDCHAR
STARTCHAR uni0496
ENCODING 1174
SWIDTH 1234 0
DWIDTH 15 0
BBX 17 16 0 -5
BITMAP
0BD0A07D00
09E0E0EA00
0070E2C000
0035D38000
0029EF0000
001FF80000
007AED0000
00E38F0000
52D38B4000
B78383EB40
3E0340FD00
000002F400
00000B7000
00000EA000
00000FD000
0000010000
ENDCHAR
STARTCHAR uni0497
ENCODING 1175
SWIDTH 803 0
DWIDTH 10 0
BBX 11 11 0 -5
BITMAP
2D9780
3BEEC0
03E880
67F800
AAEDA8
78CBE0
000780
001A80
003740
002E00
000400
ENDCHAR
STARTCHAR uni0498
ENCODING 1176
SWIDTH 725 0
DWIDTH 9 0
BBX 9 16 0 -5
BITMAP
02F800
0F5E00
1D0A00
1C0E00
002C00
02FD00
014B00
340B40
740F00
3D6D00
1BF800
02F400
0B7000
0EA000
0FD000
010000
ENDCHAR
STARTCHAR uni0499
ENCODING 1177
SWIDTH 445 0
DWIDTH 5 0
BBX 7 10 0 -4
BITMAP
2F40
76C0
0640
0B44
A6F8
7FE0
0B40
2B00
3700
3D00
ENDCHAR
STARTCHAR uni049A
ENCODING 1178
SWIDTH 937 0
DWIDTH 11 0
BBX 13 16 0 -5
BITMAP
0BF80D00
2D781D00
34743C00
3474B400
10B6D000
01FE0000
00FB4000
00E3C000
A1D2D040
B6C0FB80
2F407D00
0001F800
0007B400
000B7400
0007E000
00014000
ENDCHAR
STARTCHAR uni049B
ENCODING 1179
SWIDTH 531 0
DWIDTH 6 0
BBX 8 10 0 -4
BITMAP
26E0
3BB0
7E60
7E00
7F5A
76F8
02E0
0AD0
0DC0
0F40
ENDCHAR
STARTCHAR uni049C
ENCODING 1180
SWIDTH 937 0
DWIDTH 11 0
BBX 13 11 0 0
BITMAP
0BF80D00
2D781D00
34743C00
347AB400
10BBD000
01FE0000
00FB4000
00EBC000
91DED180
B6C4FB40
2F407D00
ENDCHAR
STARTCHAR uni049D
ENCODING 1181
SWIDTH 485 0
DWIDTH 6 0
BBX 8 6 0 0
BITMAP
25E0
36B4
7B20
7F05
7FAC
76F4
ENDCHAR
STARTCHAR uni049E
ENCODING 1182
SWIDTH 937 0
DWIDTH 11 0
BBX 13 11 0 0
BITMAP
0BF80D00
2D781D00
34743C00
36FDB400
25BAD000
01FE0000
00FB4000
00E3C000
91D1D180
B6C0FB40
2F407D00
ENDCHAR
STARTCHAR uni049F
ENCODING 1183
SWIDTH 473 0
DWIDTH 6 0
BBX 7 11 0 0
BITMAP
0D00
1D00
7FD0
2D40
3800
35E0
3BB0
7A20
7E08
7F6C
36E0
ENDCHAR
STARTCHAR uni04A0
ENCODING 1184
SWIDTH 937 0
DWIDTH 11 0
BBX 13 11 0 0
BITMAP
1AA80D00
2FF81D00
00743800
0074B400
00B6D000
01FE0000
00FB4000
00E3C000
91D1D180
B6C0FB40
2F407D00
ENDCHAR
STARTCHAR uni04A1
ENCODING 1185
SWIDTH 555 0
DWIDTH 7 0
BBX 8 6 0 0
BITMAP
7E78
1EEC
1F88
1F82
1FDB
0DB8
ENDCHAR
STARTCHAR uni04A2
ENCODING 1186
SWIDTH 907 0
DWIDTH 11 0
BBX 13 16 0 -5
BITMAP
2F407C00
A780E900
8381C900
03829C00
0783F400
2FFFD000
0B474000
0B074000
0E038100
0E03FB40
0D01B900
0002F400
000B7000
000EA000
000BD000
00010000
ENDCHAR
STARTCHAR uni04A3
ENCODING 1187
SWIDTH 515 0
DWIDTH 6 0
BBX 8 10 0 -4
BITMAP
2490
35D0
7FC0
76C5
72ED
70F4
02D0
0EC0
1D80
1F40
ENDCHAR
STARTCHAR uni04A4
ENCODING 1188
SWIDTH 873 0
DWIDTH 10 0
BBX 14 11 0 0
BITMAP
2F406F90
A780F540
8381D000
0382C000
07838000
2FFF8000
0B474000
0B074000
0E034200
0E02DA00
0D01F800
ENDCHAR
STARTCHAR uni04A5
ENCODING 1189
SWIDTH 475 0
DWIDTH 6 0
BBX 8 7 0 0
BITMAP
0010
24B4
35D0
7FC0
76C9
72E8
71E0
ENDCHAR
STARTCHAR uni04A8
ENCODING 1192
SWIDTH 997 0
DWIDTH 12 0
BBX 14 11 0 0
BITMAP
01F00000
0BD2F400
1E0FAD00
2C2D0F00
38380B00
38380B00
78380E00
383C1D00
2C2D7840
1FAFFAD0
06FEBE40
ENDCHAR
STARTCHAR uni04A9
ENCODING 1193
SWIDTH 574 0
DWIDTH 7 0
BBX 9 6 0 0
BITMAP
1D0000
39F400
B2A800
B36540
77FB40
2FF900
ENDCHAR
STARTCHAR uni04AA
ENCODING 1194
SWIDTH 781 0
DWIDTH 9 0
BBX 11 17 0 -6
BITMAP
01BD00
079B40
1E0740
2C0740
380100
380000
780000
380000
3C0258
1F5BB4
06FB80
000B00
002E00
00AA00
01CD00
01E800
00F400
ENDCHAR
STARTCHAR uni04AB
ENCODING 1195
SWIDTH 431 0
DWIDTH 5 0
BBX 7 10 0 -4
BITMAP
1F00
3B40
7200
B000
7974
2FD0
0B40
2B00
7600
7D00
ENDCHAR
STARTCHAR uni04AC
ENCODING 1196
SWIDTH 697 0
DWIDTH 8 0
BBX 11 16 0 -5
BITMAP
0AFFF8
397954
B07400
707400
10B000
00B000
00E000
00E000
01E000
01E000
01F400
02F400
0B7000
0EA000
0BD000
010000
ENDCHAR
STARTCHAR uni04AD
ENCODING 1197
SWIDTH 784 0
DWIDTH 9 0
BBX 11 10 0 -4
BITMAP
25D740
3BEF40
7DF740
79E700
75D7A8
71C3E0
000B80
002B40
003700
003D00
ENDCHAR
STARTCHAR uni04AE
ENCODING 1198
SWIDTH 677 0
DWIDTH 8 0
BBX 8 11 1 0
BITMAP
740A
381D
2C38
1DB4
0FE0
0BC0
0780
0340
0740
0740
0740
ENDCHAR
STARTCHAR uni04AF
ENCODING 1199
SWIDTH 472 0
DWIDTH 6 0
BBX 8 11 0 -5
BITMAP
71D0
76D4
36FD
3750
3E00
3D00
2800
2800
2C00
2C00
1400
ENDCHAR
STARTCHAR uni04B0
ENCODING 1200
SWIDTH 677 0
DWIDTH 8 0
BBX 8 11 1 0
BITMAP
740A
381D
2D38
1EB0
0BD0
0780
2FF0
0780
0740
0740
0740
ENDCHAR
STARTCHAR uni04B1
ENCODING 1201
SWIDTH 472 0
DWIDTH 6 0
BBX 8 11 0 -5
BITMAP
71D0
76D4
36FD
3750
3F00
3D00
BF40
2D00
2C00
2C00
1400
ENDCHAR
STARTCHAR uni04B2
ENCODING 1202
SWIDTH 716 0
DWIDTH 9 0
BBX 10 16 0 -5
BITMAP
2F41C0
A78780
42DE00
01FC00
00F400
01F000
07F400
0F7400
2D3810
B42EB0
E00F80
002F00
00AB00
01DE00
00FC00
001000
ENDCHAR
STARTCHAR uni04B3
ENCODING 1203
SWIDTH 601 0
DWIDTH 7 0
BBX 9 10 0 -4
BITMAP
2DB400
3BE400
034000
674000
AB9640
7AFE00
00B400
02B000
076000
07D000
ENDCHAR
STARTCHAR uni04B4
ENCODING 1204
SWIDTH 1040 0
DWIDTH 12 0
BBX 14 16 0 -5
BITMAP
0AFF8A00
397D4E00
70380E00
B0741E00
20B01D00
00B02D00
00E03C00
00E07C00
01D0AC00
00E75F60
00BD0BD0
00007F00
0000EA00
0001DD00
0001F800
00001000
ENDCHAR
STARTCHAR uni04B5
ENCODING 1205
SWIDTH 501 0
DWIDTH 6 0
BBX 8 13 0 -5
BITMAP
0FE0
0540
28D0
35C0
72C0
7780
7FED
39F4
07D0
0EC0
1A80
1F00
0400
ENDCHAR
STARTCHAR uni04B6
ENCODING 1206
SWIDTH 804 0
DWIDTH 10 0
BBX 10 16 1 -5
BITMAP
340A00
380E00
740E00
741E00
B02D00
B4BD00
7FED00
1A1C00
002D10
001FF0
000B80
003F00
00EB00
01DE00
00FC00
001000
ENDCHAR
STARTCHAR uni04B7
ENCODING 1207
SWIDTH 631 0
DWIDTH 8 0
BBX 9 12 0 -5
BITMAP
0B4000
0EF800
1CB400
26D000
734040
D79A80
02FE00
00B800
01A400
037000
02E000
004000
ENDCHAR
STARTCHAR uni04B8
ENCODING 1208
SWIDTH 773 0
DWIDTH 9 0
BBX 8 11 1 0
BITMAP
340A
380E
780E
751E
B66D
B37D
7FED
2F5C
062C
012C
0028
ENDCHAR
STARTCHAR uni04B9
ENCODING 1209
SWIDTH 575 0
DWIDTH 7 0
BBX 9 8 0 0
BITMAP
004000
068000
0FEC00
1EB400
29D000
728240
D39B00
01F800
ENDCHAR
STARTCHAR uni04BA
ENCODING 1210
SWIDTH 755 0
DWIDTH 9 0
BBX 10 11 1 0
BITMAP
280000
3C0000
380000
380000
740000
76F800
BE6C00
B41D00
F02C50
E02DD0
D01F40
ENDCHAR
STARTCHAR uni04BB
ENCODING 1211
SWIDTH 502 0
DWIDTH 6 0
BBX 8 12 0 0
BITMAP
0780
0EC0
1CC0
2980
3A40
3A00
7DD0
77E0
79D0
79D5
79ED
70F4
ENDCHAR
STARTCHAR uni04BC
ENCODING 1212
SWIDTH 808 0
DWIDTH 10 0
BBX 11 11 0 0
BITMAP
002F80
00F6E0
02C0A0
0780B0
6B40E0
7FFFD0
1F5540
0B4000
078004
02E5AC
006FA4
ENDCHAR
STARTCHAR uni04BD
ENCODING 1213
SWIDTH 483 0
DWIDTH 6 0
BBX 8 6 0 0
BITMAP
07D0
0EA0
5C90
BF89
1E6C
07E0
ENDCHAR
STARTCHAR uni04BE
ENCODING 1214
SWIDTH 808 0
DWIDTH 10 0
BBX 11 15 0 -4
BITMAP
002F80
00F6E0
02C0A0
0780B0
6B40E0
7FFFD0
1F5540
0B4000
078004
02E5AC
00BFA4
00D000
00D000
00BC00
001000
ENDCHAR
STARTCHAR uni04BF
ENCODING 1215
SWIDTH 483 0
DWIDTH 6 0
BBX 8 9 0 -3
BITMAP
07D0
0EA0
5CA0
BF85
1E6C
0BE4
0240
0340
02F0
ENDCHAR
STARTCHAR uni04C0
ENCODING 1216
SWIDTH 495 0
DWIDTH 6 0
BBX 7 11 0 0
BITMAP
2FF8
1790
0780
0740
0740
0B00
0B00
0E00
0E00
5E40
FFC0
ENDCHAR
STARTCHAR uni04C1
ENCODING 1217
SWIDTH 1234 0
DWIDTH 15 0
BBX 16 14 0 0
BITMAP
00000100
00024900
0001F800
0BD0A07D
09E0E0EA
0070E2C0
0035D380
0029EF00
001FF800
007AED00
00E38E00
52D38B42
B78383DA
3E0341F8
ENDCHAR
STARTCHAR uni04C2
ENCODING 1218
SWIDTH 717 0
DWIDTH 9 0
BBX 10 10 0 0
BITMAP
000500
035D00
02F800
004000
2D9780
3BEEC0
03E880
67F820
AAEDA0
78CB80
ENDCHAR
STARTCHAR uni04C3
ENCODING 1219
SWIDTH 937 0
DWIDTH 11 0
BBX 13 16 0 -5
BITMAP
0BF80D00
2D781D00
34743C00
3474B400
10B6D000
01FE0000
00FB4000
00E3C000
A1D2D040
B6C0FB80
2F407D00
0001F800
0007B400
000B7400
0007E000
00014000
ENDCHAR
STARTCHAR uni04C4
ENCODING 1220
SWIDTH 531 0
DWIDTH 6 0
BBX 8 10 0 -4
BITMAP
26E0
3BB0
7E60
7E00
7F5A
76F8
02E0
0AD0
0DC0
0F40
ENDCHAR
STARTCHAR uni04C5
ENCODING 1221
SWIDTH 861 0
DWIDTH 10 0
BBX 12 14 0 -3
BITMAP
000740
000B80
000F40
001F40
002F40
003B40
007740
00A380
91D382
B782DA
2E00B8
0000B0
0001D0
000180
ENDCHAR
STARTCHAR uni04C6
ENCODING 1222
SWIDTH 549 0
DWIDTH 7 0
BBX 8 8 0 -2
BITMAP
01D0
02D0
03D0
9AD2
EDEA
B4B8
0070
00D0
ENDCHAR
STARTCHAR uni04C7
ENCODING 1223
SWIDTH 907 0
DWIDTH 11 0
BBX 13 16 0 -5
BITMAP
2F407C00
A780E900
8381C900
03829C00
0783F400
2FFFD000
0B474000
0B074000
0E038100
0E03FB40
0D01B900
0002F400
000B7000
000EA000
000BD000
00010000
ENDCHAR
STARTCHAR uni04C8
ENCODING 1224
SWIDTH 515 0
DWIDTH 6 0
BBX 8 10 0 -4
BITMAP
2490
35D0
7FC0
76C5
72ED
70F4
02D0
0EC0
1D80
1F40
ENDCHAR
STARTCHAR uni04C9
ENCODING 1225
SWIDTH 873 0
DWIDTH 10 0
BBX 12 14 0 -3
BITMAP
2F407C
A780E9
8381C9
03829C
0783F4
2FFFD0
0B4740
0B0740
0E0383
0E02EE
0D00B8
0000B0
0000E0
0001C0
ENDCHAR
STARTCHAR uni04CA
ENCODING 1226
SWIDTH 475 0
DWIDTH 6 0
BBX 8 9 0 -3
BITMAP
2490
35D0
7FC0
76C9
72E8
71F0
01D0
0280
0100
ENDCHAR
STARTCHAR uni04CB
ENCODING 1227
SWIDTH 773 0
DWIDTH 9 0
BBX 8 16 1 -5
BITMAP
340A
380A
780E
741E
B42D
B07D
7EED
2F5C
002C
006C
00F8
07E0
1DD0
29C0
2F40
0400
ENDCHAR
STARTCHAR uni04CC
ENCODING 1228
SWIDTH 555 0
DWIDTH 7 0
BBX 8 9 0 -2
BITMAP
0B40
0EF8
1CB4
26D0
7342
D39E
02FC
0028
0010
ENDCHAR
STARTCHAR uni04CD
ENCODING 1229
SWIDTH 1133 0
DWIDTH 14 0
BBX 15 14 0 -3
BITMAP
002D0B00
003D1F00
003D2F00
007D3F00
00BD7B00
00ADAB00
00DDDB00
01DECB00
92CB8B08
B74B47AC
7E0702F4
000001D0
00000380
00000300
ENDCHAR
STARTCHAR uni04CE
ENCODING 1230
SWIDTH 734 0
DWIDTH 9 0
BBX 11 8 0 -2
BITMAP
028B00
03DF00
07EB00
9AF714
EDF7B0
B493D0
000340
000A00
ENDCHAR
STARTCHAR uni04CF
ENCODING 1231
SWIDTH 222 0
DWIDTH 3 0
BBX 4 11 0 0
BITMAP
04
1D
1C
2C
28
38
34
74
70
B0
60
ENDCHAR
STARTCHAR uni04D0
ENCODING 1232
SWIDTH 786 0
DWIDTH 9 0
BBX 11 14 0 0
BITMAP
000010
0028A0
001F80
006FE0
02EAA0
0B4240
1D0380
2C0740
380740
740B00
740F00
782F08
2EBBA8
0B92E0
ENDCHAR
STARTCHAR uni04D1
ENCODING 1233
SWIDTH 470 0
DWIDTH 6 0
BBX 7 10 0 0
BITMAP
0020
28A0
1FC0
0100
0B40
2EC0
75C0
B2C8
7BEC
3DE0
ENDCHAR
STARTCHAR uni04D2
ENCODING 1234
SWIDTH 786 0
DWIDTH 9 0
BBX 11 14 0 0
BITMAP
0029D0
0029D0
000000
006FE0
02EAA0
0B4240
1D0380
2C0740
380740
740B00
740F00
782F08
2EBBA8
0B92E0
ENDCHAR
STARTCHAR uni04D3
ENCODING 1235
SWIDTH 470 0
DWIDTH 6 0
BBX 7 9 0 0
BITMAP
0DA0
0DA0
0000
0B40
2EC0
75C0
B2C8
7BEC
3DE0
ENDCHAR
STARTCHAR uni04D4
ENCODING 1236
SWIDTH 1015 0
DWIDTH 12 0
BBX 14 11 0 0
BITMAP
006CBF80
02E9E540
0B42C000
1D038000
3C078000
3807FF00
780B9500
740F0000
782F4010
2EB7E6E0
0BD1BE40
ENDCHAR
STARTCHAR uni04D5
ENCODING 1237
SWIDTH 653 0
DWIDTH 8 0
BBX 10 6 0 0
BITMAP
0BAD00
2EEA00
75CA00
B2F890
7BE6C0
2D7E00
ENDCHAR
STARTCHAR uni04D6
ENCODING 1238
SWIDTH 686 0
DWIDTH 8 0
BBX 10 14 0 0
BITMAP
000100
01D700
00BD00
02FD00
0B9B40
1E0380
1D0340
0E4100
0BE000
2E4000
740000
B40000
7E5AE0
1BFE40
ENDCHAR
STARTCHAR uni04D7
ENCODING 1239
SWIDTH 393 0
DWIDTH 5 0
BBX 7 10 0 0
BITMAP
0050
35D0
2F80
0400
1F40
7B80
B340
BD24
79F0
2F80
ENDCHAR
STARTCHAR uni04D8
ENCODING 1240
SWIDTH 792 0
DWIDTH 10 0
BBX 10 11 0 0
BITMAP
06F900
1E5F40
1403C0
0002D0
0002D0
3FFFD0
7957C0
780380
3C0B40
1E6E00
07E400
ENDCHAR
STARTCHAR uni04D9
ENCODING 1241
SWIDTH 455 0
DWIDTH 5 0
BBX 7 6 0 0
BITMAP
2F40
16D4
7FFC
A5D0
B6C0
2E40
ENDCHAR
STARTCHAR uni04DA
ENCODING 1242
SWIDTH 792 0
DWIDTH 10 0
BBX 10 14 0 0
BITMAP
01CE00
01CE00
000000
06F900
1E5F40
1403C0
0002D0
0002D0
3FFFD0
7957C0
780380
3C0B40
1E6E00
07E400
ENDCHAR
STARTCHAR uni04DB
ENCODING 1243
SWIDTH 455 0
DWIDTH 5 0
BBX 7 9 0 0
BITMAP
28D0
29D0
0000
2F40
16D4
7FFC
A5D0
B6C0
2E40
ENDCHAR
STARTCHAR uni04DC
ENCODING 1244
SWIDTH 1234 0
DWIDTH 15 0
BBX 16 14 0 0
BITMAP
00039C00
00029C00
00000000
0BD0A07D
09E0E0EA
0070E2C0
0035D380
0029EF00
001FF800
007AED00
00E38E00
52D38B42
B78383DA
3E0341F8
ENDCHAR
STARTCHAR uni04DD
ENCODING 1245
SWIDTH 717 0
DWIDTH 9 0
BBX 10 9 0 0
BITMAP
028D00
028D00
000000
2D9780
3BEEC0
03E880
67F820
AAEDA0
78CB80
ENDCHAR
STARTCHAR uni04DE
ENCODING 1246
SWIDTH 725 0
DWIDTH 9 0
BBX 9 14 0 0
BITMAP
01CE00
01CE00
000000
02F800
0F5E00
1D0A00
1C0E00
002C00
02FD00
014B00
340B40
740F00
3D6D00
1BE400
ENDCHAR
STARTCHAR uni04DF
ENCODING 1247
SWIDTH 435 0
DWIDTH 5 0
BBX 8 15 -1 -6
BITMAP
0D70
0DA0
0000
0BD0
09A0
00A0
0685
1E2D
0BE0
07C0
1E80
3680
6340
6B00
7900
ENDCHAR
STARTCHAR uni04E0
ENCODING 1248
SWIDTH 744 0
DWIDTH 9 0
BBX 9 11 0 0
BITMAP
06FE80
0E5BC0
1C0B40
0D0E00
002C00
02FD00
014B00
340B40
740F00
3D6D00
1BE400
ENDCHAR
STARTCHAR uni04E1
ENCODING 1249
SWIDTH 435 0
DWIDTH 5 0
BBX 8 12 -1 -6
BITMAP
1FF8
06F4
0780
0D09
1E6C
07E0
0780
1E80
3680
6340
6B00
7800
ENDCHAR
STARTCHAR uni04E2
ENCODING 1250
SWIDTH 890 0
DWIDTH 11 0
BBX 12 13 0 0
BITMAP
007F40
001500
1F4070
7780B0
C380F0
0380E0
0741E0
0B42D0
0B03D0
0E07C0
0E0EC2
0FB5EB
07D0B8
ENDCHAR
STARTCHAR uni04E3
ENCODING 1251
SWIDTH 462 0
DWIDTH 6 0
BBX 7 8 0 0
BITMAP
1FD0
0540
28D0
35C0
72C0
7788
7FA8
39E0
ENDCHAR
STARTCHAR uni04E4
ENCODING 1252
SWIDTH 890 0
DWIDTH 11 0
BBX 12 14 0 0
BITMAP
007380
007380
000000
1F4070
7780B0
C380F0
0380E0
0741E0
0B42D0
0B03D0
0E07C0
0E0EC2
0FB5EB
07D0B8
ENDCHAR
STARTCHAR uni04E5
ENCODING 1253
SWIDTH 462 0
DWIDTH 6 0
BBX 7 9 0 0
BITMAP
1CA0
1CA0
0000
28D0
35C0
72C0
7788
7FA8
39E0
ENDCHAR
STARTCHAR uni04E6
ENCODING 1254
SWIDTH 816 0
DWIDTH 10 0
BBX 10 14 0 0
BITMAP
00D700
00D700
000000
01BE00
079B80
1E02D0
2C01D0
3801E0
3801D0
7801D0
3802C0
3C0780
1E6E00
06F400
ENDCHAR
STARTCHAR uni04E7
ENCODING 1255
SWIDTH 451 0
DWIDTH 5 0
BBX 7 9 0 0
BITMAP
28D0
29D0
0000
1F40
7BD4
B2FC
B1D0
7A80
2E00
ENDCHAR
STARTCHAR uni04E8
ENCODING 1256
SWIDTH 816 0
DWIDTH 10 0
BBX 10 11 0 0
BITMAP
01BE00
079B80
1E02D0
2C01D0
3801E0
3FFFD0
7956D0
3802C0
3C0780
1E6E00
06F400
ENDCHAR
STARTCHAR uni04E9
ENCODING 1257
SWIDTH 451 0
DWIDTH 5 0
BBX 7 6 0 0
BITMAP
1F40
7AD4
BFFC
B6D0
7A80
2E00
ENDCHAR
STARTCHAR uni04EA
ENCODING 1258
SWIDTH 816 0
DWIDTH 10 0
BBX 10 14 0 0
BITMAP
00D700
00D700
000000
01BE00
079B80
1E02D0
2C01D0
3801E0
3FFFD0
7956D0
3802C0
3C0780
1E6E00
06F400
ENDCHAR
STARTCHAR uni04EB
ENCODING 1259
SWIDTH 451 0
DWIDTH 5 0
BBX 7 9 0 0
BITMAP
28D0
29D0
0000
1F40
7AD4
BFFC
B6D0
7A80
2E00
ENDCHAR
STARTCHAR uni04EC
ENCODING 1260
SWIDTH 755 0
DWIDTH 9 0
BBX 9 14 0 0
BITMAP
01CE00
01CD00
000000
06F800
1E6F00
240B40
000380
000380
07FF80
015780
200740
700F00
797D00
1FE000
ENDCHAR
STARTCHAR uni04ED
ENCODING 1261
SWIDTH 466 0
DWIDTH 6 0
BBX 7 9 0 0
BITMAP
1CD0
1CD0
0000
2F80
16D4
0BFC
61D0
76C0
2E40
ENDCHAR
STARTCHAR uni04EE
ENCODING 1262
SWIDTH 824 0
DWIDTH 10 0
BBX 12 17 0 -4
BITMAP
00BF00
001500
1F40A0
7780F0
0380E0
0741E0
0B43D0
0B5ED0
03F9C4
0042FD
001BE4
00BF80
02E340
038740
039A00
02F800
005000
ENDCHAR
STARTCHAR uni04EF
ENCODING 1263
SWIDTH 479 0
DWIDTH 6 0
BBX 7 14 0 -6
BITMAP
1FD0
0540
28D0
35C0
72C0
7788
7FF8
3AD0
0B40
2F00
6700
DA00
ED00
B400
ENDCHAR
STARTCHAR uni04F0
ENCODING 1264
SWIDTH 824 0
DWIDTH 10 0
BBX 12 18 0 -4
BITMAP
00B340
00B340
000000
1F40A0
7780F0
0380E0
0741E0
0B43D0
0B5ED0
03F9C4
0042FD
001BE4
00BF80
02E340
038740
039A00
02F800
005000
ENDCHAR
STARTCHAR uni04F1
ENCODING 1265
SWIDTH 479 0
DWIDTH 6 0
BBX 7 15 0 -6
BITMAP
1CA0
1CA0
0000
28D0
35C0
72C0
7788
7FF8
3AD0
0B40
2F00
6700
DA00
ED00
B400
ENDCHAR
STARTCHAR uni04F2
ENCODING 1266
SWIDTH 824 0
DWIDTH 10 0
BBX 12 19 0 -4
BITMAP
002580
003680
002300
000000
1F40A0
7780F0
0380E0
0741E0
0B43D0
0B5ED0
03F9C4
0042FD
001BE4
00BF80
02E340
038740
039A00
02F800
005000
ENDCHAR
STARTCHAR uni04F3
ENCODING 1267
SWIDTH 479 0
DWIDTH 6 0
BBX 7 17 0 -6
BITMAP
0374
0774
0AA0
0890
0000
28D0
35C0
72C0
7788
7FF8
3AD0
0B40
2F00
6700
DA00
ED00
B400
ENDCHAR
STARTCHAR uni04F4
ENCODING 1268
SWIDTH 773 0
DWIDTH 9 0
BBX 8 14 1 0
BITMAP
0738
0738
0000
340A
380A
780E
741E
B42D
B07D
7EED
2F5C
002C
002C
0028
ENDCHAR
STARTCHAR uni04F5
ENCODING 1269
SWIDTH 555 0
DWIDTH 7 0
BBX 8 9 0 0
BITMAP
028D
029D
0B40
0EF8
1CB4
26D0
7342
D39E
02F8
ENDCHAR
STARTCHAR uni04F6
ENCODING 1270
SWIDTH 600 0
DWIDTH 7 0
BBX 11 16 0 -5
BITMAP
0AFFF4
3EE550
B1D000
72D000
12C000
03C000
038000
038000
074000
078000
07D000
0BD000
2DC000
3A8000
3F4000
040000
ENDCHAR
STARTCHAR uni04F7
ENCODING 1271
SWIDTH 441 0
DWIDTH 5 0
BBX 7 10 0 -4
BITMAP
2F00
2740
0A00
7400
B5B4
7FE0
0B40
2B40
7700
3D00
ENDCHAR
STARTCHAR uni04F8
ENCODING 1272
SWIDTH 1078 0
DWIDTH 13 0
BBX 13 14 0 0
BITMAP
001DA000
001DA000
00000000
06000340
0F000740
0E000740
1D000740
1FFD0B00
7E5B4B00
7C074E00
2C074E00
2C0B1D00
1E6E1D00
07E41D00
ENDCHAR
STARTCHAR uni04F9
ENCODING 1273
SWIDTH 702 0
DWIDTH 8 0
BBX 10 9 0 0
BITMAP
029C00
029C00
000000
280700
340B00
7BDE00
79FE20
7ADEA0
1F4780
ENDCHAR
STARTCHAR uni04FA
ENCODING 1274
SWIDTH 635 0
DWIDTH 8 0
BBX 12 16 -1 -5
BITMAP
02BFFD
0FB954
2C7400
2CB400
08B000
03FD00
01E400
00E000
01D000
01D000
02C000
02C000
038000
A74000
BE0000
100000
ENDCHAR
STARTCHAR uni04FB
ENCODING 1275
SWIDTH 441 0
DWIDTH 5 0
BBX 7 10 0 -4
BITMAP
2F00
2740
5B00
7E00
B5B4
7FE0
0B40
2B40
7700
3D00
ENDCHAR
STARTCHAR uni04FC
ENCODING 1276
SWIDTH 716 0
DWIDTH 9 0
BBX 10 16 0 -5
BITMAP
2F41C0
A78780
42DE00
01FC00
00F400
01F000
07F400
0F7400
2D3810
B42EB0
E00F80
002F00
00AB00
01DE00
00FC00
001000
ENDCHAR
STARTCHAR uni04FD
ENCODING 1277
SWIDTH 601 0
DWIDTH 7 0
BBX 9 10 0 -4
BITMAP
2DB400
3BE400
034000
674000
AB9640
7AFE00
00B400
02B000
076000
07D000
ENDCHAR
STARTCHAR uni04FE
ENCODING 1278
SWIDTH 712 0
DWIDTH 9 0
BBX 10 11 0 0
BITMAP
2E01C0
A78780
82CF00
01FD00
00F800
0FFE00
07F400
0BB400
2D3810
782DB0
E00B80
ENDCHAR
STARTCHAR uni04FF
ENCODING 1279
SWIDTH 529 0
DWIDTH 6 0
BBX 8 6 0 0
BITMAP
2DB4
3BA4
1FD0
A786
AB9D
79F4
ENDCHAR
STARTCHAR uni0510
ENCODING 1296
SWIDTH 706 0
DWIDTH 8 0
BBX 8 11 0 0
BITMAP
02F8
0B5E
0D0B
0D06
0B00
1FE0
3850
7406
780B
3E6E
0BF4
ENDCHAR
STARTCHAR uni0511
ENCODING 1297
SWIDTH 392 0
DWIDTH 5 0
BBX 6 6 0 0
BITMAP
2F40
3A40
3D00
B430
B6E0
7F40
ENDCHAR
STARTCHAR uni0512
ENCODING 1298
SWIDTH 884 0
DWIDTH 11 0
BBX 12 16 0 -5
BITMAP
000740
000B80
000F40
001F40
002F40
003B40
007740
00A380
91D380
B782EB
2E01FD
0002F0
000B70
000DA0
000FC0
000100
ENDCHAR
STARTCHAR uni0513
ENCODING 1299
SWIDTH 631 0
DWIDTH 8 0
BBX 9 11 0 -5
BITMAP
01D000
02D000
03D000
9AD000
EDE680
B4BE00
007800
01A400
037400
02E000
004000
ENDCHAR
STARTCHAR uni051A
ENCODING 1306
SWIDTH 816 0
DWIDTH 10 0
BBX 11 16 0 -5
BITMAP
01BE00
079B80
1E02D0
2C01D0
3801E0
3801E0
7801D0
3802C0
3C0780
1E6F00
07F800
00B400
003C04
002E64
000BE0
000140
ENDCHAR
STARTCHAR uni051B
ENCODING 1307
SWIDTH 500 0
DWIDTH 6 0
BBX 8 12 0 -5
BITMAP
0050
0BE0
2ED0
75C0
B280
7BBD
3F74
0370
0770
0770
03E0
02C0
ENDCHAR
STARTCHAR uni051C
ENCODING 1308
SWIDTH 1217 0
DWIDTH 15 0
BBX 16 11 1 0
BITMAP
340702D0
740B0AB0
740F0DB0
740F0DA0
B41E07E0
B02E02FD
B43E0394
747B0740
78D70E00
3FC3FC00
1E02E000
ENDCHAR
STARTCHAR uni051D
ENCODING 1309
SWIDTH 700 0
DWIDTH 8 0
BBX 10 6 0 0
BITMAP
71C700
72CB50
77CFF0
7AED40
7DF800
38A000
ENDCHAR
STARTCHAR uni0524
ENCODING 1316
SWIDTH 892 0
DWIDTH 11 0
BBX 13 16 0 -5
BITMAP
06FFFA00
3EE5BA00
71D0B000
71D0F000
12C0E000
02C1D000
0381D000
0382C000
0782D000
0741FB40
07407D00
0002F400
000B7000
000EA000
000FD000
00010000
ENDCHAR
STARTCHAR uni0525
ENCODING 1317
SWIDTH 536 0
DWIDTH 6 0
BBX 8 10 0 -4
BITMAP
25D0
3BD0
7DD0
79C0
75EA
70F8
02E0
0AD0
0DC0
0F40
ENDCHAR
STARTCHAR uni0526
ENCODING 1318
SWIDTH 818 0
DWIDTH 10 0
BBX 11 16 1 -5
BITMAP
1C0000
2C0000
380000
380000
740000
76F800
BE6D00
B81D00
F02D00
E02FB4
E01FD0
001F40
007700
00EA00
00FD00
001000
ENDCHAR
STARTCHAR uni0527
ENCODING 1319
SWIDTH 542 0
DWIDTH 7 0
BBX 8 17 0 -5
BITMAP
0780
0EC0
1CC0
2980
3A40
3A00
7DD0
77E0
79D0
79D0
79EA
70B8
02E0
0A90
0DC0
0F40
0100
ENDCHAR
STARTCHAR uni0528
ENCODING 1320
SWIDTH 873 0
DWIDTH 10 0
BBX 14 16 -2 -5
BITMAP
02F407C0
0A780E90
08381C90
003829C0
00783F80
02FFFE00
00B47400
00B07400
00E03420
00E02DA0
01D01F80
01D00000
02C00000
77800000
7F000000
04000000
ENDCHAR
STARTCHAR uni0529
ENCODING 1321
SWIDTH 475 0
DWIDTH 6 0
BBX 10 11 -2 -5
BITMAP
024900
035D00
07FC00
076C90
072E80
071E00
070000
070000
770000
3E0000
040000
ENDCHAR
STARTCHAR uni052E
ENCODING 1326
SWIDTH 884 0
DWIDTH 11 0
BBX 12 16 0 -5
BITMAP
000740
000B80
000F40
001F40
002F40
003B40
007740
00A380
91D380
B782EB
2E01FD
0002F0
000B70
000DA0
000FC0
000100
ENDCHAR
STARTCHAR uni052F
ENCODING 1327
SWIDTH 631 0
DWIDTH 8 0
BBX 9 11 0 -5
BITMAP
01D000
02D000
03D000
9AD000
EDE680
B4BE00
007800
01A400
037400
02E000
004000
ENDCHAR
STARTCHAR Wgrave
ENCODING 7808
SWIDTH 1217 0
DWIDTH 15 0
BBX 16 15 1 0
BITMAP
00A00000
00780000
000A0000
00000000
340702D0
740B0AB0
740F0DB0
740F0DA0
B41E07E0
B02E02FD
B43E0394
747B0740
78D70E00
3FC3FC00
1E02E000
ENDCHAR
STARTCHAR wgrave
ENCODING 7809
SWIDTH 700 0
DWIDTH 8 0
BBX 10 11 0 0
BITMAP
060000
074000
028000
008000
000000
71C700
72CB50
77CFF0
7AED40
7DF800
38A000
ENDCHAR
STARTCHAR Wacute
ENCODING 7810
SWIDTH 1217 0
DWIDTH 15 0
BBX 16 15 1 0
BITMAP
00002400
0001F400
00028000
00000000
340702D0
740B0AB0
740F0DB0
740F0DA0
B41E07E0
B02E02FD
B43E0394
747B0740
78D70E00
3FC3FC00
1E02E000
ENDCHAR
STARTCHAR wacute
ENCODING 7811
SWIDTH 700 0
DWIDTH 8 0
BBX 10 11 0 0
BITMAP
002800
003800
006000
009000
000000
71C700
72CB50
77CFF0
7AED40
7DF800
38A000
ENDCHAR
STARTCHAR Wdieresis
ENCODING 7812
SWIDTH 1217 0
DWIDTH 15 0
BBX 16 14 1 0
BITMAP
001CE000
001CE000
00000000
340702D0
740B0AB0
740F0DB0
740F0DA0
B41E07E0
B02E02FD
B43E0394
747B0740
78D70E00
3FC3FC00
1E02E000
ENDCHAR
STARTCHAR wdieresis
ENCODING 7813
SWIDTH 700 0
DWIDTH 8 0
BBX 10 9 0 0
BITMAP
076800
072800
000000
71C700
72CB50
77CFF0
7AED40
7DF800
38A000
ENDCHAR
STARTCHAR uni1E9E
ENCODING 7838
SWIDTH 843 0
DWIDTH 10 0
BBX 9 12 1 -1
BITMAP
2C6E00
39DB80
3B0380
7D0B40
7C7D00
B8FD00
B40B40
B00740
F00740
E01F00
D1F800
005000
ENDCHAR
STARTCHAR uni1EA0
ENCODING 7840
SWIDTH 786 0
DWIDTH 9 0
BBX 11 14 0 -3
BITMAP
006FE0
02EAA0
0B4240
1D0380
2C0740
380740
740B00
740F00
782F08
2EBBA8
0B92E0
000000
02D000
02D000
ENDCHAR
STARTCHAR uni1EA1
ENCODING 7841
SWIDTH 470 0
DWIDTH 6 0
BBX 7 9 0 -3
BITMAP
0B40
2EC0
75C0
B2C8
7BEC
3DE0
0000
2D00
2D00
ENDCHAR
STARTCHAR uni1EA2
ENCODING 7842
SWIDTH 786 0
DWIDTH 9 0
BBX 11 15 0 0
BITMAP
000B80
0006C0
000780
000100
006FE0
02EAA0
0B4240
1D0380
2C0740
380740
740B00
740F00
782F08
2EBBA8
0B92E0
ENDCHAR
STARTCHAR uni1EA3
ENCODING 7843
SWIDTH 470 0
DWIDTH 6 0
BBX 7 10 0 0
BITMAP
07D0
01D0
03C0
0100
0B40
2EC0
75C0
B2C8
7BEC
3DE0
ENDCHAR
STARTCHAR uni1EA4
ENCODING 7844
SWIDTH 786 0
DWIDTH 9 0
BBX 11 18 0 0
BITMAP
000028
0000B4
000380
000B80
001DC0
0024D0
000000
006FE0
02EAA0
0B4240
1D0380
2C0740
380740
740B00
740F00
782F08
2EBBA8
0B92E0
ENDCHAR
STARTCHAR uni1EA5
ENCODING 7845
SWIDTH 470 0
DWIDTH 6 0
BBX 8 12 0 0
BITMAP
0004
001D
0150
0AD0
1CA0
0000
0B40
2EC0
75C0
B2C8
7BEC
3DE0
ENDCHAR
STARTCHAR uni1EA6
ENCODING 7846
SWIDTH 786 0
DWIDTH 9 0
BBX 11 18 0 0
BITMAP
006000
007D00
000B00
000B80
001DC0
0024D0
000000
006FE0
02EAA0
0B4240
1D0380
2C0740
380740
740B00
740F00
782F08
2EBBA8
0B92E0
ENDCHAR
STARTCHAR uni1EA7
ENCODING 7847
SWIDTH 470 0
DWIDTH 6 0
BBX 7 12 0 0
BITMAP
1000
7400
0540
0AD0
1CA0
0000
0B40
2EC0
75C0
B2C8
7BEC
3DE0
ENDCHAR
STARTCHAR uni1EA8
ENCODING 7848
SWIDTH 786 0
DWIDTH 9 0
BBX 11 18 0 0
BITMAP
0007D0
0001D0
0003D0
000B80
001DC0
0024D0
000000
006FE0
02EAA0
0B4240
1D0380
2C0740
380740
740B00
740F00
782F08
2EBBA8
0B92E0
ENDCHAR
STARTCHAR uni1EA9
ENCODING 7849
SWIDTH 470 0
DWIDTH 6 0
BBX 8 11 0 0
BITMAP
002D
001A
03ED
0AE4
1860
0B40
2EC0
75C0
B2C8
7BEC
3DE0
ENDCHAR
STARTCHAR uni1EAA
ENCODING 7850
SWIDTH 786 0
DWIDTH 9 0
BBX 11 18 0 0
BITMAP
000510
001F74
0026E0
000B80
001DC0
0024D0
000000
006FE0
02EAA0
0B4240
1D0380
2C0740
380740
740B00
740F00
782F08
2EBBA8
0B92E0
ENDCHAR
STARTCHAR uni1EAB
ENCODING 7851
SWIDTH 470 0
DWIDTH 6 0
BBX 7 12 0 0
BITMAP
0B64
0DA0
0280
0AD0
1CA0
0000
0B40
2EC0
75C0
B2C8
7BEC
3DE0
ENDCHAR
STARTCHAR uni1EAC
ENCODING 7852
SWIDTH 786 0
DWIDTH 9 0
BBX 11 19 0 -3
BITMAP
000100
000B80
001DC0
0024D0
000000
006FE0
02EAA0
0B4240
1D0380
2C0740
380740
740B00
740F00
782F08
2EBBA8
0B92E0
000000
02D000
02D000
ENDCHAR
STARTCHAR uni1EAD
ENCODING 7853
SWIDTH 470 0
DWIDTH 6 0
BBX 7 14 0 -3
BITMAP
02C0
07D0
0DA0
1CA0
0000
0B40
2EC0
75C0
B2C8
7BEC
3DE0
0000
2D00
2D00
ENDCHAR
STARTCHAR uni1EAE
ENCODING 7854
SWIDTH 786 0
DWIDTH 9 0
BBX 11 16 0 0
BITMAP
0000D0
000280
0034A0
002FD0
000100
006FE0
02EAA0
0B4240
1D0380
2C0740
380740
740B00
740F00
782F08
2EBBA8
0B92E0
ENDCHAR
STARTCHAR uni1EAF
ENCODING 7855
SWIDTH 470 0
DWIDTH 6 0
BBX 7 11 0 0
BITMAP
00A0
0190
2D74
1FE0
0140
0B40
2EC0
75C0
B2C8
7BEC
3DE0
ENDCHAR
STARTCHAR uni1EB0
ENCODING 7856
SWIDTH 786 0
DWIDTH 9 0
BBX 11 16 0 0
BITMAP
001C00
000A00
0034A0
002FD0
000100
006FE0
02EAA0
0B4240
1D0380
2C0740
380740
740B00
740F00
782F08
2EBBA8
0B92E0
ENDCHAR
STARTCHAR uni1EB1
ENCODING 7857
SWIDTH 470 0
DWIDTH 6 0
BBX 7 11 0 0
BITMAP
0A00
0640
2C74
0FE0
0100
0B40
2EC0
75C0
B2C8
7BEC
3DE0
ENDCHAR
STARTCHAR uni1EB2
ENCODING 7858
SWIDTH 786 0
DWIDTH 9 0
BBX 11 17 0 0
BITMAP
000B40
000680
000740
0039A0
002FD0
000500
006FE0
02EAA0
0B4240
1D0380
2C0740
380740
740B00
740F00
782F08
2EBBA8
0B92E0
ENDCHAR
STARTCHAR uni1EB3
ENCODING 7859
SWIDTH 470 0
DWIDTH 6 0
BBX 7 12 0 0
BITMAP
03C0
01C0
02C0
2D74
1FE0
0140
0B40
2EC0
75C0
B2C8
7BEC
3DE0
ENDCHAR
STARTCHAR uni1EB4
ENCODING 7860
SWIDTH 786 0
DWIDTH 9 0
BBX 11 17 0 0
BITMAP
000920
002FA0
002190
0034A0
002FD0
000100
006FE0
02EAA0
0B4240
1D0380
2C0740
380740
740B00
740F00
782F08
2EBBA8
0B92E0
ENDCHAR
STARTCHAR uni1EB5
ENCODING 7861
SWIDTH 470 0
DWIDTH 6 0
BBX 7 12 0 0
BITMAP
0614
0EF4
1860
2C74
0FE0
0100
0B40
2EC0
75C0
B2C8
7BEC
3DE0
ENDCHAR
STARTCHAR uni1EB6
ENCODING 7862
SWIDTH 786 0
DWIDTH 9 0
BBX 11 17 0 -3
BITMAP
0034A0
002FD0
000500
006FE0
02EAA0
0B4240
1D0380
2C0740
380740
740B00
740F00
782F08
2EBBA8
0B92E0
000000
02D000
02D000
ENDCHAR
STARTCHAR uni1EB7
ENCODING 7863
SWIDTH 470 0
DWIDTH 6 0
BBX 7 13 0 -3
BITMAP
1420
2D74
0FE0
0100
0B40
2EC0
75C0
B2C8
7BEC
3DE0
0000
2D00
2D00
ENDCHAR
STARTCHAR uni1EB8
ENCODING 7864
SWIDTH 686 0
DWIDTH 8 0
BBX 10 14 0 -3
BITMAP
02FD00
0B9B40
1E0380
1D0340
0E4100
0BE000
2E4000
740000
B40000
7E5AE0
1BFE40
000000
02D000
02C000
ENDCHAR
STARTCHAR uni1EB9
ENCODING 7865
SWIDTH 393 0
DWIDTH 5 0
BBX 7 9 0 -3
BITMAP
1F40
7B80
B340
BD24
79F0
2F80
0000
1D00
1D00
ENDCHAR
STARTCHAR uni1EBA
ENCODING 7866
SWIDTH 686 0
DWIDTH 8 0
BBX 10 15 0 0
BITMAP
007D00
001D00
003D00
001000
02FD00
0B9B40
1E0380
1D0340
0E4100
0BE000
2E4000
740000
B40000
7E5AE0
1BFE40
ENDCHAR
STARTCHAR uni1EBB
ENCODING 7867
SWIDTH 393 0
DWIDTH 5 0
BBX 7 10 0 0
BITMAP
0B80
06C0
0780
0100
1F40
7B80
B340
BD24
79F0
2F80
ENDCHAR
STARTCHAR uni1EBC
ENCODING 7868
SWIDTH 686 0
DWIDTH 8 0
BBX 10 15 0 0
BITMAP
005140
01F740
025E00
000000
02FD00
0B9B40
1E0380
1D0340
0E4100
0BE000
2E4000
740000
B40000
7E5AE0
1BFE40
ENDCHAR
STARTCHAR uni1EBD
ENCODING 7869
SWIDTH 393 0
DWIDTH 5 0
BBX 7 10 0 0
BITMAP
0410
2EA0
32D0
0000
1F40
7B80
B340
BD24
79F0
2F80
ENDCHAR
STARTCHAR uni1EBE
ENCODING 7870
SWIDTH 686 0
DWIDTH 8 0
BBX 10 17 0 0
BITMAP
000040
0001D0
001500
00AD00
01CA00
000000
02FD00
0B9B40
1E0380
1D0340
0E4100
0BE000
2E4000
740000
B40000
7E5AE0
1BFE40
ENDCHAR
STARTCHAR uni1EBF
ENCODING 7871
SWIDTH 393 0
DWIDTH 5 0
BBX 7 12 0 0
BITMAP
0004
0028
0150
0E80
28C0
0000
1F40
7B80
B340
BD24
79F0
2F80
ENDCHAR
STARTCHAR uni1EC0
ENCODING 7872
SWIDTH 686 0
DWIDTH 8 0
BBX 10 17 0 0
BITMAP
010000
074000
005400
00AD00
01CA00
000000
02FD00
0B9B40
1E0380
1D0340
0E4100
0BE000
2E4000
740000
B40000
7E5AE0
1BFE40
ENDCHAR
STARTCHAR uni1EC1
ENCODING 7873
SWIDTH 393 0
DWIDTH 5 0
BBX 7 12 0 0
BITMAP
4000
B000
1500
0E80
28C0
0000
1F40
7B80
B340
BD24
79F0
2F80
ENDCHAR
STARTCHAR uni1EC2
ENCODING 7874
SWIDTH 686 0
DWIDTH 8 0
BBX 10 16 0 0
BITMAP
0002D0
0001A0
003ED0
00AE00
018500
02FD00
0B9B40
1E0380
1D0340
0E4100
0BE000
2E4000
740000
B40000
7E5AE0
1BFE40
ENDCHAR
STARTCHAR uni1EC3
ENCODING 7875
SWIDTH 393 0
DWIDTH 5 0
BBX 7 11 0 0
BITMAP
0078
002C
0B78
1ED0
2480
1F40
7B80
B340
BD24
79F0
2F80
ENDCHAR
STARTCHAR uni1EC4
ENCODING 7876
SWIDTH 686 0
DWIDTH 8 0
BBX 10 17 0 0
BITMAP
00B640
00DA00
002800
00AD00
01CA00
000000
02FD00
0B9B40
1E0380
1D0340
0E4100
0BE000
2E4000
740000
B40000
7E5AE0
1BFE40
ENDCHAR
STARTCHAR uni1EC5
ENCODING 7877
SWIDTH 393 0
DWIDTH 5 0
BBX 7 12 0 0
BITMAP
0E60
2AD0
0640
1EC0
28C0
0000
1F40
7B80
B340
BD24
79F0
2F80
ENDCHAR
STARTCHAR uni1EC6
ENCODING 7878
SWIDTH 686 0
DWIDTH 8 0
BBX 10 19 0 -3
BITMAP
001400
007C00
00EA00
01C600
000000
02FD00
0B9B40
1E0380
1D0340
0E4100
0BE000
2E4000
740000
B40000
7E5AE0
1BFE40
000000
02D000
02C000
ENDCHAR
STARTCHAR uni1EC7
ENCODING 7879
SWIDTH 393 0
DWIDTH 5 0
BBX 7 14 0 -3
BITMAP
0740
0A80
1DC0
24C0
0000
1F40
7B80
B340
BD24
79F0
2F80
0000
1D00
1D00
ENDCHAR
STARTCHAR uni1EC8
ENCODING 7880
SWIDTH 495 0
DWIDTH 6 0
BBX 7 15 0 0
BITMAP
02E0
01B0
01E0
0040
2FF8
1790
0780
0740
0740
0B00
0B00
0E00
0E00
5E40
FFC0
ENDCHAR
STARTCHAR uni1EC9
ENCODING 7881
SWIDTH 246 0
DWIDTH 3 0
BBX 5 10 0 0
BITMAP
3D00
1A00
2D00
0000
2400
3400
7400
7140
7B40
3D00
ENDCHAR
STARTCHAR uni1ECA
ENCODING 7882
SWIDTH 495 0
DWIDTH 6 0
BBX 7 14 0 -3
BITMAP
2FF8
1790
0780
0740
0740
0B00
0B00
0E00
0E00
5E40
FFC0
0000
1D00
1D00
ENDCHAR
STARTCHAR uni1ECB
ENCODING 7883
SWIDTH 246 0
DWIDTH 3 0
BBX 5 11 0 -3
BITMAP
2D00
0400
2400
3400
7400
7140
7B40
3D00
0000
B000
B000
ENDCHAR
STARTCHAR uni1ECC
ENCODING 7884
SWIDTH 816 0
DWIDTH 10 0
BBX 10 14 0 -3
BITMAP
01BE00
079B80
1E02D0
2C01D0
3801E0
3801D0
7801D0
3802C0
3C0780
1E6E00
06F400
000000
02D000
02D000
ENDCHAR
STARTCHAR uni1ECD
ENCODING 7885
SWIDTH 451 0
DWIDTH 5 0
BBX 7 9 0 -3
BITMAP
1F40
7BD4
B2FC
B1D0
7A80
2E00
0000
1D00
1D00
ENDCHAR
STARTCHAR uni1ECE
ENCODING 7886
SWIDTH 816 0
DWIDTH 10 0
BBX 10 15 0 0
BITMAP
003D00
001A00
002D00
000000
01BE00
079B80
1E02D0
2C01D0
3801E0
3801D0
7801D0
3802C0
3C0780
1E6E00
06F400
ENDCHAR
STARTCHAR uni1ECF
ENCODING 7887
SWIDTH 451 0
DWIDTH 5 0
BBX 7 10 0 0
BITMAP
0B80
06C0
0780
0100
1F40
7BD4
B2FC
B1D0
7A80
2E00
ENDCHAR
STARTCHAR uni1ED0
ENCODING 7888
SWIDTH 816 0
DWIDTH 10 0
BBX 10 16 0 0
BITMAP
000050
0001D0
001540
007D00
00D600
01BE00
079B80
1E02D0
2C01D0
3801E0
3801D0
7801D0
3802C0
3C0780
1E6E00
06F400
ENDCHAR
STARTCHAR uni1ED1
ENCODING 7889
SWIDTH 451 0
DWIDTH 5 0
BBX 7 12 0 0
BITMAP
0004
0038
0150
0E80
28C0
0000
1F40
7BD4
B2FC
B1D0
7A80
2E00
ENDCHAR
STARTCHAR uni1ED2
ENCODING 7890
SWIDTH 816 0
DWIDTH 10 0
BBX 10 16 0 0
BITMAP
010000
038000
005400
007D00
00D600
01BE00
079B80
1E02D0
2C01D0
3801E0
3801D0
7801D0
3802C0
3C0780
1E6E00
06F400
ENDCHAR
STARTCHAR uni1ED3
ENCODING 7891
SWIDTH 451 0
DWIDTH 5 0
BBX 7 12 0 0
BITMAP
4000
B000
1500
0E80
28C0
0000
1F40
7BD4
B2FC
B1D0
7A80
2E00
ENDCHAR
STARTCHAR uni1ED4
ENCODING 7892
SWIDTH 816 0
DWIDTH 10 0
BBX 10 15 0 0
BITMAP
0002D0
0001A0
002DD0
00BE40
01FF00
079B80
1E02D0
2C01D0
3801E0
3801D0
7801D0
3802C0
3C0780
1E6E00
06F400
ENDCHAR
STARTCHAR uni1ED5
ENCODING 7893
SWIDTH 451 0
DWIDTH 5 0
BBX 7 11 0 0
BITMAP
0078
002C
0B78
1ED0
2480
1F40
7BD4
B2FC
B1D0
7A80
2E00
ENDCHAR
STARTCHAR uni1ED6
ENCODING 7894
SWIDTH 816 0
DWIDTH 10 0
BBX 10 16 0 0
BITMAP
007540
009B00
001800
007E00
00D600
01BE00
079B80
1E02D0
2C01D0
3801E0
3801D0
7801D0
3802C0
3C0780
1E6E00
06F400
ENDCHAR
STARTCHAR uni1ED7
ENCODING 7895
SWIDTH 451 0
DWIDTH 5 0
BBX 7 12 0 0
BITMAP
0E60
26D0
0640
1EC0
28C0
0000
1F40
7BD4
B2FC
B1D0
7A80
2E00
ENDCHAR
STARTCHAR uni1ED8
ENCODING 7896
SWIDTH 816 0
DWIDTH 10 0
BBX 10 19 0 -3
BITMAP
001400
003D00
00AA00
00D600
000000
01BE00
079B80
1E02D0
2C01D0
3801E0
3801D0
7801D0
3802C0
3C0780
1E6E00
06F400
000000
02D000
02D000
ENDCHAR
STARTCHAR uni1ED9
ENCODING 7897
SWIDTH 451 0
DWIDTH 5 0
BBX 7 14 0 -3
BITMAP
0740
0A80
1DC0
24C0
0000
1F40
7BD4
B2FC
B1D0
7A80
2E00
0000
1D00
1D00
ENDCHAR
STARTCHAR uni1EDA
ENCODING 7898
SWIDTH 816 0
DWIDTH 10 0
BBX 11 15 0 0
BITMAP
000280
000B80
001934
000074
01BFE0
079BC0
1E02D0
2C01D0
3801E0
3801D0
7801D0
3802C0
3C0780
1E6E00
06F400
ENDCHAR
STARTCHAR uni1EDB
ENCODING 7899
SWIDTH 451 0
DWIDTH 5 0
BBX 7 11 0 0
BITMAP
01C0
02C0
0340
0510
0070
1FD0
7BD4
B2FC
B1D0
7A80
2E00
ENDCHAR
STARTCHAR uni1EDC
ENCODING 7900
SWIDTH 816 0
DWIDTH 10 0
BBX 11 15 0 0
BITMAP
074000
02D000
007034
000074
01BFE0
079BC0
1E02D0
2C01D0
3801E0
3801D0
7801D0
3802C0
3C0780
1E6E00
06F400
ENDCHAR
STARTCHAR uni1EDD
ENCODING 7901
SWIDTH 451 0
DWIDTH 5 0
BBX 7 11 0 0
BITMAP
3000
3800
1C00
0910
0070
1FD0
7BD4
B2FC
B1D0
7A80
2E00
ENDCHAR
STARTCHAR uni1EDE
ENCODING 7902
SWIDTH 816 0
DWIDTH 10 0
BBX 11 15 0 0
BITMAP
003D00
001A00
002D34
000074
01BFE0
079BC0
1E02D0
2C01D0
3801E0
3801D0
7801D0
3802C0
3C0780
1E6E00
06F400
ENDCHAR
STARTCHAR uni1EDF
ENCODING 7903
SWIDTH 451 0
DWIDTH 5 0
BBX 7 10 0 0
BITMAP
0F40
0680
0B50
0070
1FD0
7BD4
B2FC
B1D0
7A80
2E00
ENDCHAR
STARTCHAR uni1EE0
ENCODING 7904
SWIDTH 816 0
DWIDTH 10 0
BBX 11 15 0 0
BITMAP
005040
01FA80
029A34
000074
01BFE0
079BC0
1E02D0
2C01D0
3801E0
3801D0
7801D0
3802C0
3C0780
1E6E00
06F400
ENDCHAR
STARTCHAR uni1EE1
ENCODING 7905
SWIDTH 451 0
DWIDTH 5 0
BBX 7 10 0 0
BITMAP
0440
2DC0
2690
0070
1FD0
7BC4
B2FC
B1D0
7A80
2E00
ENDCHAR
STARTCHAR uni1EE2
ENCODING 7906
SWIDTH 816 0
DWIDTH 10 0
BBX 11 16 0 -3
BITMAP
000034
000074
01BFE0
079BC0
1E02D0
2C01D0
3801E0
3801D0
7801D0
3802C0
3C0780
1E6E00
06F400
000000
02D000
02D000
ENDCHAR
STARTCHAR uni1EE3
ENCODING 7907
SWIDTH 451 0
DWIDTH 5 0
BBX 7 11 0 -3
BITMAP
0010
0070
1FD0
7BD4
B2FC
B1D0
7A80
2E00
0000
1D00
1D00
ENDCHAR
STARTCHAR uni1EE4
ENCODING 7908
SWIDTH 890 0
DWIDTH 11 0
BBX 12 14 0 -3
BITMAP
1F4070
7780B0
C380F0
0380E0
0741E0
0B42D0
0B03D0
0E07C0
0E0EC2
0FB5EB
07D0B8
000000
00F000
00E000
ENDCHAR
STARTCHAR uni1EE5
ENCODING 7909
SWIDTH 462 0
DWIDTH 6 0
BBX 7 9 0 -3
BITMAP
28D0
35C0
72C0
7788
7FA8
39E0
0000
1D00
1D00
ENDCHAR
STARTCHAR uni1EE6
ENCODING 7910
SWIDTH 890 0
DWIDTH 11 0
BBX 12 15 0 0
BITMAP
001F00
000740
000F00
000400
1F4070
7780B0
C380F0
0380E0
0741E0
0B42D0
0B03D0
0E07C0
0E0EC2
0FB5EB
07D0B8
ENDCHAR
STARTCHAR uni1EE7
ENCODING 7911
SWIDTH 462 0
DWIDTH 6 0
BBX 7 10 0 0
BITMAP
07C0
01D0
03C0
0100
28D0
35C0
72C0
7788
7FA8
39E0
ENDCHAR
STARTCHAR uni1EE8
ENCODING 7912
SWIDTH 890 0
DWIDTH 11 0
BBX 12 15 0 0
BITMAP
000090
0007D0
000A06
00000A
1F407D
7780B4
C380F0
0380E0
0741E0
0B42D0
0B03D0
0E07C0
0E0EC2
0FB5EB
07D0B8
ENDCHAR
STARTCHAR uni1EE9
ENCODING 7913
SWIDTH 512 0
DWIDTH 6 0
BBX 8 11 0 0
BITMAP
00A0
00D0
0180
0204
0028
28F4
35C0
72C0
7786
7FDD
39F4
ENDCHAR
STARTCHAR uni1EEA
ENCODING 7914
SWIDTH 890 0
DWIDTH 11 0
BBX 12 15 0 0
BITMAP
028000
01E000
002806
00000A
1F407D
7780B4
C380F0
0380E0
0741E0
0B42D0
0B03D0
0E07C0
0E0EC2
0FB5EB
07D0B8
ENDCHAR
STARTCHAR uni1EEB
ENCODING 7915
SWIDTH 512 0
DWIDTH 6 0
BBX 8 11 0 0
BITMAP
1800
1D00
0A00
0204
0028
28F4
35C0
72C0
7786
7FDD
39F4
ENDCHAR
STARTCHAR uni1EEC
ENCODING 7916
SWIDTH 890 0
DWIDTH 11 0
BBX 12 15 0 0
BITMAP
001F00
000740
000F06
00040A
1F407D
7780B4
C380F0
0380E0
0741E0
0B42D0
0B03D0
0E07C0
0E0EC2
0FB5EB
07D0B8
ENDCHAR
STARTCHAR uni1EED
ENCODING 7917
SWIDTH 512 0
DWIDTH 6 0
BBX 8 10 0 0
BITMAP
07C0
01D0
03C4
0128
28F4
35C0
72C0
7786
7FDD
39F4
ENDCHAR
STARTCHAR uni1EEE
ENCODING 7918
SWIDTH 890 0
DWIDTH 11 0
BBX 12 15 0 0
BITMAP
001040
00BDC0
00D786
00000A
1F407D
7780B4
C380F0
0380E0
0741E0
0B42D0
0B03D0
0E07C0
0E0EC2
0FB5EB
07D0B8
ENDCHAR
STARTCHAR uni1EEF
ENCODING 7919
SWIDTH 512 0
DWIDTH 6 0
BBX 8 10 0 0
BITMAP
0410
1F60
15D4
0028
28F4
35C0
72C0
7786
7FDD
39F4
ENDCHAR
STARTCHAR uni1EF0
ENCODING 7920
SWIDTH 890 0
DWIDTH 11 0
BBX 12 16 0 -3
BITMAP
000006
00000A
1F407D
7780B4
C380F0
0380E0
0741E0
0B42D0
0B03D0
0E07C0
0E0EC2
0FB5EB
07D0B8
000000
00F000
00E000
ENDCHAR
STARTCHAR uni1EF1
ENCODING 7921
SWIDTH 512 0
DWIDTH 6 0
BBX 8 11 0 -3
BITMAP
0004
0028
28F4
35C0
72C0
7786
7FDD
39F4
0000
1D00
1D00
ENDCHAR
STARTCHAR Ygrave
ENCODING 7922
SWIDTH 851 0
DWIDTH 10 0
BBX 12 20 0 -5
BITMAP
018000
01F400
002800
000000
1F4070
7780B0
C380F0
0380E0
0741E0
0B42D0
0B07D0
0B5EC0
07F6ED
005BE4
00BF80
01E380
038740
039A00
02FC00
005000
ENDCHAR
STARTCHAR ygrave
ENCODING 7923
SWIDTH 479 0
DWIDTH 6 0
BBX 7 17 0 -6
BITMAP
1800
1D00
0A00
0200
0000
28D0
35C0
72C0
7788
7FF8
3AD0
0B40
2F00
6700
DA00
ED00
B400
ENDCHAR
STARTCHAR uni1EF4
ENCODING 7924
SWIDTH 851 0
DWIDTH 10 0
BBX 12 16 0 -5
BITMAP
1F4070
7780B0
C380F0
0380E0
0741E0
0B42D0
0B07D0
0B5EC0
07F6ED
005BE4
00BF80
01E380
038740
039AB0
02FCB0
005000
ENDCHAR
STARTCHAR uni1EF5
ENCODING 7925
SWIDTH 479 0
DWIDTH 6 0
BBX 7 12 0 -6
BITMAP
28D0
35C0
72C0
7788
7FF8
3AD0
0B40
2F00
6700
DA00
EDD0
B5D0
ENDCHAR
STARTCHAR uni1EF6
ENCODING 7926
SWIDTH 851 0
DWIDTH 10 0
BBX 12 20 0 -5
BITMAP
001F40
000740
000F00
000400
1F4070
7780B0
C380F0
0380E0
0741E0
0B42D0
0B07D0
0B5EC0
07F6ED
005BE4
00BF80
01E380
038740
039A00
02FC00
005000
ENDCHAR
STARTCHAR uni1EF7
ENCODING 7927
SWIDTH 479 0
DWIDTH 6 0
BBX 7 16 0 -6
BITMAP
07C0
01D0
03C0
0100
28D0
35C0
72C0
7788
7FF8
3AD0
0B40
2F00
6700
DA00
ED00
B400
ENDCHAR
STARTCHAR uni1EF8
ENCODING 7928
SWIDTH 851 0
DWIDTH 10 0
BBX 12 20 0 -5
BITMAP
001440
007DD0
009780
000000
1F4070
7780B0
C380F0
0380E0
0741E0
0B42D0
0B07D0
0B5EC0
07F6ED
005BE4
00BF80
01E380
038740
039A00
02FC00
005000
ENDCHAR
STARTCHAR uni1EF9
ENCODING 7929
SWIDTH 479 0
DWIDTH 6 0
BBX 7 16 0 -6
BITMAP
0410
2F70
25E0
0000
28D0
35C0
72C0
7788
7FF8
3AD0
0B40
2F00
6700
DA00
ED00
B400
ENDCHAR
STARTCHAR endash
ENCODING 8211
SWIDTH 484 0
DWIDTH 6 0
BBX 6 2 0 2
BITMAP
7FD0
1540
ENDCHAR
STARTCHAR emdash
ENCODING 8212
SWIDTH 620 0
DWIDTH 7 0
BBX 7 2 0 2
BITMAP
7FFC
1554
ENDCHAR
STARTCHAR quoteleft
ENCODING 8216
SWIDTH 237 0
DWIDTH 3 0
BBX 3 5 1 7
BITMAP
24
74
B0
B0
50
ENDCHAR
STARTCHAR quoteright
ENCODING 8217
SWIDTH 236 0
DWIDTH 3 0
BBX 3 5 1 7
BITMAP
34
74
70
A0
40
ENDCHAR
STARTCHAR quotesinglbase
ENCODING 8218
SWIDTH 257 0
DWIDTH 3 0
BBX 3 5 0 -2
BITMAP
10
74
B4
A0
90
ENDCHAR
STARTCHAR quotedblleft
ENCODING 8220
SWIDTH 457 0
DWIDTH 5 0
BBX 5 5 1 7
BITMAP
24C0
76C0
B380
B380
5100
ENDCHAR
STARTCHAR quotedblright
ENCODING 8221
SWIDTH 456 0
DWIDTH 5 0
BBX 5 5 1 7
BITMAP
35C0
76C0
7280
A340
4100
ENDCHAR
STARTCHAR quotedblbase
ENCODING 8222
SWIDTH 477 0
DWIDTH 6 0
BBX 5 5 0 -2
BITMAP
1140
76C0
B780
A340
9300
ENDCHAR
STARTCHAR dagger
ENCODING 8224
SWIDTH 588 0
DWIDTH 7 0
BBX 6 9 1 3
BITMAP
0300
0700
7FF0
1B40
0A00
0A00
0D00
0D00
0C00
ENDCHAR
STARTCHAR daggerdbl
ENCODING 8225
SWIDTH 588 0
DWIDTH 7 0
BBX 6 9 1 3
BITMAP
0300
0700
7FF0
1A40
0A00
0A00
BFD0
1E40
0C00
ENDCHAR
STARTCHAR bullet
ENCODING 8226
SWIDTH 512 0
DWIDTH 6 0
BBX 4 4 1 1
BITMAP
7D
BF
BF
7D
ENDCHAR
STARTCHAR ellipsis
ENCODING 8230
SWIDTH 777 0
DWIDTH 9 0
BBX 9 2 0 0
BITMAP
B5E780
75D780
ENDCHAR
STARTCHAR perthousand
ENCODING 8240
SWIDTH 1277 0
DWIDTH 15 0
BBX 15 10 0 0
BITMAP
1E024000
379B4000
73FE0000
736C0000
2E380000
00B2E0B4
00E7769C
02CA2B5C
034777AC
0702E1F4
ENDCHAR
STARTCHAR guilsinglleft
ENCODING 8249
SWIDTH 350 0
DWIDTH 4 0
BBX 4 5 0 1
BITMAP
0A
7D
B0
3C
09
ENDCHAR
STARTCHAR guilsinglright
ENCODING 8250
SWIDTH 350 0
DWIDTH 4 0
BBX 4 5 0 1
BITMAP
74
2D
0E
2D
74
ENDCHAR
STARTCHAR fraction
ENCODING 8260
SWIDTH 200 0
DWIDTH 2 0
BBX 5 8 -1 1
BITMAP
0180
0380
0700
0E00
2C00
7400
A000
D000
ENDCHAR
STARTCHAR uni2074
ENCODING 8308
SWIDTH 450 0
DWIDTH 5 0
BBX 5 6 1 4
BITMAP
1800
3600
7700
A700
FF80
1A00
ENDCHAR
STARTCHAR colonmonetary
ENCODING 8353
SWIDTH 517 0
DWIDTH 6 0
BBX 7 11 0 -2
BITMAP
0044
01A8
1FF0
3A70
7690
7980
7A10
3BA0
3F80
9800
4400
ENDCHAR
STARTCHAR franc
ENCODING 8355
SWIDTH 750 0
DWIDTH 9 0
BBX 9 8 0 0
BITMAP
3FFD00
295400
380700
3FDF40
35EB80
75F340
71E000
70D000
ENDCHAR
STARTCHAR lira
ENCODING 8356
SWIDTH 525 0
DWIDTH 6 0
BBX 6 7 0 0
BITMAP
0BE0
2D60
7F40
3900
BF40
7E50
BFF0
ENDCHAR
STARTCHAR uni20A6
ENCODING 8358
SWIDTH 672 0
DWIDTH 8 0
BBX 8 8 0 0
BITMAP
0404
1D0D
1F0D
2F5D
7FFE
BFFE
79B8
3424
ENDCHAR
STARTCHAR peseta
ENCODING 8359
SWIDTH 1085 0
DWIDTH 13 0
BBX 13 8 0 0
BITMAP
7F870000
7AD70000
38FFE700
34EE4A00
76CE1F00
7E0D2B80
700AB680
60078F40
ENDCHAR
STARTCHAR uni20A9
ENCODING 8361
SWIDTH 775 0
DWIDTH 9 0
BBX 10 7 0 0
BITMAP
7FFFE0
29F780
BFFFD0
2AE740
1AAA00
1F7D00
0D3800
ENDCHAR
STARTCHAR dong
ENCODING 8363
SWIDTH 463 0
DWIDTH 6 0
BBX 7 13 0 -3
BITMAP
0070
00B0
3FF4
15E0
0BD0
3EC0
76C0
B2C0
BB80
3A80
0000
FFD0
5540
ENDCHAR
STARTCHAR Euro
ENCODING 8364
SWIDTH 552 0
DWIDTH 7 0
BBX 7 8 0 0
BITMAP
07E0
1E74
2C34
BF50
BF40
7910
2EB0
0BD0
ENDCHAR
STARTCHAR uni20AD
ENCODING 8365
SWIDTH 590 0
DWIDTH 7 0
BBX 7 8 0 0
BITMAP
0404
1C28
2C74
29D0
BFF8
36C0
74E4
707C
ENDCHAR
STARTCHAR uni20AE
ENCODING 8366
SWIDTH 513 0
DWIDTH 6 0
BBX 6 7 1 0
BITMAP
FFD0
5D40
1E00
BD00
7900
3400
3400
ENDCHAR
STARTCHAR uni20B1
ENCODING 8369
SWIDTH 557 0
DWIDTH 7 0
BBX 7 8 0 0
BITMAP
0540
3EE0
BFF8
FFF8
7AD0
3E40
3400
3400
ENDCHAR
STARTCHAR uni20B2
ENCODING 8370
SWIDTH 599 0
DWIDTH 7 0
BBX 7 11 0 -2
BITMAP
0180
0240
0FE0
2E74
7634
7200
7678
3FB8
1FA8
0524
0400
ENDCHAR
STARTCHAR uni20B4
ENCODING 8372
SWIDTH 570 0
DWIDTH 7 0
BBX 7 8 0 0
BITMAP
1FD0
29A0
14B0
7FF4
BFF4
3960
39B0
1F90
ENDCHAR
STARTCHAR uni20B5
ENCODING 8373
SWIDTH 517 0
DWIDTH 6 0
BBX 6 11 0 -2
BITMAP
0180
0280
0FE0
2A70
7660
7300
7600
3EA0
1F80
0500
0400
ENDCHAR
STARTCHAR uni20B8
ENCODING 8376
SWIDTH 522 0
DWIDTH 6 0
BBX 7 7 0 0
BITMAP
3FF4
1550
7FF0
1B50
0A00
0A00
0900
ENDCHAR
STARTCHAR uni20B9
ENCODING 8377
SWIDTH 511 0
DWIDTH 6 0
BBX 7 7 0 0
BITMAP
7FF4
7FF0
0740
BD00
0E00
0740
02E0
ENDCHAR
STARTCHAR uni20BA
ENCODING 8378
SWIDTH 452 0
DWIDTH 5 0
BBX 6 8 0 0
BITMAP
0400
2D40
2E00
7E40
7D00
B440
3AD0
2E00
ENDCHAR
STARTCHAR uni20BC
ENCODING 8380
SWIDTH 673 0
DWIDTH 8 0
BBX 8 9 0 0
BITMAP
0090
0090
07F4
1EEC
2D9D
398D
758D
B14D
A24D
ENDCHAR
STARTCHAR uni20BD
ENCODING 8381
SWIDTH 505 0
DWIDTH 6 0
BBX 6 8 0 0
BITMAP
2F80
2DE0
1CB0
28A0
2AD0
BF40
BF40
7500
ENDCHAR
STARTCHAR uni2116
ENCODING 8470
SWIDTH 1198 0
DWIDTH 14 0
BBX 14 11 1 0
BITMAP
28BD0B40
3A9F2EC0
3B0B34D0
7D0B29C0
7C0E1F40
B40E0500
B41D7F80
B01D1500
F02C0000
E02C0000
D0280000
ENDCHAR
STARTCHAR trademark
ENCODING 8482
SWIDTH 1150 0
DWIDTH 14 0
BBX 13 5 1 5
BITMAP
BFABDF00
1C38E340
2834D300
2871C700
24618600
ENDCHAR
STARTCHAR partialdiff
ENCODING 8706
SWIDTH 451 0
DWIDTH 5 0
BBX 6 10 0 0
BITMAP
1000
2D00
0740
02C0
01D0
1FD0
75D0
B1D0
72C0
3F40
ENDCHAR
STARTCHAR product
ENCODING 8719
SWIDTH 700 0
DWIDTH 8 0
BBX 8 11 0 -1
BITMAP
0FFF
0E5B
1D0B
1C0A
2C0E
280E
280D
381D
341C
742C
1000
ENDCHAR
STARTCHAR summation
ENCODING 8721
SWIDTH 700 0
DWIDTH 8 0
BBX 9 11 0 -1
BITMAP
1FFF40
0B5500
038000
01E000
007400
007800
01E000
0B4000
2D0000
7FFC00
155400
ENDCHAR
STARTCHAR minus
ENCODING 8722
SWIDTH 700 0
DWIDTH 8 0
BBX 7 2 1 2
BITMAP
BFF4
1540
ENDCHAR
STARTCHAR uni2215
ENCODING 8725
SWIDTH 700 0
DWIDTH 8 0
BBX 7 12 1 0
BITMAP
0004
0028
0074
00A0
01D0
0380
0740
0E00
1D00
3800
7000
A000
ENDCHAR
STARTCHAR uni2219
ENCODING 8729
SWIDTH 700 0
DWIDTH 8 0
BBX 3 2 3 2
BITMAP
60
B4
ENDCHAR
STARTCHAR radical
ENCODING 8730
SWIDTH 700 0
DWIDTH 8 0
BBX 9 11 0 0
BITMAP
000180
000280
000740
000A00
000D00
7C1800
193400
0A7000
079000
03C000
014000
ENDCHAR
STARTCHAR infinity
ENCODING 8734
SWIDTH 700 0
DWIDTH 8 0
BBX 8 4 0 1
BITMAP
2E6D
76DB
B2D7
3EBD
ENDCHAR
STARTCHAR integral
ENCODING 8747
SWIDTH 700 0
DWIDTH 8 0
BBX 8 16 0 -4
BITMAP
002F
00B4
00E0
00E0
00D0
01D0
01D0
01C0
02C0
02C0
0280
0380
0380
0740
7E00
1000
ENDCHAR
STARTCHAR approxequal
ENCODING 8776
SWIDTH 700 0
DWIDTH 8 0
BBX 8 6 0 0
BITMAP
0B46
29FE
1078
1E04
3FDD
70B8
ENDCHAR
STARTCHAR notequal
ENCODING 8800
SWIDTH 700 0
DWIDTH 8 0
BBX 7 8 1 0
BITMAP
0040
01C0
BFF8
1750
0A00
FFF4
2940
1400
ENDCHAR
STARTCHAR lessequal
ENCODING 8804
SWIDTH 700 0
DWIDTH 8 0
BBX 7 8 1 -1
BITMAP
0068
1BF4
B900
7E40
06F4
0010
FFF4
5550
ENDCHAR
STARTCHAR greaterequal
ENCODING 8805
SWIDTH 700 0
DWIDTH 8 0
BBX 7 8 1 -1
BITMAP
6400
6F90
01F8
1BE4
F900
4000
FFF4
5550
ENDCHAR
STARTCHAR lozenge
ENCODING 9674
SWIDTH 700 0
DWIDTH 8 0
BBX 7 12 1 0
BITMAP
0040
02C0
07D0
0EA0
1C70
3434
7034
34B0
28D0
1A80
0F40
0A00
ENDCHAR
STARTCHAR fi
ENCODING 64257
SWIDTH 633 0
DWIDTH 8 0
BBX 9 17 0 -5
BITMAP
01E000
03B000
0A6000
0DA000
1DDE00
2E4400
BFFC00
796C00
396800
366880
366A80
365E00
364000
3A4000
2B0000
1E0000
040000
ENDCHAR
STARTCHAR fl
ENCODING 64258
SWIDTH 688 0
DWIDTH 8 0
BBX 10 17 0 -5
BITMAP
02D2C0
07A6D0
0EAD90
1DAC90
2CECD0
29A9C0
3A2A80
3D3B00
743D00
7BF810
7A6DA0
761F80
760000
760000
3A0000
2D0000
040000
ENDCHAR
STARTCHAR .notdef
ENCODING -1
SWIDTH 265 0
DWIDTH 3 0
BBX 1 1 0 0
BITMAP
00
ENDCHAR
STARTCHAR Iacute_J.loclNLD
ENCODING -1
SWIDTH 776 0
DWIDTH 9 0
BBX 11 15 1 0
BITMAP
01C074
0781F0
1D0340
000000
340A00
780B00
740E00
741E00
B42E00
B07D00
7EED00
2F5C00
002800
A5B400
6F9000
ENDCHAR
STARTCHAR A.ss01
ENCODING -1
SWIDTH 780 0
DWIDTH 9 0
BBX 10 11 0 0
BITMAP
006FE0
02E950
0B4280
1D0380
2C0740
380740
780B00
740F00
782F00
2EBE00
0B9E00
ENDCHAR
STARTCHAR Aacute.ss01
ENCODING -1
SWIDTH 780 0
DWIDTH 9 0
BBX 11 15 0 0
BITMAP
000074
0001E0
000340
000000
006FE0
02E950
0B4280
1D0380
2C0740
380740
780B00
740F00
782F00
2EBE00
0B9E00
ENDCHAR
STARTCHAR Abreve.ss01
ENCODING -1
SWIDTH 780 0
DWIDTH 9 0
BBX 10 14 0 0
BITMAP
0034A0
002FD0
000500
006FE0
02E950
0B4280
1D0380
2C0740
380740
780B00
740F00
782F00
2EBE00
0B9E00
ENDCHAR
STARTCHAR uni1EAE.ss01
ENCODING -1
SWIDTH 780 0
DWIDTH 9 0
BBX 10 16 0 0
BITMAP
0000D0
000280
0034A0
002FD0
000100
006FE0
02E950
0B4280
1D0380
2C0740
380740
780B00
740F00
782F00
2EBE00
0B9E00
ENDCHAR
STARTCHAR uni1EB6.ss01
ENCODING -1
SWIDTH 780 0
DWIDTH 9 0
BBX 10 17 0 -3
BITMAP
0034A0
002FD0
000500
006FE0
02E950
0B4280
1D0380
2C0740
380740
780B00
740F00
782F00
2EBE00
0B9E00
000000
02D000
02D000
ENDCHAR
STARTCHAR uni1EB0.ss01
ENCODING -1
SWIDTH 780 0
DWIDTH 9 0
BBX 10 16 0 0
BITMAP
001C00
000A00
0034A0
002FD0
000100
006FE0
02E950
0B4280
1D0380
2C0740
380740
780B00
740F00
782F00
2EBE00
0B9E00
ENDCHAR
STARTCHAR uni1EB2.ss01
ENCODING -1
SWIDTH 780 0
DWIDTH 9 0
BBX 10 17 0 0
BITMAP
000B40
000680
000740
0039A0
002FD0
000500
006FE0
02E950
0B4280
1D0380
2C0740
380740
780B00
740F00
782F00
2EBE00
0B9E00
ENDCHAR
STARTCHAR uni1EB4.ss01
ENCODING -1
SWIDTH 780 0
DWIDTH 9 0
BBX 10 17 0 0
BITMAP
000920
002FA0
002190
0034A0
002FD0
000100
006FE0
02E950
0B4280
1D0380
2C0740
380740
780B00
740F00
782F00
2EBE00
0B9E00
ENDCHAR
STARTCHAR Acircumflex.ss01
ENCODING -1
SWIDTH 780 0
DWIDTH 9 0
BBX 10 16 0 0
BITMAP
000100
000B80
001DC0
0024D0
000000
006FE0
02E950
0B4280
1D0380
2C0740
380740
780B00
740F00
782F00
2EBE00
0B9E00
ENDCHAR
STARTCHAR uni1EA4.ss01
ENCODING -1
SWIDTH 780 0
DWIDTH 9 0
BBX 11 17 0 0
BITMAP
000004
000028
000150
000E80
0028C0
000000
006FE0
02E950
0B4280
1D0380
2C0740
380740
780B00
740F00
782F00
2EBE00
0B9E00
ENDCHAR
STARTCHAR uni1EAC.ss01
ENCODING -1
SWIDTH 780 0
DWIDTH 9 0
BBX 10 19 0 -3
BITMAP
000100
000B80
001DC0
0024D0
000000
006FE0
02E950
0B4280
1D0380
2C0740
380740
780B00
740F00
782F00
2EBE00
0B9E00
000000
02D000
02D000
ENDCHAR
STARTCHAR uni1EA6.ss01
ENCODING -1
SWIDTH 780 0
DWIDTH 9 0
BBX 10 17 0 0
BITMAP
004000
00B000
001500
000E80
0028C0
000000
006FE0
02E950
0B4280
1D0380
2C0740
380740
780B00
740F00
782F00
2EBE00
0B9E00
ENDCHAR
STARTCHAR uni1EA8.ss01
ENCODING -1
SWIDTH 780 0
DWIDTH 9 0
BBX 11 16 0 0
BITMAP
000078
00002C
000B78
001ED0
002480
006FE0
02E950
0B4280
1D0380
2C0740
380740
780B00
740F00
782F00
2EBE00
0B9E00
ENDCHAR
STARTCHAR uni1EAA.ss01
ENCODING -1
SWIDTH 780 0
DWIDTH 9 0
BBX 10 17 0 0
BITMAP
000E60
002AD0
000640
001EC0
0028C0
000000
006FE0
02E950
0B4280
1D0380
2C0740
380740
780B00
740F00
782F00
2EBE00
0B9E00
ENDCHAR
STARTCHAR uni0200.ss01
ENCODING -1
SWIDTH 780 0
DWIDTH 9 0
BBX 10 15 0 0
BITMAP
003340
003780
001980
000000
006FE0
02E950
0B4280
1D0380
2C0740
380740
780B00
740F00
782F00
2EBE00
0B9E00
ENDCHAR
STARTCHAR Adieresis.ss01
ENCODING -1
SWIDTH 780 0
DWIDTH 9 0
BBX 10 14 0 0
BITMAP
0029D0
0029D0
000000
006FE0
02E950
0B4280
1D0380
2C0740
380740
780B00
740F00
782F00
2EBE00
0B9E00
ENDCHAR
STARTCHAR uni1EA0.ss01
ENCODING -1
SWIDTH 780 0
DWIDTH 9 0
BBX 10 14 0 -3
BITMAP
006FE0
02E950
0B4280
1D0380
2C0740
380740
780B00
740F00
782F00
2EBE00
0B9E00
000000
02D000
02D000
ENDCHAR
STARTCHAR Agrave.ss01
ENCODING -1
SWIDTH 780 0
DWIDTH 9 0
BBX 10 15 0 0
BITMAP
00E000
00B800
001900
000000
006FE0
02E950
0B4280
1D0380
2C0740
380740
780B00
740F00
782F00
2EBE00
0B9E00
ENDCHAR
STARTCHAR uni1EA2.ss01
ENCODING -1
SWIDTH 780 0
DWIDTH 9 0
BBX 10 15 0 0
BITMAP
000B80
0006C0
000780
000100
006FE0
02E950
0B4280
1D0380
2C0740
380740
780B00
740F00
782F00
2EBE00
0B9E00
ENDCHAR
STARTCHAR uni0202.ss01
ENCODING -1
SWIDTH 780 0
DWIDTH 9 0
BBX 10 14 0 0
BITMAP
001FD0
0039A0
001000
006FE0
02E950
0B4280
1D0380
2C0740
380740
780B00
740F00
782F00
2EBE00
0B9E00
ENDCHAR
STARTCHAR Amacron.ss01
ENCODING -1
SWIDTH 780 0
DWIDTH 9 0
BBX 10 13 0 0
BITMAP
002FC0
000540
006FE0
02E950
0B4280
1D0380
2C0740
380740
780B00
740F00
782F00
2EBE00
0B9E00
ENDCHAR
STARTCHAR Aogonek.ss01
ENCODING -1
SWIDTH 780 0
DWIDTH 9 0
BBX 10 15 0 -4
BITMAP
006FE0
02E950
0B4280
1D0380
2C0740
380740
780B00
740F00
782F00
2EBE00
0B9E00
002800
002800
002F40
000500
ENDCHAR
STARTCHAR Aring.ss01
ENCODING -1
SWIDTH 780 0
DWIDTH 9 0
BBX 10 15 0 0
BITMAP
000B80
000EC0
000F80
000100
006FE0
02E950
0B4280
1D0380
2C0740
380740
780B00
740F00
782F00
2EBE00
0B9E00
ENDCHAR
STARTCHAR Aringacute.ss01
ENCODING -1
SWIDTH 780 0
DWIDTH 9 0
BBX 12 17 0 0
BITMAP
000005
00001E
000BA4
000EC0
000F80
000100
006FE0
02E950
0B4280
1D0380
2C0740
380740
780B00
740F00
782F00
2EBE00
0B9E00
ENDCHAR
STARTCHAR Atilde.ss01
ENCODING -1
SWIDTH 780 0
DWIDTH 9 0
BBX 10 15 0 0
BITMAP
000410
003EB0
0072D0
000000
006FE0
02E950
0B4280
1D0380
2C0740
380740
780B00
740F00
782F00
2EBE00
0B9E00
ENDCHAR
STARTCHAR AE.ss01
ENCODING -1
SWIDTH 1057 0
DWIDTH 13 0
BBX 13 11 0 0
BITMAP
006CBF80
02E9E540
0B42C000
1D038000
3C078000
3807FF00
780B9500
740F0000
782F4000
2EB7E640
0BD1BE40
ENDCHAR
STARTCHAR AEacute.ss01
ENCODING -1
SWIDTH 1057 0
DWIDTH 13 0
BBX 13 15 0 0
BITMAP
00000900
00003D00
0000A000
00000000
006CBF80
02E9E540
0B42C000
1D038000
3C078000
3807FF00
780B9500
740F0000
782F4000
2EB7E640
0BD1BE40
ENDCHAR
STARTCHAR B.ss01
ENCODING -1
SWIDTH 826 0
DWIDTH 10 0
BBX 9 11 1 0
BITMAP
1BF900
296F40
040780
380780
381F40
75F800
B06D00
B00F00
B01E00
F5BD00
BFE000
ENDCHAR
STARTCHAR C.ss01
ENCODING -1
SWIDTH 704 0
DWIDTH 8 0
BBX 9 11 0 0
BITMAP
01BD00
079B40
1E0740
2C0740
380100
380000
780000
380000
3C0240
1F5B00
06F800
ENDCHAR
STARTCHAR Cacute.ss01
ENCODING -1
SWIDTH 704 0
DWIDTH 8 0
BBX 9 15 0 0
BITMAP
000280
000B80
001900
000000
01BD00
079B40
1E0740
2C0740
380100
380000
780000
380000
3C0240
1F5B00
06F800
ENDCHAR
STARTCHAR Ccaron.ss01
ENCODING -1
SWIDTH 704 0
DWIDTH 8 0
BBX 9 15 0 0
BITMAP
009300
006A00
002800
000000
01BD00
079B40
1E0740
2C0740
380100
380000
780000
380000
3C0240
1F5B00
06F800
ENDCHAR
STARTCHAR Ccedilla.ss01
ENCODING -1
SWIDTH 704 0
DWIDTH 8 0
BBX 9 15 0 -4
BITMAP
01BD00
079B40
1E0740
2C0740
380100
380000
780000
380000
2C0140
1E5B00
07F800
01A000
00B000
07D000
010000
ENDCHAR
STARTCHAR Ccircumflex.ss01
ENCODING -1
SWIDTH 704 0
DWIDTH 8 0
BBX 9 16 0 0
BITMAP
001400
003D00
00AA00
00D600
000000
01BD00
079B40
1E0740
2C0740
380100
380000
780000
380000
3C0240
1F5B00
06F800
ENDCHAR
STARTCHAR Cdotaccent.ss01
ENCODING -1
SWIDTH 704 0
DWIDTH 8 0
BBX 9 14 0 0
BITMAP
003C00
003800
000000
01BD00
079B40
1E0740
2C0740
380100
380000
780000
380000
3C0240
1F5B00
06F800
ENDCHAR
STARTCHAR D.ss01
ENCODING -1
SWIDTH 810 0
DWIDTH 10 0
BBX 9 11 1 0
BITMAP
1BE400
39BD00
040F00
380740
380740
740740
B00740
B00F00
F02D00
F6F800
BF9000
ENDCHAR
STARTCHAR uni01C4.ss01
ENCODING -1
SWIDTH 1455 0
DWIDTH 17 0
BBX 17 15 1 0
BITMAP
000000D700
000000AD00
0000003800
0000000000
1BE41FFF80
39BD055B80
040F000F00
3807402D00
3807407800
740741F000
B00743D000
B00F0B8000
F02D1F0000
F6F83E5500
BF907FFF00
ENDCHAR
STARTCHAR Eth.ss01
ENCODING -1
SWIDTH 821 0
DWIDTH 10 0
BBX 10 11 0 0
BITMAP
02F900
079B80
0702D0
0B01E0
0E00E0
BFF1E0
2D51D0
2C02C0
2C0B80
3D6E00
2FE400
ENDCHAR
STARTCHAR Dcaron.ss01
ENCODING -1
SWIDTH 810 0
DWIDTH 10 0
BBX 9 15 1 0
BITMAP
031800
02B400
01D000
000000
1BE400
39BD00
040F00
380740
380740
740740
B00740
B00F00
F02D00
F6F800
BF9000
ENDCHAR
STARTCHAR Dcroat.ss01
ENCODING -1
SWIDTH 821 0
DWIDTH 10 0
BBX 10 11 0 0
BITMAP
02F900
079B80
0702D0
0B01E0
0E00E0
BFF1E0
2D51D0
2C02C0
2C0B80
3D6E00
2FE400
ENDCHAR
STARTCHAR E.ss01
ENCODING -1
SWIDTH 720 0
DWIDTH 9 0
BBX 9 11 0 0
BITMAP
02FD00
0F9B40
2D0380
2D0340
1E4100
0BE000
2E4000
740000
740140
3E6F00
1BF800
ENDCHAR
STARTCHAR Eacute.ss01
ENCODING -1
SWIDTH 720 0
DWIDTH 9 0
BBX 9 15 0 0
BITMAP
000280
000F40
002800
000000
02FD00
0F9B40
2D0380
2D0340
1E4100
0BE000
2E4000
740000
740140
3E6F00
1BF800
ENDCHAR
STARTCHAR Ebreve.ss01
ENCODING -1
SWIDTH 720 0
DWIDTH 9 0
BBX 9 14 0 0
BITMAP
029740
01FE00
001000
02FD00
0F9B40
2D0380
2D0340
1E4100
0BE000
2E4000
740000
740140
3E6F00
1BF800
ENDCHAR
STARTCHAR Ecaron.ss01
ENCODING -1
SWIDTH 720 0
DWIDTH 9 0
BBX 9 15 0 0
BITMAP
00C600
00AD00
007800
000000
02FD00
0F9B40
2D0380
2D0340
1E4100
0BE000
2E4000
740000
740140
3E6F00
1BF800
ENDCHAR
STARTCHAR Ecircumflex.ss01
ENCODING -1
SWIDTH 720 0
DWIDTH 9 0
BBX 9 16 0 0
BITMAP
001400
007C00
00ED00
018A00
000000
02FD00
0F9B40
2D0380
2D0340
1E4100
0BE000
2E4000
740000
740140
3E6F00
1BF800
ENDCHAR
STARTCHAR uni1EBE.ss01
ENCODING -1
SWIDTH 720 0
DWIDTH 9 0
BBX 10 17 0 0
BITMAP
000040
0001D0
001500
00AD00
01C900
000000
02FD00
0F9B40
2D0380
2D0340
1E4100
0BE000
2E4000
740000
740140
3E6F00
1BF800
ENDCHAR
STARTCHAR uni1EC6.ss01
ENCODING -1
SWIDTH 720 0
DWIDTH 9 0
BBX 9 19 0 -3
BITMAP
001400
007C00
00ED00
018A00
000000
02FD00
0F9B40
2D0380
2D0340
1E4100
0BE000
2E4000
740000
740140
3E6F00
1BF800
000000
03C000
038000
ENDCHAR
STARTCHAR uni1EC0.ss01
ENCODING -1
SWIDTH 720 0
DWIDTH 9 0
BBX 9 17 0 0
BITMAP
010000
074000
015400
00AD00
01C900
000000
02FD00
0F9B40
2D0380
2D0340
1E4100
0BE000
2E4000
740000
740140
3E6F00
1BF800
ENDCHAR
STARTCHAR uni1EC2.ss01
ENCODING -1
SWIDTH 720 0
DWIDTH 9 0
BBX 10 16 0 0
BITMAP
0002D0
0001D0
007ED0
00ED00
018900
02FD00
0F9B40
2D0380
2D0340
1E4100
0BE000
2E4000
740000
740140
3E6F00
1BF800
ENDCHAR
STARTCHAR uni1EC4.ss01
ENCODING -1
SWIDTH 720 0
DWIDTH 9 0
BBX 9 17 0 0
BITMAP
00B640
009E00
002800
00AD00
01C900
000000
02FD00
0F9B40
2D0380
2D0340
1E4100
0BE000
2E4000
740000
740140
3E6F00
1BF800
ENDCHAR
STARTCHAR uni0204.ss01
ENCODING -1
SWIDTH 720 0
DWIDTH 9 0
BBX 9 15 0 0
BITMAP
026800
029C00
00C800
000000
02FD00
0F9B40
2D0380
2D0340
1E4100
0BE000
2E4000
740000
740140
3E6F00
1BF800
ENDCHAR
STARTCHAR Edieresis.ss01
ENCODING -1
SWIDTH 720 0
DWIDTH 9 0
BBX 9 14 0 0
BITMAP
01DA00
01DA00
000000
02FD00
0F9B40
2D0380
2D0340
1E4100
0BE000
2E4000
740000
740140
3E6F00
1BF800
ENDCHAR
STARTCHAR Edotaccent.ss01
ENCODING -1
SWIDTH 720 0
DWIDTH 9 0
BBX 9 14 0 0
BITMAP
007800
007800
000000
02FD00
0F9B40
2D0380
2D0340
1E4100
0BE000
2E4000
740000
740140
3E6F00
1BF800
ENDCHAR
STARTCHAR uni1EB8.ss01
ENCODING -1
SWIDTH 720 0
DWIDTH 9 0
BBX 9 14 0 -3
BITMAP
02FD00
0F9B40
2D0380
2D0340
1E4100
0BE000
2E4000
740000
740140
3E6F00
1BF800
000000
03C000
038000
ENDCHAR
STARTCHAR Egrave.ss01
ENCODING -1
SWIDTH 720 0
DWIDTH 9 0
BBX 9 15 0 0
BITMAP
0A0000
07C000
00A000
000000
02FD00
0F9B40
2D0380
2D0340
1E4100
0BE000
2E4000
740000
740140
3E6F00
1BF800
ENDCHAR
STARTCHAR uni1EBA.ss01
ENCODING -1
SWIDTH 720 0
DWIDTH 9 0
BBX 9 15 0 0
BITMAP
007C00
001D00
003C00
001000
02FD00
0F9B40
2D0380
2D0340
1E4100
0BE000
2E4000
740000
740140
3E6F00
1BF800
ENDCHAR
STARTCHAR uni0206.ss01
ENCODING -1
SWIDTH 720 0
DWIDTH 9 0
BBX 9 14 0 0
BITMAP
00BE00
02DB40
000100
02FD00
0F9B40
2D0380
2D0340
1E4100
0BE000
2E4000
740000
740140
3E6F00
1BF800
ENDCHAR
STARTCHAR Emacron.ss01
ENCODING -1
SWIDTH 720 0
DWIDTH 9 0
BBX 9 13 0 0
BITMAP
01FD00
005400
02FD00
0F9B40
2D0380
2D0340
1E4100
0BE000
2E4000
740000
740140
3E6F00
1BF800
ENDCHAR
STARTCHAR Eogonek.ss01
ENCODING -1
SWIDTH 720 0
DWIDTH 9 0
BBX 9 15 0 -4
BITMAP
02FD00
0F9B40
2D0380
2D0340
1E4100
0BE000
2E4000
740000
740140
3E6F00
1BF800
00D000
01D000
00FC00
001000
ENDCHAR
STARTCHAR uni1EBC.ss01
ENCODING -1
SWIDTH 720 0
DWIDTH 9 0
BBX 9 15 0 0
BITMAP
004100
01F740
025E00
000000
02FD00
0F9B40
2D0380
2D0340
1E4100
0BE000
2E4000
740000
740140
3E6F00
1BF800
ENDCHAR
STARTCHAR F.ss01
ENCODING -1
SWIDTH 671 0
DWIDTH 8 0
BBX 8 11 1 0
BITMAP
BFFE
5E54
1D00
1D00
2C00
FFF4
7950
3800
7400
7400
7000
ENDCHAR
STARTCHAR G.ss01
ENCODING -1
SWIDTH 811 0
DWIDTH 10 0
BBX 9 14 0 -3
BITMAP
01BE00
079B80
1E0380
2C0380
380000
380000
781FC0
3806C0
2D02C0
1F9B80
02FF80
000380
000340
000300
ENDCHAR
STARTCHAR Gbreve.ss01
ENCODING -1
SWIDTH 811 0
DWIDTH 10 0
BBX 9 17 0 -3
BITMAP
01D680
00BF40
001400
01BE00
079B80
1E0380
2C0380
380000
380000
781FC0
3806C0
2D02C0
1F9B80
02FF80
000380
000340
000300
ENDCHAR
STARTCHAR Gcaron.ss01
ENCODING -1
SWIDTH 811 0
DWIDTH 10 0
BBX 9 18 0 -3
BITMAP
00A240
007A00
002C00
000000
01BE00
079B80
1E0380
2C0380
380000
380000
781FC0
3806C0
2D02C0
1F9B80
02FF80
000380
000340
000300
ENDCHAR
STARTCHAR Gcircumflex.ss01
ENCODING -1
SWIDTH 811 0
DWIDTH 10 0
BBX 9 19 0 -3
BITMAP
000400
003E00
00BB00
00D300
000000
01BE00
079B80
1E0380
2C0380
380000
380000
781FC0
3806C0
2D02C0
1F9B80
02FF80
000380
000340
000300
ENDCHAR
STARTCHAR uni0122.ss01
ENCODING -1
SWIDTH 811 0
DWIDTH 10 0
BBX 9 15 0 -4
BITMAP
01BE00
079B80
1E0380
2C0380
380000
380000
781FC0
3806C0
2D02C0
1F9B80
02FF80
000380
009340
00D300
00C000
ENDCHAR
STARTCHAR Gdotaccent.ss01
ENCODING -1
SWIDTH 811 0
DWIDTH 10 0
BBX 9 17 0 -3
BITMAP
002C00
002C00
000000
01BE00
079B80
1E0380
2C0380
380000
380000
781FC0
3806C0
2D02C0
1F9B80
02FF80
000380
000340
000300
ENDCHAR
STARTCHAR H.ss01
ENCODING -1
SWIDTH 846 0
DWIDTH 10 0
BBX 10 11 0 0
BITMAP
0700D0
0B01D0
0B01D0
0E01D0
0E02C0
7FFFF0
2E57D0
2C0380
2C0740
3C0740
280700
ENDCHAR
STARTCHAR Hbar.ss01
ENCODING -1
SWIDTH 856 0
DWIDTH 10 0
BBX 11 11 0 0
BITMAP
0700D0
0B01E0
2FFFF4
1F56D0
0E02C0
7FFFF0
2E57D0
1D0380
2C0380
2C0740
280740
ENDCHAR
STARTCHAR Hcircumflex.ss01
ENCODING -1
SWIDTH 846 0
DWIDTH 10 0
BBX 10 16 0 0
BITMAP
000400
002E00
007700
009300
000000
0700D0
0B01D0
0B01D0
0E01D0
0E02C0
7FFFF0
2E57D0
2C0380
2C0740
3C0740
280700
ENDCHAR
STARTCHAR I.ss01
ENCODING -1
SWIDTH 357 0
DWIDTH 4 0
BBX 3 11 1 0
BITMAP
28
3C
38
38
74
74
B0
B0
E0
E0
D0
ENDCHAR
STARTCHAR Iacute.ss01
ENCODING -1
SWIDTH 357 0
DWIDTH 4 0
BBX 6 15 1 0
BITMAP
01D0
0780
0D00
0000
2800
3C00
3800
3800
7400
7400
B000
B000
E000
E000
D000
ENDCHAR
STARTCHAR Iacute_J.loclNLD.ss01
ENCODING -1
SWIDTH 776 0
DWIDTH 9 0
BBX 11 15 1 0
BITMAP
01C074
0781F0
1D0340
000000
340A00
780B00
740E00
741E00
B42E00
B07D00
7EED00
2F5C00
002800
A5B400
6F9000
ENDCHAR
STARTCHAR Ibreve.ss01
ENCODING -1
SWIDTH 357 0
DWIDTH 4 0
BBX 5 14 1 0
BITMAP
E280
BF40
0400
2800
3C00
3800
3800
7400
7400
B000
B000
E000
E000
D000
ENDCHAR
STARTCHAR Icircumflex.ss01
ENCODING -1
SWIDTH 357 0
DWIDTH 4 0
BBX 5 16 1 0
BITMAP
0400
2E00
7700
A340
0000
2800
3C00
3800
3800
7400
7400
B000
B000
E000
E000
D000
ENDCHAR
STARTCHAR uni0208.ss01
ENCODING -1
SWIDTH 357 0
DWIDTH 4 0
BBX 4 15 1 0
BITMAP
CD
DA
66
00
28
3C
38
38
74
74
B0
B0
E0
E0
D0
ENDCHAR
STARTCHAR Idieresis.ss01
ENCODING -1
SWIDTH 357 0
DWIDTH 4 0
BBX 5 14 1 0
BITMAP
B340
A340
0000
2800
3C00
3800
3800
7400
7400
B000
B000
E000
E000
D000
ENDCHAR
STARTCHAR Idotaccent.ss01
ENCODING -1
SWIDTH 357 0
DWIDTH 4 0
BBX 4 14 1 0
BITMAP
2D
2D
00
28
3C
38
38
74
74
B0
B0
E0
E0
D0
ENDCHAR
STARTCHAR uni1ECA.ss01
ENCODING -1
SWIDTH 357 0
DWIDTH 4 0
BBX 4 14 0 -3
BITMAP
0A
0F
0E
0E
1D
1D
2C
2C
38
38
34
00
74
74
ENDCHAR
STARTCHAR Igrave.ss01
ENCODING -1
SWIDTH 357 0
DWIDTH 4 0
BBX 4 15 0 0
BITMAP
E0
B8
19
00
0A
0F
0E
0E
1D
1D
2C
2C
38
38
34
ENDCHAR
STARTCHAR uni1EC8.ss01
ENCODING -1
SWIDTH 357 0
DWIDTH 4 0
BBX 4 15 1 0
BITMAP
2E
1B
1E
04
28
3C
38
38
74
74
B0
B0
E0
E0
D0
ENDCHAR
STARTCHAR uni020A.ss01
ENCODING -1
SWIDTH 357 0
DWIDTH 4 0
BBX 5 14 1 0
BITMAP
7F40
E6C0
4000
2800
3C00
3800
3800
7400
7400
B000
B000
E000
E000
D000
ENDCHAR
STARTCHAR Imacron.ss01
ENCODING -1
SWIDTH 357 0
DWIDTH 4 0
BBX 4 13 1 0
BITMAP
BF
15
28
3C
38
38
74
74
B0
B0
E0
E0
D0
ENDCHAR
STARTCHAR Iogonek.ss01
ENCODING -1
SWIDTH 357 0
DWIDTH 4 0
BBX 4 15 0 -4
BITMAP
0A
0F
0E
0E
1D
1D
2C
2C
3C
38
38
60
A0
7D
04
ENDCHAR
STARTCHAR Itilde.ss01
ENCODING -1
SWIDTH 357 0
DWIDTH 4 0
BBX 6 15 0 0
BITMAP
0410
3EB0
72D0
0000
0A00
0F00
0E00
0E00
1D00
1D00
2C00
2C00
3800
3800
3400
ENDCHAR
STARTCHAR J.ss01
ENCODING -1
SWIDTH 716 0
DWIDTH 9 0
BBX 8 11 1 0
BITMAP
1BF9
B96D
D02C
E038
5038
0038
0074
0070
D0A0
F6D0
2F40
ENDCHAR
STARTCHAR Jcircumflex.ss01
ENCODING -1
SWIDTH 716 0
DWIDTH 9 0
BBX 8 16 1 0
BITMAP
0050
02F0
0774
0A24
0000
1BF9
B96D
D02C
E038
5038
0038
0074
0070
D0A0
F6D0
2F40
ENDCHAR
STARTCHAR K.ss01
ENCODING -1
SWIDTH 779 0
DWIDTH 9 0
BBX 8 11 1 0
BITMAP
2C07
2C0F
381D
3838
79B0
FF80
B7C0
B1E0
B0F0
E079
A02F
ENDCHAR
STARTCHAR uni0136.ss01
ENCODING -1
SWIDTH 779 0
DWIDTH 9 0
BBX 8 15 1 -4
BITMAP
2C07
2C0F
381D
3838
79B0
FF80
B7C0
B1E0
B0F0
E079
A02F
0000
0600
0A00
0500
ENDCHAR
STARTCHAR L.ss01
ENCODING -1
SWIDTH 625 0
DWIDTH 8 0
BBX 7 11 1 0
BITMAP
2800
3800
3800
7800
7400
7400
B000
B000
E000
FAA0
FFF4
ENDCHAR
STARTCHAR uni01C7.ss01
ENCODING -1
SWIDTH 1291 0
DWIDTH 15 0
BBX 15 11 1 0
BITMAP
28006FE4
3802E5F4
380340F0
780340E0
740240E0
740001D0
B00001D0
B00002C0
E0030380
FAA3DB40
FFF5BD00
ENDCHAR
STARTCHAR Lacute.ss01
ENCODING -1
SWIDTH 625 0
DWIDTH 8 0
BBX 7 15 1 0
BITMAP
01D0
0780
0D00
0000
2800
3800
3800
7800
7400
7400
B000
B000
E000
FAA0
FFF4
ENDCHAR
STARTCHAR Lcaron.ss01
ENCODING -1
SWIDTH 625 0
DWIDTH 8 0
BBX 7 11 1 0
BITMAP
2820
3870
3860
7800
7400
7400
B000
B000
E000
FAA0
FFF4
ENDCHAR
STARTCHAR uni013B.ss01
ENCODING -1
SWIDTH 625 0
DWIDTH 8 0
BBX 7 15 1 -4
BITMAP
2800
3800
3800
7800
7400
7400
B000
B000
E000
FAA0
FFF4
0000
0500
0A00
0900
ENDCHAR
STARTCHAR Ldot.ss01
ENCODING -1
SWIDTH 625 0
DWIDTH 8 0
BBX 7 11 1 0
BITMAP
2800
3800
3800
7800
7400
74F0
B040
B000
E000
FAA0
FFF4
ENDCHAR
STARTCHAR uni01C8.ss01
ENCODING -1
SWIDTH 854 0
DWIDTH 10 0
BBX 10 17 1 -6
BITMAP
280000
380000
380000
7801D0
740040
7401C0
B002C0
B00280
E00280
FAA380
FFF740
000B40
002F00
00AA00
00CD00
01EC00
00B400
ENDCHAR
STARTCHAR Lslash.ss01
ENCODING -1
SWIDTH 625 0
DWIDTH 8 0
BBX 8 11 0 0
BITMAP
0A00
0E00
0E20
1FE0
1F40
7D00
7C00
2C00
3800
3EA8
3FFD
ENDCHAR
STARTCHAR M.ss01
ENCODING -1
SWIDTH 1139 0
DWIDTH 14 0
BBX 12 11 1 0
BITMAP
28B86D
3AADEF
3A1E4B
7C1F0B
781E0F
B42D0E
B42C1E
B0381D
E0382D
E0782C
D0342C
ENDCHAR
STARTCHAR N.ss01
ENCODING -1
SWIDTH 799 0
DWIDTH 10 0
BBX 8 11 1 0
BITMAP
28BD
3A9F
3B0B
7D0B
7C0E
B40E
B41D
B01D
F02C
E02C
D028
ENDCHAR
STARTCHAR uni01CA.ss01
ENCODING -1
SWIDTH 1515 0
DWIDTH 18 0
BBX 17 11 1 0
BITMAP
28BD02FF80
3A9F0F97C0
3B0B1C0780
7D0B1C0740
7C0E080740
B40E000B00
B41D000B00
B01D000E00
F02C181D00
E02C1E7C00
D02807E000
ENDCHAR
STARTCHAR Nacute.ss01
ENCODING -1
SWIDTH 799 0
DWIDTH 10 0
BBX 8 15 1 0
BITMAP
000A
002E
0064
0000
28BD
3A9F
3B0B
7D0B
7C0E
B40E
B41D
B01D
F02C
E02C
D028
ENDCHAR
STARTCHAR Ncaron.ss01
ENCODING -1
SWIDTH 799 0
DWIDTH 10 0
BBX 8 15 1 0
BITMAP
024C
01A8
00A0
0000
28BD
3A9F
3B0B
7D0B
7C0E
B40E
B41D
B01D
F02C
E02C
D028
ENDCHAR
STARTCHAR uni0145.ss01
ENCODING -1
SWIDTH 799 0
DWIDTH 10 0
BBX 8 15 1 -4
BITMAP
28BD
3A9F
3B0B
7D0B
7C0E
B40E
B41D
B01D
F02C
E02C
D028
0000
0600
0A00
0500
ENDCHAR
STARTCHAR Eng.ss01
ENCODING -1
SWIDTH 792 0
DWIDTH 10 0
BBX 8 16 1 -5
BITMAP
28BD
3A9F
3B0B
7D0E
7C0E
B81D
B41D
B02C
F038
E038
D074
00B0
00E0
E5D0
7F40
0400
ENDCHAR
STARTCHAR uni01CB.ss01
ENCODING -1
SWIDTH 1008 0
DWIDTH 12 0
BBX 12 17 1 -6
BITMAP
28BD00
3A9F00
3B0B00
7D0B2D
7C0E04
B40E18
B41D28
B01D38
F02C38
E02C34
D02874
0000B0
0002F0
000AA0
000CD0
001EC0
000F40
ENDCHAR
STARTCHAR Ntilde.ss01
ENCODING -1
SWIDTH 799 0
DWIDTH 10 0
BBX 8 15 1 0
BITMAP
0141
07EA
0A68
0000
28BD
3A9F
3B0B
7D0B
7C0E
B40E
B41D
B01D
F02C
E02C
D028
ENDCHAR
STARTCHAR OE.ss01
ENCODING -1
SWIDTH 1166 0
DWIDTH 14 0
BBX 14 11 0 0
BITMAP
01BE2FF0
079BF950
1E02F400
2C01F000
3801F000
3801FFD0
7801E540
3802D000
3C07E000
1E6EB9A0
06F42FD0
ENDCHAR
STARTCHAR P.ss01
ENCODING -1
SWIDTH 662 0
DWIDTH 8 0
BBX 8 11 0 0
BITMAP
1BE4
2FAD
0B0F
0F0B
0E0E
1E2D
7FF4
2E40
2C00
2C00
2800
ENDCHAR
STARTCHAR Thorn.ss01
ENCODING -1
SWIDTH 658 0
DWIDTH 8 0
BBX 8 11 0 0
BITMAP
0700
0B40
1FF8
2F6D
0E0E
1D0E
1D6D
7FE4
2D00
2C00
2800
ENDCHAR
STARTCHAR Q.ss01
ENCODING -1
SWIDTH 816 0
DWIDTH 10 0
BBX 10 15 0 -4
BITMAP
01BE00
079B80
1E02D0
2C01D0
3801E0
3801D0
7801D0
3802C0
3C0780
1FAE00
06F400
007800
002D00
001E00
000400
ENDCHAR
STARTCHAR R.ss01
ENCODING -1
SWIDTH 744 0
DWIDTH 9 0
BBX 8 11 1 0
BITMAP
6F90
FDB4
2C38
3838
3878
39F0
FF80
BB80
B1E0
B0F5
A06E
ENDCHAR
STARTCHAR Racute.ss01
ENCODING -1
SWIDTH 744 0
DWIDTH 9 0
BBX 8 15 1 0
BITMAP
001C
0078
01D0
0000
6F90
FDB4
2C38
3838
3878
39F0
FF80
BB80
B1E0
B0F5
A06E
ENDCHAR
STARTCHAR Rcaron.ss01
ENCODING -1
SWIDTH 744 0
DWIDTH 9 0
BBX 8 15 1 0
BITMAP
0624
07B0
02C0
0000
6F90
FDB4
2C38
3838
3878
39F0
FF80
BB80
B1E0
B0F5
A06E
ENDCHAR
STARTCHAR uni0156.ss01
ENCODING -1
SWIDTH 744 0
DWIDTH 9 0
BBX 8 15 1 -4
BITMAP
6F90
FDB4
2C38
3838
3878
39F0
FF80
BB80
B1E0
B0F5
A06E
0000
0600
0A00
0900
ENDCHAR
STARTCHAR uni0210.ss01
ENCODING -1
SWIDTH 744 0
DWIDTH 9 0
BBX 8 15 1 0
BITMAP
1CC0
0DD0
0960
0000
6F90
FDB4
2C38
3838
3878
39F0
FF80
BB80
B1E0
B0F5
A06E
ENDCHAR
STARTCHAR uni0212.ss01
ENCODING -1
SWIDTH 744 0
DWIDTH 9 0
BBX 8 14 1 0
BITMAP
07F4
0E68
0400
6F90
FDB4
2C38
3838
3878
39F0
FF80
BB80
B1E0
B0F5
A06E
ENDCHAR
STARTCHAR T.ss01
ENCODING -1
SWIDTH 631 0
DWIDTH 8 0
BBX 8 11 1 0
BITMAP
BFFE
5795
0740
0740
0B00
0B00
0E00
0E00
1D00
1D00
1D00
ENDCHAR
STARTCHAR Tbar.ss01
ENCODING -1
SWIDTH 631 0
DWIDTH 8 0
BBX 8 11 1 0
BITMAP
BFFE
5795
0740
0740
0B00
BFF0
5F50
0E00
1E00
1D00
1D00
ENDCHAR
STARTCHAR Tcaron.ss01
ENCODING -1
SWIDTH 631 0
DWIDTH 8 0
BBX 8 15 1 0
BITMAP
0A34
07A0
0280
0000
BFFE
5795
0740
0740
0B00
0B00
0E00
0E00
1D00
1D00
1D00
ENDCHAR
STARTCHAR uni0162.ss01
ENCODING -1
SWIDTH 631 0
DWIDTH 8 0
BBX 8 15 1 -4
BITMAP
BFFE
5795
0740
0740
0B00
0B00
0E00
0E00
1D00
1D00
3D00
1A00
0A00
BD00
1000
ENDCHAR
STARTCHAR uni021A.ss01
ENCODING -1
SWIDTH 631 0
DWIDTH 8 0
BBX 8 15 1 -4
BITMAP
BFFE
5795
0740
0740
0B00
0B00
0E00
0E00
1D00
1D00
1D00
0000
1800
1C00
1800
ENDCHAR
STARTCHAR U.ss01
ENCODING -1
SWIDTH 800 0
DWIDTH 10 0
BBX 8 11 1 0
BITMAP
2807
3C0B
380B
380F
740E
741E
B02E
B07D
F0ED
BBAC
7E28
ENDCHAR
STARTCHAR Uacute.ss01
ENCODING -1
SWIDTH 800 0
DWIDTH 10 0
BBX 8 15 1 0
BITMAP
000A
002E
0064
0000
2807
3C0B
380B
380F
740E
741E
B02E
B07D
F0ED
BBAC
7E28
ENDCHAR
STARTCHAR Ubreve.ss01
ENCODING -1
SWIDTH 800 0
DWIDTH 10 0
BBX 8 14 1 0
BITMAP
075D
03F8
0050
2807
3C0B
380B
380F
740E
741E
B02E
B07D
F0ED
BBAC
7E28
ENDCHAR
STARTCHAR Ucircumflex.ss01
ENCODING -1
SWIDTH 800 0
DWIDTH 10 0
BBX 8 16 1 0
BITMAP
0050
00F4
02A8
0358
0000
2807
3C0B
380B
380F
740E
741E
B02E
B07D
F0ED
BBAC
7E28
ENDCHAR
STARTCHAR uni0214.ss01
ENCODING -1
SWIDTH 800 0
DWIDTH 10 0
BBX 8 15 1 0
BITMAP
0670
0774
0264
0000
2807
3C0B
380B
380F
740E
741E
B02E
B07D
F0ED
BBAC
7E28
ENDCHAR
STARTCHAR Udieresis.ss01
ENCODING -1
SWIDTH 800 0
DWIDTH 10 0
BBX 8 14 1 0
BITMAP
035C
035C
0000
2807
3C0B
380B
380F
740E
741E
B02E
B07D
F0ED
BBAC
7E28
ENDCHAR
STARTCHAR uni1EE4.ss01
ENCODING -1
SWIDTH 800 0
DWIDTH 10 0
BBX 8 14 1 -3
BITMAP
2807
3C0B
380B
380F
740E
741E
B02E
B07D
F0ED
BBAC
7E28
0000
0740
0B40
ENDCHAR
STARTCHAR Ugrave.ss01
ENCODING -1
SWIDTH 800 0
DWIDTH 10 0
BBX 8 15 1 0
BITMAP
1D00
0F40
01C0
0000
2807
3C0B
380B
380F
740E
741E
B02E
B07D
F0ED
BBAC
7E28
ENDCHAR
STARTCHAR uni1EE6.ss01
ENCODING -1
SWIDTH 800 0
DWIDTH 10 0
BBX 8 15 1 0
BITMAP
00F4
0068
00B4
0000
2807
3C0B
380B
380F
740E
741E
B02E
B07D
F0ED
BBAC
7E28
ENDCHAR
STARTCHAR Uhorn.ss01
ENCODING -1
SWIDTH 800 0
DWIDTH 10 0
BBX 10 13 1 0
BITMAP
000070
0000B0
2807D0
3C0B40
380B00
380F00
740E00
741E00
B02E00
B07D00
F0ED00
BBAC00
7E2800
ENDCHAR
STARTCHAR uni1EE8.ss01
ENCODING -1
SWIDTH 800 0
DWIDTH 10 0
BBX 10 15 1 0
BITMAP
000A00
002E00
006470
0000B0
2807D0
3C0B40
380B00
380F00
740E00
741E00
B02E00
B07D00
F0ED00
BBAC00
7E2800
ENDCHAR
STARTCHAR uni1EF0.ss01
ENCODING -1
SWIDTH 800 0
DWIDTH 10 0
BBX 10 16 1 -3
BITMAP
000070
0000B0
2807D0
3C0B40
380B00
380F00
740E00
741E00
B02E00
B07D00
F0ED00
BBAC00
7E2800
000000
074000
0B4000
ENDCHAR
STARTCHAR uni1EEA.ss01
ENCODING -1
SWIDTH 800 0
DWIDTH 10 0
BBX 10 15 1 0
BITMAP
1D0000
0F4000
01C070
0000B0
2807D0
3C0B40
380B00
380F00
740E00
741E00
B02E00
B07D00
F0ED00
BBAC00
7E2800
ENDCHAR
STARTCHAR uni1EEC.ss01
ENCODING -1
SWIDTH 800 0
DWIDTH 10 0
BBX 10 15 1 0
BITMAP
00F400
006800
00B470
0000B0
2807D0
3C0B40
380B00
380F00
740E00
741E00
B02E00
B07D00
F0ED00
BBAC00
7E2800
ENDCHAR
STARTCHAR uni1EEE.ss01
ENCODING -1
SWIDTH 800 0
DWIDTH 10 0
BBX 10 15 1 0
BITMAP
014100
07EA00
0A6870
0000B0
2807D0
3C0B40
380B00
380F00
740E00
741E00
B02E00
B07D00
F0ED00
BBAC00
7E2800
ENDCHAR
STARTCHAR Uhungarumlaut.ss01
ENCODING -1
SWIDTH 800 0
DWIDTH 10 0
BBX 8 15 1 0
BITMAP
00CD
01DC
0258
0000
2807
3C0B
380B
380F
740E
741E
B02E
B07D
F0ED
BBAC
7E28
ENDCHAR
STARTCHAR uni0216.ss01
ENCODING -1
SWIDTH 800 0
DWIDTH 10 0
BBX 8 14 1 0
BITMAP
02F8
075D
0000
2807
3C0B
380B
380F
740E
741E
B02E
B07D
F0ED
BBAC
7E28
ENDCHAR
STARTCHAR Umacron.ss01
ENCODING -1
SWIDTH 800 0
DWIDTH 10 0
BBX 8 13 1 0
BITMAP
03F8
0150
2807
3C0B
380B
380F
740E
741E
B02E
B07D
F0ED
BBAC
7E28
ENDCHAR
STARTCHAR Uogonek.ss01
ENCODING -1
SWIDTH 800 0
DWIDTH 10 0
BBX 8 15 1 -4
BITMAP
2807
3C0B
380B
380F
740E
741E
B02E
B07D
F0ED
BBAC
7E28
0030
0074
003E
0004
ENDCHAR
STARTCHAR Uring.ss01
ENCODING -1
SWIDTH 800 0
DWIDTH 10 0
BBX 8 15 1 0
BITMAP
00F4
01A8
01F4
0000
2807
3C0B
380B
380F
740E
741E
B02E
B07D
F0ED
BBAC
7E28
ENDCHAR
STARTCHAR Utilde.ss01
ENCODING -1
SWIDTH 800 0
DWIDTH 10 0
BBX 8 15 1 0
BITMAP
0141
07EA
0A68
0000
2807
3C0B
380B
380F
740E
741E
B02E
B07D
F0ED
BBAC
7E28
ENDCHAR
STARTCHAR V.ss01
ENCODING -1
SWIDTH 797 0
DWIDTH 10 0
BBX 9 11 1 0
BITMAP
340280
740780
740740
740B00
B40F00
B40E00
742D00
743800
38B400
2FE000
1F4000
ENDCHAR
STARTCHAR W.ss01
ENCODING -1
SWIDTH 1236 0
DWIDTH 15 0
BBX 14 11 1 0
BITMAP
340700B0
740B00F0
740F00E0
740F01D0
B41F02C0
B42E03C0
743F0740
747B0B00
78E71E00
3FC3FC00
1E42E000
ENDCHAR
STARTCHAR Wacute.ss01
ENCODING -1
SWIDTH 1236 0
DWIDTH 15 0
BBX 14 15 1 0
BITMAP
00002400
0001F400
00028000
00000000
340700B0
740B00F0
740F00E0
740F01D0
B41F02C0
B42E03C0
743F0740
747B0B00
78E71E00
3FC3FC00
1E42E000
ENDCHAR
STARTCHAR Wcircumflex.ss01
ENCODING -1
SWIDTH 1236 0
DWIDTH 15 0
BBX 14 16 1 0
BITMAP
00014000
0007C000
000DD000
00189000
00000000
340700B0
740B00F0
740F00E0
740F01D0
B41F02C0
B42E03C0
743F0740
747B0B00
78E71E00
3FC3FC00
1E42E000
ENDCHAR
STARTCHAR Wdieresis.ss01
ENCODING -1
SWIDTH 1236 0
DWIDTH 15 0
BBX 14 14 1 0
BITMAP
001CE000
001CA000
00000000
340700B0
740B00F0
740F00E0
740F01D0
B41F02C0
B42E03C0
743F0740
747B0B00
78E71E00
3FC3FC00
1E42E000
ENDCHAR
STARTCHAR Wgrave.ss01
ENCODING -1
SWIDTH 1236 0
DWIDTH 15 0
BBX 14 15 1 0
BITMAP
00A00000
00780000
000A0000
00000000
340700B0
740B00F0
740F00E0
740F01D0
B41F02C0
B42E03C0
743F0740
747B0B00
78E71E00
3FC3FC00
1E42E000
ENDCHAR
STARTCHAR X.ss01
ENCODING -1
SWIDTH 677 0
DWIDTH 8 0
BBX 10 11 -1 0
BITMAP
0740A0
0382D0
02D780
01EE00
00BC00
00B400
01FC00
079D00
1E0E00
3C0B40
740740
ENDCHAR
STARTCHAR Y.ss01
ENCODING -1
SWIDTH 776 0
DWIDTH 9 0
BBX 8 11 1 0
BITMAP
340A
780B
740E
741E
B42E
B07D
7EED
2F5C
0028
A5B4
6F90
ENDCHAR
STARTCHAR Yacute.ss01
ENCODING -1
SWIDTH 776 0
DWIDTH 9 0
BBX 8 15 1 0
BITMAP
0009
003D
00A0
0000
340A
780B
740E
741E
B42E
B07D
7EED
2F5C
0028
A5B4
6F90
ENDCHAR
STARTCHAR Ycircumflex.ss01
ENCODING -1
SWIDTH 776 0
DWIDTH 9 0
BBX 8 16 1 0
BITMAP
0050
01F0
0374
0624
0000
340A
780B
740E
741E
B42E
B07D
7EED
2F5C
0028
A5B4
6F90
ENDCHAR
STARTCHAR Ydieresis.ss01
ENCODING -1
SWIDTH 776 0
DWIDTH 9 0
BBX 8 14 1 0
BITMAP
0768
0728
0000
340A
780B
740E
741E
B42E
B07D
7EED
2F5C
0028
A5B4
6F90
ENDCHAR
STARTCHAR uni1EF4.ss01
ENCODING -1
SWIDTH 776 0
DWIDTH 9 0
BBX 8 14 1 -3
BITMAP
340A
780B
740E
741E
B42E
B07D
7EED
2F5C
0028
A5B4
6F90
0000
0E00
0E00
ENDCHAR
STARTCHAR Ygrave.ss01
ENCODING -1
SWIDTH 776 0
DWIDTH 9 0
BBX 8 15 1 0
BITMAP
2800
1F00
0280
0000
340A
780B
740E
741E
B42E
B07D
7EED
2F5C
0028
A5B4
6F90
ENDCHAR
STARTCHAR uni1EF6.ss01
ENCODING -1
SWIDTH 776 0
DWIDTH 9 0
BBX 8 15 1 0
BITMAP
01F0
0074
00F0
0040
340A
780B
740E
741E
B42E
B07D
7EED
2F5C
0028
A5B4
6F90
ENDCHAR
STARTCHAR uni0232.ss01
ENCODING -1
SWIDTH 776 0
DWIDTH 9 0
BBX 8 13 1 0
BITMAP
07F4
0150
340A
780B
740E
741E
B42E
B07D
7EED
2F5C
0028
A5B4
6F90
ENDCHAR
STARTCHAR uni1EF8.ss01
ENCODING -1
SWIDTH 776 0
DWIDTH 9 0
BBX 8 15 1 0
BITMAP
0104
0BDD
0978
0000
340A
780B
740E
741E
B42E
B07D
7EED
2F5C
0028
A5B4
6F90
ENDCHAR
STARTCHAR Z.ss01
ENCODING -1
SWIDTH 665 0
DWIDTH 8 0
BBX 8 11 0 0
BITMAP
2FFF
155F
002E
007C
00F4
02E0
0780
0F00
2D00
BD54
BFFE
ENDCHAR
STARTCHAR Zacute.ss01
ENCODING -1
SWIDTH 665 0
DWIDTH 8 0
BBX 8 15 0 0
BITMAP
0007
001E
0074
0000
2FFF
155F
002E
007C
00F4
02E0
0780
0F00
2D00
BD54
BFFE
ENDCHAR
STARTCHAR Zcaron.ss01
ENCODING -1
SWIDTH 665 0
DWIDTH 8 0
BBX 8 15 0 0
BITMAP
0189
01EC
00B4
0000
2FFF
155F
002E
007C
00F4
02E0
0780
0F00
2D00
BD54
BFFE
ENDCHAR
STARTCHAR Zdotaccent.ss01
ENCODING -1
SWIDTH 665 0
DWIDTH 8 0
BBX 8 14 0 0
BITMAP
00B4
00B0
0000
2FFF
155F
002E
007C
00F4
02E0
0780
0F00
2D00
BD54
BFFE
ENDCHAR
STARTCHAR i.loclTRK
ENCODING -1
SWIDTH 246 0
DWIDTH 3 0
BBX 5 8 0 0
BITMAP
2C00
0000
2400
3400
7400
7140
7B40
3D00
ENDCHAR
STARTCHAR a.fina
ENCODING -1
SWIDTH 458 0
DWIDTH 6 0
BBX 5 6 0 0
BITMAP
0BC0
2EC0
75C0
B2C0
7BC0
3A80
ENDCHAR
STARTCHAR aacute.fina
ENCODING -1
SWIDTH 458 0
DWIDTH 6 0
BBX 6 11 0 0
BITMAP
0060
00E0
01C0
0240
0000
0BC0
2EC0
75C0
B2C0
7BC0
3A80
ENDCHAR
STARTCHAR abreve.fina
ENCODING -1
SWIDTH 458 0
DWIDTH 6 0
BBX 7 10 0 0
BITMAP
1420
2D74
0FE0
0100
0BC0
2EC0
75C0
B2C0
7BC0
3A80
ENDCHAR
STARTCHAR uni1EAF.fina
ENCODING -1
SWIDTH 458 0
DWIDTH 6 0
BBX 7 11 0 0
BITMAP
00A0
0190
2D74
1FE0
0140
0BC0
2EC0
75C0
B2C0
7BC0
3A80
ENDCHAR
STARTCHAR uni1EB7.fina
ENCODING -1
SWIDTH 458 0
DWIDTH 6 0
BBX 7 13 0 -3
BITMAP
1420
2D74
0FE0
0100
0BC0
2EC0
75C0
B2C0
7BC0
3A80
0000
2D00
2D00
ENDCHAR
STARTCHAR uni1EB1.fina
ENCODING -1
SWIDTH 458 0
DWIDTH 6 0
BBX 7 11 0 0
BITMAP
0A00
0640
2C74
0FE0
0100
0BC0
2EC0
75C0
B2C0
7BC0
3A80
ENDCHAR
STARTCHAR uni1EB3.fina
ENCODING -1
SWIDTH 458 0
DWIDTH 6 0
BBX 7 12 0 0
BITMAP
03C0
01C0
02C0
2D74
1FE0
0140
0BC0
2EC0
75C0
B2C0
7BC0
3A80
ENDCHAR
STARTCHAR uni1EB5.fina
ENCODING -1
SWIDTH 458 0
DWIDTH 6 0
BBX 7 12 0 0
BITMAP
0614
0EF4
1860
2C74
0FE0
0100
0BC0
2EC0
75C0
B2C0
7BC0
3A80
ENDCHAR
STARTCHAR acircumflex.fina
ENCODING -1
SWIDTH 458 0
DWIDTH 6 0
BBX 6 11 0 0
BITMAP
02C0
07D0
0DA0
1CA0
0000
0BC0
2EC0
75C0
B2C0
7BC0
3A80
ENDCHAR
STARTCHAR uni1EA5.fina
ENCODING -1
SWIDTH 458 0
DWIDTH 6 0
BBX 8 12 0 0
BITMAP
0004
001D
0150
0AD0
1CA0
0000
0BC0
2EC0
75C0
B2C0
7BC0
3A80
ENDCHAR
STARTCHAR uni1EAD.fina
ENCODING -1
SWIDTH 458 0
DWIDTH 6 0
BBX 6 14 0 -3
BITMAP
02C0
07D0
0DA0
1CA0
0000
0BC0
2EC0
75C0
B2C0
7BC0
3A80
0000
2D00
2D00
ENDCHAR
STARTCHAR uni1EA7.fina
ENCODING -1
SWIDTH 458 0
DWIDTH 6 0
BBX 6 12 0 0
BITMAP
1000
7400
0540
0AD0
1CA0
0000
0BC0
2EC0
75C0
B2C0
7BC0
3A80
ENDCHAR
STARTCHAR uni1EA9.fina
ENCODING -1
SWIDTH 458 0
DWIDTH 6 0
BBX 8 11 0 0
BITMAP
002D
001A
03ED
0AE4
1860
0BC0
2EC0
75C0
B2C0
7BC0
3A80
ENDCHAR
STARTCHAR uni1EAB.fina
ENCODING -1
SWIDTH 458 0
DWIDTH 6 0
BBX 7 12 0 0
BITMAP
0B64
0DA0
0280
0AD0
1CA0
0000
0BC0
2EC0
75C0
B2C0
7BC0
3A80
ENDCHAR
STARTCHAR uni0201.fina
ENCODING -1
SWIDTH 458 0
DWIDTH 6 0
BBX 6 11 0 0
BITMAP
3640
3A80
19C0
0890
0000
0BC0
2EC0
75C0
B2C0
7BC0
3A80
ENDCHAR
STARTCHAR adieresis.fina
ENCODING -1
SWIDTH 458 0
DWIDTH 6 0
BBX 6 9 0 0
BITMAP
0DA0
0DA0
0000
0BC0
2EC0
75C0
B2C0
7BC0
3A80
ENDCHAR
STARTCHAR uni1EA1.fina
ENCODING -1
SWIDTH 458 0
DWIDTH 6 0
BBX 5 9 0 -3
BITMAP
0BC0
2EC0
75C0
B2C0
7BC0
3A80
0000
2D00
2D00
ENDCHAR
STARTCHAR agrave.fina
ENCODING -1
SWIDTH 458 0
DWIDTH 6 0
BBX 5 11 0 0
BITMAP
1C00
1D00
0A00
0200
0000
0BC0
2EC0
75C0
B2C0
7BC0
3A80
ENDCHAR
STARTCHAR uni1EA3.fina
ENCODING -1
SWIDTH 458 0
DWIDTH 6 0
BBX 6 10 0 0
BITMAP
07D0
01D0
03C0
0100
0BC0
2EC0
75C0
B2C0
7BC0
3A80
ENDCHAR
STARTCHAR uni0203.fina
ENCODING -1
SWIDTH 458 0
DWIDTH 6 0
BBX 7 10 0 0
BITMAP
0BE0
1DB4
1420
0000
0BC0
2EC0
75C0
B2C0
7BC0
3A80
ENDCHAR
STARTCHAR amacron.fina
ENCODING -1
SWIDTH 458 0
DWIDTH 6 0
BBX 6 8 0 0
BITMAP
0FE0
0540
0BC0
2EC0
75C0
B2C0
7BC0
3A80
ENDCHAR
STARTCHAR aogonek.fina
ENCODING -1
SWIDTH 458 0
DWIDTH 6 0
BBX 6 9 0 -3
BITMAP
0B40
2ED0
75C0
B2C0
7BC0
3A80
0700
0700
03E0
ENDCHAR
STARTCHAR aring.fina
ENCODING -1
SWIDTH 458 0
DWIDTH 6 0
BBX 6 10 0 0
BITMAP
07D0
0A90
07D0
0100
0BC0
2EC0
75C0
B2C0
7BC0
3A80
ENDCHAR
STARTCHAR aringacute.fina
ENCODING -1
SWIDTH 458 0
DWIDTH 6 0
BBX 8 12 0 0
BITMAP
0001
03D9
0A90
0A90
07C0
0100
0BC0
2EC0
75C0
B2C0
7BC0
3A80
ENDCHAR
STARTCHAR atilde.fina
ENCODING -1
SWIDTH 458 0
DWIDTH 6 0
BBX 7 10 0 0
BITMAP
0510
1F74
25E0
0000
0BC0
2EC0
75C0
B2C0
7BC0
3A80
ENDCHAR
STARTCHAR ae.fina
ENCODING -1
SWIDTH 671 0
DWIDTH 8 0
BBX 9 6 0 0
BITMAP
0BAD00
2EEA00
75CA00
B2F900
7BE740
2D7D00
ENDCHAR
STARTCHAR aeacute.fina
ENCODING -1
SWIDTH 671 0
DWIDTH 8 0
BBX 9 11 0 0
BITMAP
000D00
001D00
002800
002000
000000
0BAD00
2EEA00
75CA00
B2F900
7BE740
2D7D00
ENDCHAR
STARTCHAR b.fina
ENCODING -1
SWIDTH 475 0
DWIDTH 6 0
BBX 6 12 0 0
BITMAP
0780
0EC0
1CC0
29C0
3A40
3B00
7F40
7AD0
74D0
74D0
3AC0
1F40
ENDCHAR
STARTCHAR c.fina
ENCODING -1
SWIDTH 404 0
DWIDTH 5 0
BBX 5 6 0 0
BITMAP
1F00
3B40
7200
B040
7AC0
2F40
ENDCHAR
STARTCHAR cacute.fina
ENCODING -1
SWIDTH 404 0
DWIDTH 5 0
BBX 6 11 0 0
BITMAP
00D0
01C0
0340
0600
0000
1F00
3B40
7200
B040
7AC0
2F40
ENDCHAR
STARTCHAR ccaron.fina
ENCODING -1
SWIDTH 404 0
DWIDTH 5 0
BBX 6 11 0 0
BITMAP
1CA0
1DD0
0E80
0B00
0000
1F00
3B40
7200
B040
7AC0
2F40
ENDCHAR
STARTCHAR ccedilla.fina
ENCODING -1
SWIDTH 404 0
DWIDTH 5 0
BBX 5 10 0 -4
BITMAP
1F00
3B40
7200
B040
75C0
2F40
1B00
0700
7E00
1400
ENDCHAR
STARTCHAR ccircumflex.fina
ENCODING -1
SWIDTH 404 0
DWIDTH 5 0
BBX 5 11 0 0
BITMAP
0740
0E80
1DC0
24C0
0000
1F00
3B40
7200
B040
7AC0
2F40
ENDCHAR
STARTCHAR cdotaccent.fina
ENCODING -1
SWIDTH 404 0
DWIDTH 5 0
BBX 5 8 0 0
BITMAP
0B40
0100
1F00
3B40
7200
B040
7AC0
2F40
ENDCHAR
STARTCHAR d.fina
ENCODING -1
SWIDTH 493 0
DWIDTH 6 0
BBX 8 12 0 0
BITMAP
0028
006D
0099
00DC
01DC
01D8
0BE0
2EE0
76D0
B1C0
7BD0
2DD0
ENDCHAR
STARTCHAR dcaron.fina
ENCODING -1
SWIDTH 458 0
DWIDTH 6 0
BBX 8 12 0 0
BITMAP
0007
007A
00B9
00B0
00A0
00D0
0BD0
2EC0
75C0
B2C0
7BC0
3A80
ENDCHAR
STARTCHAR dcroat.fina
ENCODING -1
SWIDTH 458 0
DWIDTH 6 0
BBX 7 11 0 0
BITMAP
0070
00B0
0FF8
05E0
00D0
0BD0
2EC0
75C0
B2C0
7BC0
3A80
ENDCHAR
STARTCHAR uni01C6.fina
ENCODING -1
SWIDTH 876 0
DWIDTH 11 0
BBX 12 17 0 -6
BITMAP
00724D
00B2A8
00B1F4
00A0E0
00D544
0BDBFC
2EC5F4
75C2D0
B2CB40
7BEF80
3DE1D0
0003E0
000DD0
0029D0
002680
002F00
000400
ENDCHAR
STARTCHAR e.fina
ENCODING -1
SWIDTH 411 0
DWIDTH 5 0
BBX 5 6 0 0
BITMAP
1F40
7B80
B340
BD40
7AC0
2F40
ENDCHAR
STARTCHAR eacute.fina
ENCODING -1
SWIDTH 411 0
DWIDTH 5 0
BBX 6 11 0 0
BITMAP
00D0
01C0
0280
0200
0000
1F40
7B80
B340
BD40
7AC0
2F40
ENDCHAR
STARTCHAR ebreve.fina
ENCODING -1
SWIDTH 411 0
DWIDTH 5 0
BBX 6 10 0 0
BITMAP
2050
38A0
1FD0
0100
1F40
7B80
B340
BD40
7AC0
2F40
ENDCHAR
STARTCHAR ecaron.fina
ENCODING -1
SWIDTH 411 0
DWIDTH 5 0
BBX 6 11 0 0
BITMAP
1C60
0DD0
0E80
0B00
0000
1F40
7B80
B340
BD40
7AC0
2F40
ENDCHAR
STARTCHAR ecircumflex.fina
ENCODING -1
SWIDTH 411 0
DWIDTH 5 0
BBX 5 11 0 0
BITMAP
0740
0A80
1DC0
24C0
0000
1F40
7B80
B340
BD40
7AC0
2F40
ENDCHAR
STARTCHAR uni1EBF.fina
ENCODING -1
SWIDTH 411 0
DWIDTH 5 0
BBX 7 12 0 0
BITMAP
0004
0028
0150
0E80
28C0
0000
1F40
7B80
B340
BD40
7AC0
2F40
ENDCHAR
STARTCHAR uni1EC7.fina
ENCODING -1
SWIDTH 411 0
DWIDTH 5 0
BBX 5 14 0 -3
BITMAP
0740
0A80
1DC0
24C0
0000
1F40
7B80
B340
BD40
7AC0
2F40
0000
1D00
1D00
ENDCHAR
STARTCHAR uni1EC1.fina
ENCODING -1
SWIDTH 411 0
DWIDTH 5 0
BBX 5 12 0 0
BITMAP
4000
B000
1500
0E80
28C0
0000
1F40
7B80
B340
BD40
7AC0
2F40
ENDCHAR
STARTCHAR uni1EC3.fina
ENCODING -1
SWIDTH 411 0
DWIDTH 5 0
BBX 7 11 0 0
BITMAP
0078
002C
0B78
1ED0
2480
1F40
7B80
B340
BD40
7AC0
2F40
ENDCHAR
STARTCHAR uni1EC5.fina
ENCODING -1
SWIDTH 411 0
DWIDTH 5 0
BBX 6 12 0 0
BITMAP
0E60
2AD0
0640
1EC0
28C0
0000
1F40
7B80
B340
BD40
7AC0
2F40
ENDCHAR
STARTCHAR uni0205.fina
ENCODING -1
SWIDTH 411 0
DWIDTH 5 0
BBX 5 11 0 0
BITMAP
6600
7740
3640
1580
0000
1F40
7B80
B340
BD40
7AC0
2F40
ENDCHAR
STARTCHAR edieresis.fina
ENCODING -1
SWIDTH 411 0
DWIDTH 5 0
BBX 6 9 0 0
BITMAP
28D0
28D0
0000
1F40
7B80
B340
BD40
7AC0
2F40
ENDCHAR
STARTCHAR edotaccent.fina
ENCODING -1
SWIDTH 411 0
DWIDTH 5 0
BBX 5 8 0 0
BITMAP
0B40
0100
1F40
7B80
B340
BD40
7AC0
2F40
ENDCHAR
STARTCHAR uni1EB9.fina
ENCODING -1
SWIDTH 411 0
DWIDTH 5 0
BBX 5 9 0 -3
BITMAP
1F40
7B80
B340
BD40
7AC0
2F40
0000
1D00
1D00
ENDCHAR
STARTCHAR egrave.fina
ENCODING -1
SWIDTH 411 0
DWIDTH 5 0
BBX 5 11 0 0
BITMAP
2400
2C00
0D00
0600
0000
1F40
7B80
B340
BD40
7AC0
2F40
ENDCHAR
STARTCHAR uni1EBB.fina
ENCODING -1
SWIDTH 411 0
DWIDTH 5 0
BBX 5 10 0 0
BITMAP
0B80
06C0
0780
0100
1F40
7B80
B340
BD40
7AC0
2F40
ENDCHAR
STARTCHAR uni0207.fina
ENCODING -1
SWIDTH 411 0
DWIDTH 5 0
BBX 6 10 0 0
BITMAP
1FD0
39E0
2060
0000
1F40
7B80
B340
BD40
7AC0
2F40
ENDCHAR
STARTCHAR emacron.fina
ENCODING -1
SWIDTH 411 0
DWIDTH 5 0
BBX 5 8 0 0
BITMAP
2FC0
0540
1F40
7B80
B340
BD40
7AC0
2F40
ENDCHAR
STARTCHAR eogonek.fina
ENCODING -1
SWIDTH 411 0
DWIDTH 5 0
BBX 5 10 0 -4
BITMAP
1F40
3B80
7340
BE40
75C0
2F40
0D00
0D00
0BC0
0100
ENDCHAR
STARTCHAR uni1EBD.fina
ENCODING -1
SWIDTH 411 0
DWIDTH 5 0
BBX 6 10 0 0
BITMAP
0410
2EA0
32D0
0000
1F40
7B80
B340
BD40
7AC0
2F40
ENDCHAR
STARTCHAR g.fina
ENCODING -1
SWIDTH 449 0
DWIDTH 5 0
BBX 5 12 0 -6
BITMAP
0B40
2EC0
75C0
B2C0
7B80
3F80
0B40
2F40
6700
9A00
ED00
B400
ENDCHAR
STARTCHAR gbreve.fina
ENCODING -1
SWIDTH 449 0
DWIDTH 5 0
BBX 7 16 0 -6
BITMAP
1420
2D74
0FE0
0100
0B40
2EC0
75C0
B2C0
7B80
3F80
0B40
2F40
6700
9A00
ED00
B400
ENDCHAR
STARTCHAR gcaron.fina
ENCODING -1
SWIDTH 449 0
DWIDTH 5 0
BBX 6 17 0 -6
BITMAP
0930
0AA0
07D0
0380
0000
0B40
2EC0
75C0
B2C0
7B80
3F80
0B40
2F40
6700
9A00
ED00
B400
ENDCHAR
STARTCHAR gcircumflex.fina
ENCODING -1
SWIDTH 449 0
DWIDTH 5 0
BBX 6 17 0 -6
BITMAP
02C0
07D0
0DA0
1CA0
0000
0B40
2EC0
75C0
B2C0
7B80
3F80
0B40
2F40
6700
9A00
ED00
B400
ENDCHAR
STARTCHAR uni0123.fina
ENCODING -1
SWIDTH 449 0
DWIDTH 5 0
BBX 5 16 0 -6
BITMAP
0180
0280
0240
0000
0B40
2EC0
75C0
B2C0
7B80
3F80
0B40
2F40
6700
9A00
ED00
B400
ENDCHAR
STARTCHAR gdotaccent.fina
ENCODING -1
SWIDTH 449 0
DWIDTH 5 0
BBX 5 14 0 -6
BITMAP
0380
0100
0B40
2EC0
75C0
B2C0
7B80
3F80
0B40
2F40
6700
9A00
ED00
B400
ENDCHAR
STARTCHAR h.fina
ENCODING -1
SWIDTH 490 0
DWIDTH 6 0
BBX 6 12 0 0
BITMAP
0780
0EC0
1CC0
2980
3A40
3A00
7DD0
77E0
79D0
7DD0
79D0
35C0
ENDCHAR
STARTCHAR hbar.fina
ENCODING -1
SWIDTH 490 0
DWIDTH 6 0
BBX 6 11 0 0
BITMAP
0D00
1D00
7FD0
2D40
3800
35D0
37E0
7DD0
7DD0
79D0
35C0
ENDCHAR
STARTCHAR hcircumflex.fina
ENCODING -1
SWIDTH 490 0
DWIDTH 6 0
BBX 6 17 0 0
BITMAP
0040
03E0
0BB0
0D70
0000
0780
0EC0
1CC0
2980
3A40
3A00
7DD0
77E0
79D0
7DD0
79D0
35C0
ENDCHAR
STARTCHAR i.fina
ENCODING -1
SWIDTH 222 0
DWIDTH 3 0
BBX 4 8 0 0
BITMAP
2D
04
28
34
74
70
B0
60
ENDCHAR
STARTCHAR dotlessi.fina
ENCODING -1
SWIDTH 222 0
DWIDTH 3 0
BBX 3 6 0 0
BITMAP
28
34
74
70
B0
60
ENDCHAR
STARTCHAR iacute.fina
ENCODING -1
SWIDTH 222 0
DWIDTH 3 0
BBX 4 11 0 0
BITMAP
03
0B
0D
18
00
28
34
74
70
B0
60
ENDCHAR
STARTCHAR iacute_j.loclNLD.fina
ENCODING -1
SWIDTH 479 0
DWIDTH 6 0
BBX 7 17 0 -6
BITMAP
035C
0768
0A74
0850
0000
24D0
35C0
72C0
7780
7F80
3A80
0B40
2F00
6700
DA00
ED00
B400
ENDCHAR
STARTCHAR ibreve.fina
ENCODING -1
SWIDTH 222 0
DWIDTH 3 0
BBX 5 10 0 0
BITMAP
8140
E780
BF00
1400
2800
3400
7400
7000
B000
6000
ENDCHAR
STARTCHAR icircumflex.fina
ENCODING -1
SWIDTH 222 0
DWIDTH 3 0
BBX 4 11 0 0
BITMAP
1D
3A
77
93
00
28
34
74
70
B0
60
ENDCHAR
STARTCHAR uni0209.fina
ENCODING -1
SWIDTH 222 0
DWIDTH 3 0
BBX 5 11 -1 0
BITMAP
A600
B700
3740
1580
0000
0A00
0D00
1D00
1C00
2C00
1800
ENDCHAR
STARTCHAR idieresis.fina
ENCODING -1
SWIDTH 222 0
DWIDTH 3 0
BBX 5 9 0 0
BITMAP
A740
A740
0000
2800
3400
7400
7000
B000
6000
ENDCHAR
STARTCHAR i.loclTRK.fina
ENCODING -1
SWIDTH 222 0
DWIDTH 3 0
BBX 3 8 0 0
BITMAP
2C
04
28
34
74
70
B0
60
ENDCHAR
STARTCHAR uni1ECB.fina
ENCODING -1
SWIDTH 222 0
DWIDTH 3 0
BBX 4 11 0 -3
BITMAP
2D
04
28
34
74
70
B0
60
00
E0
E0
ENDCHAR
STARTCHAR igrave.fina
ENCODING -1
SWIDTH 222 0
DWIDTH 3 0
BBX 3 11 0 0
BITMAP
D0
E0
70
14
00
28
34
74
70
B0
60
ENDCHAR
STARTCHAR uni1EC9.fina
ENCODING -1
SWIDTH 222 0
DWIDTH 3 0
BBX 4 10 0 0
BITMAP
3E
1A
1D
04
28
34
74
70
B0
60
ENDCHAR
STARTCHAR uni020B.fina
ENCODING -1
SWIDTH 222 0
DWIDTH 3 0
BBX 5 10 0 0
BITMAP
7E00
E780
8140
0000
2800
3400
7400
7000
B000
6000
ENDCHAR
STARTCHAR imacron.fina
ENCODING -1
SWIDTH 222 0
DWIDTH 3 0
BBX 4 8 0 0
BITMAP
BF
15
28
34
74
70
B0
60
ENDCHAR
STARTCHAR iogonek.fina
ENCODING -1
SWIDTH 222 0
DWIDTH 3 0
BBX 4 12 -1 -4
BITMAP
0B
01
0A
0D
1D
1C
2C
2C
34
70
3E
04
ENDCHAR
STARTCHAR itilde.fina
ENCODING -1
SWIDTH 222 0
DWIDTH 3 0
BBX 6 10 -1 0
BITMAP
1410
3EA0
62C0
0000
0A00
0D00
1D00
1C00
2C00
1800
ENDCHAR
STARTCHAR j.fina
ENCODING -1
SWIDTH 229 0
DWIDTH 3 0
BBX 6 14 -3 -6
BITMAP
00F0
0040
0090
00D0
01D0
01C0
01C0
02C0
0780
1F40
3740
6700
AE00
7800
ENDCHAR
STARTCHAR uni0237.fina
ENCODING -1
SWIDTH 229 0
DWIDTH 3 0
BBX 6 12 -3 -6
BITMAP
0090
00D0
01D0
01C0
01C0
02C0
0780
1F40
3740
6700
AE00
7800
ENDCHAR
STARTCHAR jcircumflex.fina
ENCODING -1
SWIDTH 229 0
DWIDTH 3 0
BBX 7 17 -3 -6
BITMAP
0074
00E8
0298
035C
0000
0090
00D0
01D0
01C0
01C0
02C0
0780
1F40
3740
6700
AE00
7800
ENDCHAR
STARTCHAR k.fina
ENCODING -1
SWIDTH 521 0
DWIDTH 6 0
BBX 6 12 0 0
BITMAP
0780
0EC0
1CC0
2980
3A40
3A00
7DE0
77B0
79B0
7AD0
76D0
35F0
ENDCHAR
STARTCHAR uni0137.fina
ENCODING -1
SWIDTH 521 0
DWIDTH 6 0
BBX 6 16 0 -4
BITMAP
0780
0EC0
1CC0
2980
3A40
3A00
7DE0
77B0
79B0
7AD0
76D0
35F0
0000
0900
0D00
0C00
ENDCHAR
STARTCHAR kgreenlandic.fina
ENCODING -1
SWIDTH 541 0
DWIDTH 6 0
BBX 7 6 0 0
BITMAP
26E0
3BB0
7E60
7E04
7F68
72E0
ENDCHAR
STARTCHAR l.fina
ENCODING -1
SWIDTH 368 0
DWIDTH 4 0
BBX 5 12 0 0
BITMAP
0780
0EC0
1CC0
28C0
3980
3640
7700
7A00
7C00
7400
3A80
1F40
ENDCHAR
STARTCHAR lacute.fina
ENCODING -1
SWIDTH 368 0
DWIDTH 4 0
BBX 7 16 0 0
BITMAP
001C
00B8
0190
0000
0780
0EC0
1CC0
28C0
3980
3640
7700
7A00
7C00
7400
3A80
1F40
ENDCHAR
STARTCHAR lcaron.fina
ENCODING -1
SWIDTH 368 0
DWIDTH 4 0
BBX 7 12 0 0
BITMAP
0798
0EE8
1CE4
28C0
3980
3640
7700
7A00
7C00
7400
3A80
1F40
ENDCHAR
STARTCHAR uni013C.fina
ENCODING -1
SWIDTH 368 0
DWIDTH 4 0
BBX 5 16 0 -4
BITMAP
0780
0EC0
1CC0
28C0
3980
3640
7700
7A00
7C00
7400
3A80
1F40
0000
1800
2800
2400
ENDCHAR
STARTCHAR ldot.fina
ENCODING -1
SWIDTH 466 0
DWIDTH 6 0
BBX 6 12 0 0
BITMAP
0A00
0E00
1D00
1C00
2C00
3A80
3B80
7400
7000
7420
79E0
2F40
ENDCHAR
STARTCHAR uni01C9.fina
ENCODING -1
SWIDTH 555 0
DWIDTH 7 0
BBX 7 18 0 -6
BITMAP
0780
0EC0
1CC0
28C0
39FC
3690
7734
7A74
7C74
7470
3AF0
1EE0
01E0
07D0
0DC0
2AC0
2B40
1E00
ENDCHAR
STARTCHAR lslash.fina
ENCODING -1
SWIDTH 368 0
DWIDTH 4 0
BBX 7 13 0 0
BITMAP
07F8
1E50
0780
0EC0
1CC0
29C0
3680
7740
7A00
7C00
7400
3A80
1F40
ENDCHAR
STARTCHAR m.fina
ENCODING -1
SWIDTH 732 0
DWIDTH 9 0
BBX 9 6 0 0
BITMAP
25D740
3BEF40
7DF740
79E740
75D700
71C700
ENDCHAR
STARTCHAR n.fina
ENCODING -1
SWIDTH 484 0
DWIDTH 6 0
BBX 6 6 0 0
BITMAP
25D0
37D0
79D0
79D0
75C0
71C0
ENDCHAR
STARTCHAR nacute.fina
ENCODING -1
SWIDTH 484 0
DWIDTH 6 0
BBX 6 11 0 0
BITMAP
0060
00E0
01C0
0240
0000
25D0
37D0
79D0
79D0
75C0
71C0
ENDCHAR
STARTCHAR napostrophe.fina
ENCODING -1
SWIDTH 484 0
DWIDTH 6 0
BBX 6 10 0 0
BITMAP
9000
D000
C000
0000
25D0
37D0
79D0
79D0
75C0
71C0
ENDCHAR
STARTCHAR ncaron.fina
ENCODING -1
SWIDTH 484 0
DWIDTH 6 0
BBX 7 11 0 0
BITMAP
0934
0A70
07D0
0380
0000
25D0
37D0
79D0
79D0
75C0
71C0
ENDCHAR
STARTCHAR uni0146.fina
ENCODING -1
SWIDTH 484 0
DWIDTH 6 0
BBX 6 10 0 -4
BITMAP
25D0
37D0
79D0
79D0
75C0
71C0
0000
0900
0D00
0C00
ENDCHAR
STARTCHAR eng.fina
ENCODING -1
SWIDTH 484 0
DWIDTH 6 0
BBX 6 10 0 -4
BITMAP
25D0
37D0
79D0
79C0
75C0
7280
0340
0700
AA00
7C00
ENDCHAR
STARTCHAR uni01CC.fina
ENCODING -1
SWIDTH 725 0
DWIDTH 9 0
BBX 9 14 0 -6
BITMAP
0003C0
000100
25D340
3BD340
79D740
79C700
75EF00
70FA00
001E00
007D00
00DD00
029C00
02B400
01E000
ENDCHAR
STARTCHAR ntilde.fina
ENCODING -1
SWIDTH 484 0
DWIDTH 6 0
BBX 7 10 0 0
BITMAP
0514
1F64
25E0
0000
25D0
37D0
79D0
79D0
75C0
71C0
ENDCHAR
STARTCHAR o.fina
ENCODING -1
SWIDTH 453 0
DWIDTH 5 0
BBX 5 6 0 0
BITMAP
1F40
7AC0
B1C0
B1C0
7B80
2E00
ENDCHAR
STARTCHAR oacute.fina
ENCODING -1
SWIDTH 453 0
DWIDTH 5 0
BBX 6 11 0 0
BITMAP
00D0
01C0
0340
0200
0000
1F40
7AC0
B1C0
B1C0
7B80
2E00
ENDCHAR
STARTCHAR obreve.fina
ENCODING -1
SWIDTH 453 0
DWIDTH 5 0
BBX 6 10 0 0
BITMAP
2050
39E0
1FC0
0100
1F40
7AC0
B1C0
B1C0
7B80
2E00
ENDCHAR
STARTCHAR ocircumflex.fina
ENCODING -1
SWIDTH 453 0
DWIDTH 5 0
BBX 5 11 0 0
BITMAP
0740
0A80
1DC0
24C0
0000
1F40
7AC0
B1C0
B1C0
7B80
2E00
ENDCHAR
STARTCHAR uni1ED1.fina
ENCODING -1
SWIDTH 453 0
DWIDTH 5 0
BBX 7 12 0 0
BITMAP
0004
0038
0150
0E80
28C0
0000
1F40
7AC0
B1C0
B1C0
7B80
2E00
ENDCHAR
STARTCHAR uni1ED9.fina
ENCODING -1
SWIDTH 453 0
DWIDTH 5 0
BBX 5 14 0 -3
BITMAP
0740
0A80
1DC0
24C0
0000
1F40
7AC0
B1C0
B1C0
7B80
2E00
0000
1D00
1D00
ENDCHAR
STARTCHAR uni1ED3.fina
ENCODING -1
SWIDTH 453 0
DWIDTH 5 0
BBX 5 12 0 0
BITMAP
4000
B000
1500
0E80
28C0
0000
1F40
7AC0
B1C0
B1C0
7B80
2E00
ENDCHAR
STARTCHAR uni1ED5.fina
ENCODING -1
SWIDTH 453 0
DWIDTH 5 0
BBX 7 11 0 0
BITMAP
0078
002C
0B78
1ED0
2480
1F40
7AC0
B1C0
B1C0
7B80
2E00
ENDCHAR
STARTCHAR uni1ED7.fina
ENCODING -1
SWIDTH 453 0
DWIDTH 5 0
BBX 6 12 0 0
BITMAP
0E60
26D0
0640
1EC0
28C0
0000
1F40
7AC0
B1C0
B1C0
7B80
2E00
ENDCHAR
STARTCHAR uni020D.fina
ENCODING -1
SWIDTH 453 0
DWIDTH 5 0
BBX 5 11 0 0
BITMAP
A600
7700
3640
1580
0000
1F40
7AC0
B1C0
B1C0
7B80
2E00
ENDCHAR
STARTCHAR odieresis.fina
ENCODING -1
SWIDTH 453 0
DWIDTH 5 0
BBX 6 9 0 0
BITMAP
28D0
29D0
0000
1F40
7AC0
B1C0
B1C0
7B80
2E00
ENDCHAR
STARTCHAR uni022B.fina
ENCODING -1
SWIDTH 453 0
DWIDTH 5 0
BBX 6 11 0 0
BITMAP
1FD0
0540
28D0
29D0
0000
1F40
7AC0
B1C0
B1C0
7B80
2E00
ENDCHAR
STARTCHAR uni0231.fina
ENCODING -1
SWIDTH 453 0
DWIDTH 5 0
BBX 6 11 0 0
BITMAP
1FD0
0540
0000
0B40
0100
1F40
7AC0
B1C0
B1C0
7B80
2E00
ENDCHAR
STARTCHAR uni1ECD.fina
ENCODING -1
SWIDTH 453 0
DWIDTH 5 0
BBX 5 9 0 -3
BITMAP
1F40
7AC0
B1C0
B1C0
7B80
2E00
0000
1D00
1D00
ENDCHAR
STARTCHAR ograve.fina
ENCODING -1
SWIDTH 453 0
DWIDTH 5 0
BBX 5 11 0 0
BITMAP
2400
2800
0D00
0500
0000
1F40
7AC0
B1C0
B1C0
7B80
2E00
ENDCHAR
STARTCHAR uni1ECF.fina
ENCODING -1
SWIDTH 453 0
DWIDTH 5 0
BBX 5 10 0 0
BITMAP
0B80
06C0
0780
0100
1F40
7AC0
B1C0
B1C0
7B80
2E00
ENDCHAR
STARTCHAR ohorn.fina
ENCODING -1
SWIDTH 453 0
DWIDTH 5 0
BBX 6 8 0 0
BITMAP
0010
0070
1FD0
7AC0
B1D0
B1C0
7B80
2E00
ENDCHAR
STARTCHAR uni1EDB.fina
ENCODING -1
SWIDTH 453 0
DWIDTH 5 0
BBX 6 11 0 0
BITMAP
01C0
02C0
0340
0510
0070
1FD0
7AC0
B1D0
B1C0
7B80
2E00
ENDCHAR
STARTCHAR uni1EE3.fina
ENCODING -1
SWIDTH 453 0
DWIDTH 5 0
BBX 6 11 0 -3
BITMAP
0010
0070
1FD0
7AC0
B1D0
B1C0
7B80
2E00
0000
1D00
1D00
ENDCHAR
STARTCHAR uni1EDD.fina
ENCODING -1
SWIDTH 453 0
DWIDTH 5 0
BBX 6 11 0 0
BITMAP
3000
3800
1C00
0910
0070
1FD0
7AC0
B1D0
B1C0
7B80
2E00
ENDCHAR
STARTCHAR uni1EDF.fina
ENCODING -1
SWIDTH 453 0
DWIDTH 5 0
BBX 6 10 0 0
BITMAP
0F40
0680
0B50
0070
1FD0
7AC0
B1D0
B1C0
7B80
2E00
ENDCHAR
STARTCHAR uni1EE1.fina
ENCODING -1
SWIDTH 453 0
DWIDTH 5 0
BBX 6 10 0 0
BITMAP
0440
2DC0
2690
0070
1FD0
7AC0
B1D0
B1C0
7A80
2E00
ENDCHAR
STARTCHAR ohungarumlaut.fina
ENCODING -1
SWIDTH 453 0
DWIDTH 5 0
BBX 6 11 0 0
BITMAP
0670
0AB0
0DD0
1880
0000
1F40
7AC0
B1C0
B1C0
7B80
2E00
ENDCHAR
STARTCHAR uni020F.fina
ENCODING -1
SWIDTH 453 0
DWIDTH 5 0
BBX 6 10 0 0
BITMAP
1FC0
39E0
2050
0000
1F40
7AC0
B1C0
B1C0
7B80
2E00
ENDCHAR
STARTCHAR omacron.fina
ENCODING -1
SWIDTH 453 0
DWIDTH 5 0
BBX 5 8 0 0
BITMAP
2FC0
0540
1F40
7AC0
B1C0
B1C0
7B80
2E00
ENDCHAR
STARTCHAR uni01EB.fina
ENCODING -1
SWIDTH 453 0
DWIDTH 5 0
BBX 5 9 0 -3
BITMAP
1F40
7AC0
B1C0
B1C0
7680
2F00
1C00
1C00
1F80
ENDCHAR
STARTCHAR oslash.fina
ENCODING -1
SWIDTH 463 0
DWIDTH 6 0
BBX 6 10 0 -2
BITMAP
0100
0300
1F40
7BC0
B6D0
B9D0
7EC0
2F40
0800
0400
ENDCHAR
STARTCHAR oslashacute.fina
ENCODING -1
SWIDTH 463 0
DWIDTH 6 0
BBX 6 13 0 -2
BITMAP
0300
0B00
0D00
1900
0300
1F40
7BC0
B6D0
B9D0
7EC0
2F40
0800
0400
ENDCHAR
STARTCHAR otilde.fina
ENCODING -1
SWIDTH 453 0
DWIDTH 5 0
BBX 6 10 0 0
BITMAP
0410
3EA0
62D0
0000
1F40
7AC0
B1C0
B1C0
7B80
2E00
ENDCHAR
STARTCHAR uni022D.fina
ENCODING -1
SWIDTH 453 0
DWIDTH 5 0
BBX 6 11 0 0
BITMAP
1FD0
1950
3EA0
62D0
0000
1F40
7AC0
B1C0
B1C0
7B80
2E00
ENDCHAR
STARTCHAR oe.fina
ENCODING -1
SWIDTH 686 0
DWIDTH 8 0
BBX 9 6 0 0
BITMAP
1F6D00
7AEB00
B1DA00
B1F940
7BE740
2E7E00
ENDCHAR
STARTCHAR p.fina
ENCODING -1
SWIDTH 457 0
DWIDTH 5 0
BBX 8 12 -2 -6
BITMAP
0378
07ED
075D
076C
0BB8
1FE0
2B00
3700
6700
6A00
7D00
3800
ENDCHAR
STARTCHAR thorn.fina
ENCODING -1
SWIDTH 483 0
DWIDTH 6 0
BBX 6 15 0 -4
BITMAP
0800
1C00
2C00
3800
3400
36D0
7AE0
78E0
75D0
BB80
B900
A000
A000
A000
A000
ENDCHAR
STARTCHAR q.fina
ENCODING -1
SWIDTH 449 0
DWIDTH 5 0
BBX 6 11 0 -4
BITMAP
0050
0BD0
2ED0
75C0
B280
BB80
3B40
0740
0700
0700
0600
ENDCHAR
STARTCHAR r.fina
ENCODING -1
SWIDTH 495 0
DWIDTH 6 0
BBX 6 6 0 0
BITMAP
25D0
37D0
79F0
78E0
7400
7000
ENDCHAR
STARTCHAR racute.fina
ENCODING -1
SWIDTH 495 0
DWIDTH 6 0
BBX 6 11 0 0
BITMAP
00A0
00D0
0280
0200
0000
25D0
37D0
79F0
78E0
7400
7000
ENDCHAR
STARTCHAR rcaron.fina
ENCODING -1
SWIDTH 495 0
DWIDTH 6 0
BBX 6 11 0 0
BITMAP
0D70
09A0
0AC0
0740
0000
25D0
37D0
79F0
78E0
7400
7000
ENDCHAR
STARTCHAR uni0157.fina
ENCODING -1
SWIDTH 495 0
DWIDTH 6 0
BBX 6 10 0 -4
BITMAP
25D0
37D0
79F0
78E0
7400
7000
0000
6000
6000
5000
ENDCHAR
STARTCHAR uni0211.fina
ENCODING -1
SWIDTH 495 0
DWIDTH 6 0
BBX 6 11 0 0
BITMAP
7340
3780
2980
0880
0000
25D0
37D0
79F0
78E0
7400
7000
ENDCHAR
STARTCHAR uni0213.fina
ENCODING -1
SWIDTH 495 0
DWIDTH 6 0
BBX 6 10 0 0
BITMAP
0BD0
2DB0
2420
0000
25D0
37D0
79F0
78E0
7400
7000
ENDCHAR
STARTCHAR s.fina
ENCODING -1
SWIDTH 394 0
DWIDTH 5 0
BBX 5 6 0 0
BITMAP
0A00
1D00
2F00
6740
DB80
1E00
ENDCHAR
STARTCHAR sacute.fina
ENCODING -1
SWIDTH 394 0
DWIDTH 5 0
BBX 6 11 0 0
BITMAP
00D0
01C0
0340
0200
0000
0A00
1D00
2F00
6740
DB80
1E00
ENDCHAR
STARTCHAR scaron.fina
ENCODING -1
SWIDTH 394 0
DWIDTH 5 0
BBX 6 11 0 0
BITMAP
1CA0
0DD0
0E80
0B00
0000
0A00
1D00
2F00
6740
DB80
1E00
ENDCHAR
STARTCHAR scedilla.fina
ENCODING -1
SWIDTH 394 0
DWIDTH 5 0
BBX 5 9 0 -3
BITMAP
0A00
1D00
2E00
7B40
D380
5F40
0700
0700
7D00
ENDCHAR
STARTCHAR scircumflex.fina
ENCODING -1
SWIDTH 394 0
DWIDTH 5 0
BBX 5 11 0 0
BITMAP
0740
0A80
1DC0
24C0
0000
0A00
1D00
2F00
6740
DB80
1E00
ENDCHAR
STARTCHAR uni0219.fina
ENCODING -1
SWIDTH 394 0
DWIDTH 5 0
BBX 5 10 0 -4
BITMAP
0A00
1D00
2F00
6740
DB80
1E00
0000
0D00
0D00
0C00
ENDCHAR
STARTCHAR germandbls.fina
ENCODING -1
SWIDTH 580 0
DWIDTH 7 0
BBX 7 13 0 -3
BITMAP
07F4
0E78
2C28
3874
36D0
76C0
71F4
7578
7B28
76E4
7000
7000
1000
ENDCHAR
STARTCHAR uni01C9.ss01.fina
ENCODING -1
SWIDTH 466 0
DWIDTH 6 0
BBX 6 17 0 -6
BITMAP
0D00
1D00
2C00
2CE0
3840
34D0
75D0
71C0
72C0
7BC0
3F80
0780
1F40
7700
9A00
ED00
7800
ENDCHAR
STARTCHAR eng.ss01.fina
ENCODING -1
SWIDTH 484 0
DWIDTH 6 0
BBX 6 12 0 -6
BITMAP
25D0
37D0
79D0
79D0
75C0
72C0
0780
1F40
3740
6700
AE00
7800
ENDCHAR
STARTCHAR p.ss01.fina
ENCODING -1
SWIDTH 488 0
DWIDTH 6 0
BBX 8 12 -2 -6
BITMAP
029D
03BE
03DD
039D
035D
0B5C
1F40
2B00
2700
6A00
6D00
3800
ENDCHAR
STARTCHAR z.ss01.fina
ENCODING -1
SWIDTH 406 0
DWIDTH 5 0
BBX 7 12 -1 -5
BITMAP
0510
1FF4
02E0
0740
1E00
0F40
0380
0BC0
2A80
7380
6700
7D00
ENDCHAR
STARTCHAR zacute.ss01.fina
ENCODING -1
SWIDTH 406 0
DWIDTH 5 0
BBX 7 16 -1 -5
BITMAP
0030
00B0
00D0
0180
0510
1FF4
02E0
0740
1E00
0F40
0380
0BC0
2A80
7380
6700
7D00
ENDCHAR
STARTCHAR zcaron.ss01.fina
ENCODING -1
SWIDTH 406 0
DWIDTH 5 0
BBX 7 16 -1 -5
BITMAP
0628
0774
03A0
0280
0510
1FF4
02E0
0740
1E00
0F40
0380
0BC0
2A80
7380
6700
7D00
ENDCHAR
STARTCHAR zdotaccent.ss01.fina
ENCODING -1
SWIDTH 406 0
DWIDTH 5 0
BBX 7 13 -1 -5
BITMAP
02D0
0550
1FF4
02E0
0740
1E00
0F40
0380
0BC0
2A80
7380
6700
7D00
ENDCHAR
STARTCHAR t.fina
ENCODING -1
SWIDTH 413 0
DWIDTH 5 0
BBX 6 11 0 0
BITMAP
03C0
0AD0
0DC0
1D80
2F40
FFD0
7940
3800
3800
2D80
0B80
ENDCHAR
STARTCHAR tbar.fina
ENCODING -1
SWIDTH 387 0
DWIDTH 5 0
BBX 5 10 0 0
BITMAP
0D00
1D00
1C00
2C00
BF80
7900
FF40
7900
3980
1F40
ENDCHAR
STARTCHAR tcaron.fina
ENCODING -1
SWIDTH 413 0
DWIDTH 5 0
BBX 8 12 0 0
BITMAP
0009
03CD
0ADC
0DC0
1D80
2F40
FFD0
7940
3800
3800
2D80
0B80
ENDCHAR
STARTCHAR uni0163.fina
ENCODING -1
SWIDTH 413 0
DWIDTH 5 0
BBX 6 15 0 -4
BITMAP
03C0
0AD0
0DC0
1D80
2F40
FFD0
7940
3800
2800
2D80
1F80
1B00
0740
3E00
1400
ENDCHAR
STARTCHAR uni021B.fina
ENCODING -1
SWIDTH 413 0
DWIDTH 5 0
BBX 6 15 0 -4
BITMAP
03C0
0AD0
0DC0
1D80
2F40
FFD0
7940
3800
3800
2D80
0B80
0000
0900
0D00
0C00
ENDCHAR
STARTCHAR u.fina
ENCODING -1
SWIDTH 460 0
DWIDTH 6 0
BBX 6 6 0 0
BITMAP
24D0
35D0
72C0
77C0
7FC0
3A80
ENDCHAR
STARTCHAR uacute.fina
ENCODING -1
SWIDTH 460 0
DWIDTH 6 0
BBX 6 11 0 0
BITMAP
00A0
00D0
0180
0200
0000
24D0
35D0
72C0
77C0
7FC0
3A80
ENDCHAR
STARTCHAR ubreve.fina
ENCODING -1
SWIDTH 460 0
DWIDTH 6 0
BBX 6 10 0 0
BITMAP
1420
2DB0
1FD0
0100
24D0
35D0
72C0
77C0
7FC0
3A80
ENDCHAR
STARTCHAR ucircumflex.fina
ENCODING -1
SWIDTH 460 0
DWIDTH 6 0
BBX 6 11 0 0
BITMAP
0280
06C0
0DD0
1890
0000
24D0
35D0
72C0
77C0
7FC0
3A80
ENDCHAR
STARTCHAR uni0215.fina
ENCODING -1
SWIDTH 460 0
DWIDTH 6 0
BBX 6 11 0 0
BITMAP
7340
3780
2980
0880
0000
24D0
35D0
72C0
77C0
7FC0
3A80
ENDCHAR
STARTCHAR udieresis.fina
ENCODING -1
SWIDTH 460 0
DWIDTH 6 0
BBX 6 9 0 0
BITMAP
1CA0
1CA0
0000
24D0
35D0
72C0
77C0
7FC0
3A80
ENDCHAR
STARTCHAR uni1EE5.fina
ENCODING -1
SWIDTH 460 0
DWIDTH 6 0
BBX 6 9 0 -3
BITMAP
24D0
35D0
72C0
77C0
7FC0
3A80
0000
1D00
1D00
ENDCHAR
STARTCHAR ugrave.fina
ENCODING -1
SWIDTH 460 0
DWIDTH 6 0
BBX 6 11 0 0
BITMAP
1800
1D00
0A00
0200
0000
24D0
35D0
72C0
77C0
7FC0
3A80
ENDCHAR
STARTCHAR uni1EE7.fina
ENCODING -1
SWIDTH 460 0
DWIDTH 6 0
BBX 6 10 0 0
BITMAP
07C0
01D0
03C0
0100
24D0
35D0
72C0
77C0
7FC0
3A80
ENDCHAR
STARTCHAR uhorn.fina
ENCODING -1
SWIDTH 472 0
DWIDTH 6 0
BBX 7 8 0 0
BITMAP
0004
0028
24F4
35D0
72C0
77C0
7FC0
3A80
ENDCHAR
STARTCHAR uni1EE9.fina
ENCODING -1
SWIDTH 472 0
DWIDTH 6 0
BBX 7 11 0 0
BITMAP
00A0
00D0
0180
0204
0028
24F4
35D0
72C0
77C0
7FC0
3A80
ENDCHAR
STARTCHAR uni1EF1.fina
ENCODING -1
SWIDTH 472 0
DWIDTH 6 0
BBX 7 11 0 -3
BITMAP
0004
0028
24F4
35D0
72C0
77C0
7FC0
3A80
0000
1D00
1D00
ENDCHAR
STARTCHAR uni1EEB.fina
ENCODING -1
SWIDTH 472 0
DWIDTH 6 0
BBX 7 11 0 0
BITMAP
1800
1D00
0A00
0204
0028
24F4
35D0
72C0
77C0
7FC0
3A80
ENDCHAR
STARTCHAR uni1EED.fina
ENCODING -1
SWIDTH 472 0
DWIDTH 6 0
BBX 7 10 0 0
BITMAP
07C0
01D0
03C4
0128
24F4
35D0
72C0
77C0
7FC0
3A80
ENDCHAR
STARTCHAR uni1EEF.fina
ENCODING -1
SWIDTH 472 0
DWIDTH 6 0
BBX 7 10 0 0
BITMAP
0410
1F60
15D4
0028
24F4
35D0
72C0
77C0
7FC0
3A80
ENDCHAR
STARTCHAR uhungarumlaut.fina
ENCODING -1
SWIDTH 460 0
DWIDTH 6 0
BBX 7 11 0 0
BITMAP
0374
0774
0AA0
0890
0000
24D0
35D0
72C0
77C0
7FC0
3A80
ENDCHAR
STARTCHAR uni0217.fina
ENCODING -1
SWIDTH 460 0
DWIDTH 6 0
BBX 6 10 0 0
BITMAP
0BD0
2DB0
1420
0000
24D0
35D0
72C0
77C0
7FC0
3A80
ENDCHAR
STARTCHAR umacron.fina
ENCODING -1
SWIDTH 460 0
DWIDTH 6 0
BBX 6 8 0 0
BITMAP
1FD0
0540
24D0
35D0
72C0
77C0
7FC0
3A80
ENDCHAR
STARTCHAR uogonek.fina
ENCODING -1
SWIDTH 460 0
DWIDTH 6 0
BBX 6 10 0 -4
BITMAP
24D0
35D0
72C0
77C0
7FC0
3A80
0300
0740
03E0
0040
ENDCHAR
STARTCHAR uring.fina
ENCODING -1
SWIDTH 460 0
DWIDTH 6 0
BBX 6 10 0 0
BITMAP
07C0
0AD0
0BC0
0100
24D0
35D0
72C0
77C0
7FC0
3A80
ENDCHAR
STARTCHAR utilde.fina
ENCODING -1
SWIDTH 460 0
DWIDTH 6 0
BBX 6 10 0 0
BITMAP
0410
2F70
25E0
0000
24D0
35D0
72C0
77C0
7FC0
3A80
ENDCHAR
STARTCHAR v.fina
ENCODING -1
SWIDTH 420 0
DWIDTH 5 0
BBX 6 6 0 0
BITMAP
70D0
71C0
7280
7740
7E00
3800
ENDCHAR
STARTCHAR w.fina
ENCODING -1
SWIDTH 666 0
DWIDTH 8 0
BBX 9 6 0 0
BITMAP
71C340
72C700
73CE00
7BDC00
7DF800
38A000
ENDCHAR
STARTCHAR wacute.fina
ENCODING -1
SWIDTH 666 0
DWIDTH 8 0
BBX 9 11 0 0
BITMAP
002800
003800
006000
009000
000000
71C340
72C700
73CE00
7BDC00
7DF800
38A000
ENDCHAR
STARTCHAR wcircumflex.fina
ENCODING -1
SWIDTH 666 0
DWIDTH 8 0
BBX 9 11 0 0
BITMAP
00A000
01F000
037400
062400
000000
71C340
72C700
73CE00
7BDC00
7DF800
38A000
ENDCHAR
STARTCHAR wdieresis.fina
ENCODING -1
SWIDTH 666 0
DWIDTH 8 0
BBX 9 9 0 0
BITMAP
076800
072800
000000
71C340
72C700
73CE00
7BDC00
7DF800
38A000
ENDCHAR
STARTCHAR wgrave.fina
ENCODING -1
SWIDTH 666 0
DWIDTH 8 0
BBX 9 11 0 0
BITMAP
060000
074000
028000
008000
000000
71C340
72C700
73CE00
7BDC00
7DF800
38A000
ENDCHAR
STARTCHAR x.fina
ENCODING -1
SWIDTH 580 0
DWIDTH 7 0
BBX 7 6 0 0
BITMAP
2DB4
3BE4
0340
6744
AB9C
79F4
ENDCHAR
STARTCHAR y.fina
ENCODING -1
SWIDTH 449 0
DWIDTH 5 0
BBX 6 12 0 -6
BITMAP
24D0
35C0
72C0
7780
7F80
3A80
0B40
2F00
6700
DA00
ED00
B400
ENDCHAR
STARTCHAR yacute.fina
ENCODING -1
SWIDTH 449 0
DWIDTH 5 0
BBX 6 17 0 -6
BITMAP
00A0
00D0
0180
0200
0000
24D0
35C0
72C0
7780
7F80
3A80
0B40
2F00
6700
DA00
ED00
B400
ENDCHAR
STARTCHAR ycircumflex.fina
ENCODING -1
SWIDTH 449 0
DWIDTH 5 0
BBX 6 17 0 -6
BITMAP
0280
06C0
0DD0
1890
0000
24D0
35C0
72C0
7780
7F80
3A80
0B40
2F00
6700
DA00
ED00
B400
ENDCHAR
STARTCHAR ydieresis.fina
ENCODING -1
SWIDTH 449 0
DWIDTH 5 0
BBX 6 15 0 -6
BITMAP
1CA0
1CA0
0000
24D0
35C0
72C0
7780
7F80
3A80
0B40
2F00
6700
DA00
ED00
B400
ENDCHAR
STARTCHAR uni1EF5.fina
ENCODING -1
SWIDTH 449 0
DWIDTH 5 0
BBX 6 12 0 -6
BITMAP
24D0
35C0
72C0
7780
7F80
3A80
0B40
2F00
6700
DA00
EDD0
B5D0
ENDCHAR
STARTCHAR ygrave.fina
ENCODING -1
SWIDTH 449 0
DWIDTH 5 0
BBX 6 17 0 -6
BITMAP
1800
1D00
0A00
0200
0000
24D0
35C0
72C0
7780
7F80
3A80
0B40
2F00
6700
DA00
ED00
B400
ENDCHAR
STARTCHAR uni1EF7.fina
ENCODING -1
SWIDTH 449 0
DWIDTH 5 0
BBX 6 16 0 -6
BITMAP
07C0
01D0
03C0
0100
24D0
35C0
72C0
7780
7F80
3A80
0B40
2F00
6700
DA00
ED00
B400
ENDCHAR
STARTCHAR uni0233.fina
ENCODING -1
SWIDTH 449 0
DWIDTH 5 0
BBX 6 14 0 -6
BITMAP
1FD0
0540
24D0
35C0
72C0
7780
7F80
3A80
0B40
2F00
6700
DA00
ED00
B400
ENDCHAR
STARTCHAR uni1EF9.fina
ENCODING -1
SWIDTH 449 0
DWIDTH 5 0
BBX 6 16 0 -6
BITMAP
0410
2F70
25E0
0000
24D0
35C0
72C0
7780
7F80
3A80
0B40
2F00
6700
DA00
ED00
B400
ENDCHAR
STARTCHAR z.fina
ENCODING -1
SWIDTH 412 0
DWIDTH 5 0
BBX 5 6 0 0
BITMAP
7FC0
1B80
1D00
7400
B540
BFC0
ENDCHAR
STARTCHAR zacute.fina
ENCODING -1
SWIDTH 412 0
DWIDTH 5 0
BBX 6 11 0 0
BITMAP
00D0
01D0
0280
0200
0000
7FC0
1B80
1D00
7400
B540
BFC0
ENDCHAR
STARTCHAR zcaron.fina
ENCODING -1
SWIDTH 412 0
DWIDTH 5 0
BBX 6 11 0 0
BITMAP
0C60
0DD0
0E80
0700
0000
7FC0
1B80
1D00
7400
B540
BFC0
ENDCHAR
STARTCHAR zdotaccent.fina
ENCODING -1
SWIDTH 412 0
DWIDTH 5 0
BBX 5 8 0 0
BITMAP
0B40
0100
7FC0
1B80
1D00
7400
B540
BFC0
ENDCHAR
STARTCHAR iacute_j.loclNLD
ENCODING -1
SWIDTH 479 0
DWIDTH 6 0
BBX 7 17 0 -6
BITMAP
035C
0768
0A74
0850
0000
28D0
35C0
72C0
7788
7FF8
3AD0
0B40
2F00
6700
DA00
ED00
B400
ENDCHAR
STARTCHAR b.ss01
ENCODING -1
SWIDTH 449 0
DWIDTH 5 0
BBX 7 12 0 0
BITMAP
0780
0EC0
1CC0
2980
3A40
3A00
7E80
76D0
72FC
75E4
3B80
1E00
ENDCHAR
STARTCHAR d.ss01
ENCODING -1
SWIDTH 470 0
DWIDTH 6 0
BBX 7 11 0 0
BITMAP
0070
00B0
00B0
00A0
00D0
0BD0
2EC0
75C0
B2C8
7BEC
3DE0
ENDCHAR
STARTCHAR f.ss01
ENCODING -1
SWIDTH 323 0
DWIDTH 4 0
BBX 8 18 -2 -6
BITMAP
0078
00EC
01CC
028C
0398
0368
0770
07A0
07D4
07FD
0754
0700
0700
2B00
AB00
9A00
AD00
7800
ENDCHAR
STARTCHAR l.ss01
ENCODING -1
SWIDTH 237 0
DWIDTH 3 0
BBX 5 11 0 0
BITMAP
0D00
1D00
2C00
2C00
3800
3400
7400
7000
7140
7B00
3D00
ENDCHAR
STARTCHAR lacute.ss01
ENCODING -1
SWIDTH 237 0
DWIDTH 3 0
BBX 6 14 0 0
BITMAP
00A0
02E0
0A00
0D00
1D00
2C00
2C00
3800
3400
7400
7000
7140
7B00
3D00
ENDCHAR
STARTCHAR uni013C.ss01
ENCODING -1
SWIDTH 237 0
DWIDTH 3 0
BBX 5 15 0 -4
BITMAP
0D00
1D00
2C00
2C00
3800
3400
7400
7000
7140
7B00
3D00
0000
3000
7000
6000
ENDCHAR
STARTCHAR uni01C9.ss01
ENCODING -1
SWIDTH 491 0
DWIDTH 6 0
BBX 7 17 0 -6
BITMAP
0D00
1D00
2C00
2DE0
3840
34D0
75D0
71C0
72C8
7BF8
3FD0
0780
1F40
7700
9A00
ED00
7800
ENDCHAR
STARTCHAR lslash.ss01
ENCODING -1
SWIDTH 324 0
DWIDTH 4 0
BBX 6 12 0 0
BITMAP
0A00
0E00
1D00
1E40
2F40
7800
B400
7400
7400
7050
7AC0
2E40
ENDCHAR
STARTCHAR eng.ss01
ENCODING -1
SWIDTH 508 0
DWIDTH 6 0
BBX 8 12 0 -6
BITMAP
25D0
3BD0
7DD0
79D9
75EC
72E0
0780
1F40
3740
6700
AD00
7800
ENDCHAR
STARTCHAR o.ss01
ENCODING -1
SWIDTH 451 0
DWIDTH 5 0
BBX 7 6 0 0
BITMAP
1F90
7AF4
B1D4
B1C0
7B80
2E00
ENDCHAR
STARTCHAR oacute.ss01
ENCODING -1
SWIDTH 451 0
DWIDTH 5 0
BBX 7 11 0 0
BITMAP
00D0
01C0
0340
0200
0000
1F90
7AF4
B1D4
B1C0
7B80
2E00
ENDCHAR
STARTCHAR obreve.ss01
ENCODING -1
SWIDTH 451 0
DWIDTH 5 0
BBX 7 10 0 0
BITMAP
2050
39E0
1FC0
0100
1F90
7AF4
B1D4
B1C0
7B80
2E00
ENDCHAR
STARTCHAR ocircumflex.ss01
ENCODING -1
SWIDTH 451 0
DWIDTH 5 0
BBX 7 11 0 0
BITMAP
0740
0A80
1DC0
24C0
0000
1F90
7AF4
B1D4
B1C0
7B80
2E00
ENDCHAR
STARTCHAR uni1ED1.ss01
ENCODING -1
SWIDTH 451 0
DWIDTH 5 0
BBX 7 12 0 0
BITMAP
0004
0038
0150
0E80
28C0
0000
1F90
7AF4
B1D4
B1C0
7B80
2E00
ENDCHAR
STARTCHAR uni1ED9.ss01
ENCODING -1
SWIDTH 451 0
DWIDTH 5 0
BBX 7 14 0 -3
BITMAP
0740
0A80
1DC0
24C0
0000
1F90
7AF4
B1D4
B1C0
7B80
2E00
0000
1D00
1D00
ENDCHAR
STARTCHAR uni1ED3.ss01
ENCODING -1
SWIDTH 451 0
DWIDTH 5 0
BBX 7 12 0 0
BITMAP
4000
B000
1500
0E80
28C0
0000
1F90
7AF4
B1D4
B1C0
7B80
2E00
ENDCHAR
STARTCHAR uni1ED5.ss01
ENCODING -1
SWIDTH 451 0
DWIDTH 5 0
BBX 7 11 0 0
BITMAP
0078
002C
0B78
1ED0
2480
1F90
7AF4
B1D4
B1C0
7B80
2E00
ENDCHAR
STARTCHAR uni1ED7.ss01
ENCODING -1
SWIDTH 451 0
DWIDTH 5 0
BBX 7 12 0 0
BITMAP
0E60
26D0
0640
1EC0
28C0
0000
1F90
7AF4
B1D4
B1C0
7B80
2E00
ENDCHAR
STARTCHAR uni020D.ss01
ENCODING -1
SWIDTH 451 0
DWIDTH 5 0
BBX 7 11 0 0
BITMAP
A600
7700
3640
1580
0000
1F90
7AF4
B1D4
B1C0
7B80
2E00
ENDCHAR
STARTCHAR odieresis.ss01
ENCODING -1
SWIDTH 451 0
DWIDTH 5 0
BBX 7 9 0 0
BITMAP
28D0
29D0
0000
1F90
7AF4
B1D4
B1C0
7B80
2E00
ENDCHAR
STARTCHAR uni022B.ss01
ENCODING -1
SWIDTH 451 0
DWIDTH 5 0
BBX 7 11 0 0
BITMAP
1FD0
0540
28D0
29D0
0000
1F90
7AF4
B1D4
B1C0
7B80
2E00
ENDCHAR
STARTCHAR uni0231.ss01
ENCODING -1
SWIDTH 451 0
DWIDTH 5 0
BBX 7 11 0 0
BITMAP
1FD0
0540
0000
0B40
0100
1F90
7AF4
B1D4
B1C0
7B80
2E00
ENDCHAR
STARTCHAR uni1ECD.ss01
ENCODING -1
SWIDTH 451 0
DWIDTH 5 0
BBX 7 9 0 -3
BITMAP
1F90
7AF4
B1D4
B1C0
7B80
2E00
0000
1D00
1D00
ENDCHAR
STARTCHAR ograve.ss01
ENCODING -1
SWIDTH 451 0
DWIDTH 5 0
BBX 7 11 0 0
BITMAP
2400
2800
0D00
0500
0000
1F90
7AF4
B1D4
B1C0
7B80
2E00
ENDCHAR
STARTCHAR uni1ECF.ss01
ENCODING -1
SWIDTH 451 0
DWIDTH 5 0
BBX 7 10 0 0
BITMAP
0B80
06C0
0780
0100
1F90
7AF4
B1D4
B1C0
7B80
2E00
ENDCHAR
STARTCHAR ohorn.ss01
ENCODING -1
SWIDTH 451 0
DWIDTH 5 0
BBX 7 8 0 0
BITMAP
0010
0070
1FE0
7AF4
B1D4
B1C0
7B80
2E00
ENDCHAR
STARTCHAR uni1EDB.ss01
ENCODING -1
SWIDTH 451 0
DWIDTH 5 0
BBX 7 11 0 0
BITMAP
01C0
02C0
0340
0510
0070
1FE0
7AF4
B1D4
B1C0
7B80
2E00
ENDCHAR
STARTCHAR uni1EE3.ss01
ENCODING -1
SWIDTH 451 0
DWIDTH 5 0
BBX 7 11 0 -3
BITMAP
0010
0070
1FE0
7AF4
B1D4
B1C0
7B80
2E00
0000
1D00
1D00
ENDCHAR
STARTCHAR uni1EDD.ss01
ENCODING -1
SWIDTH 451 0
DWIDTH 5 0
BBX 7 11 0 0
BITMAP
3000
3800
1C00
0910
0070
1FE0
7AF4
B1D4
B1C0
7B80
2E00
ENDCHAR
STARTCHAR uni1EDF.ss01
ENCODING -1
SWIDTH 451 0
DWIDTH 5 0
BBX 7 10 0 0
BITMAP
0F40
0680
0B50
0070
1FE0
7AF4
B1D4
B1C0
7B80
2E00
ENDCHAR
STARTCHAR uni1EE1.ss01
ENCODING -1
SWIDTH 451 0
DWIDTH 5 0
BBX 7 10 0 0
BITMAP
0440
2DC0
2690
0070
1FE0
7AF4
B1D4
B1C0
7A80
2E00
ENDCHAR
STARTCHAR ohungarumlaut.ss01
ENCODING -1
SWIDTH 451 0
DWIDTH 5 0
BBX 7 11 0 0
BITMAP
0670
0AB0
0DD0
1880
0000
1F90
7AF4
B1D4
B1C0
7B80
2E00
ENDCHAR
STARTCHAR uni020F.ss01
ENCODING -1
SWIDTH 451 0
DWIDTH 5 0
BBX 7 10 0 0
BITMAP
1FC0
39E0
2050
0000
1F90
7AF4
B1D4
B1C0
7B80
2E00
ENDCHAR
STARTCHAR omacron.ss01
ENCODING -1
SWIDTH 451 0
DWIDTH 5 0
BBX 7 8 0 0
BITMAP
2FC0
0540
1F90
7AF4
B1D4
B1C0
7B80
2E00
ENDCHAR
STARTCHAR uni01EB.ss01
ENCODING -1
SWIDTH 451 0
DWIDTH 5 0
BBX 7 9 0 -3
BITMAP
1F90
7AF4
B1D4
B1C0
7680
2F00
1C00
2800
1F40
ENDCHAR
STARTCHAR oslash.ss01
ENCODING -1
SWIDTH 451 0
DWIDTH 5 0
BBX 7 10 0 -2
BITMAP
0100
0300
1B80
3FF4
76E8
BAC0
7EC0
3F40
0C00
1800
ENDCHAR
STARTCHAR oslashacute.ss01
ENCODING -1
SWIDTH 451 0
DWIDTH 5 0
BBX 7 13 0 -2
BITMAP
0300
0B00
0D00
1900
0300
1B80
3FF4
76E8
BAC0
7EC0
3F40
0C00
1800
ENDCHAR
STARTCHAR otilde.ss01
ENCODING -1
SWIDTH 451 0
DWIDTH 5 0
BBX 7 10 0 0
BITMAP
0410
3EA0
62D0
0000
1F90
7AF4
B1D4
B1C0
7B80
2E00
ENDCHAR
STARTCHAR uni022D.ss01
ENCODING -1
SWIDTH 451 0
DWIDTH 5 0
BBX 7 11 0 0
BITMAP
1FD0
1950
3EA0
62D0
0000
1F90
7AF4
B1D4
B1C0
7B80
2E00
ENDCHAR
STARTCHAR p.ss01
ENCODING -1
SWIDTH 500 0
DWIDTH 6 0
BBX 10 12 -2 -6
BITMAP
029D00
03BE00
03DD00
039C50
035ED0
0B4F40
1F4000
2B0000
270000
6A0000
6D0000
380000
ENDCHAR
STARTCHAR t.ss01
ENCODING -1
SWIDTH 343 0
DWIDTH 4 0
BBX 6 10 0 0
BITMAP
0D00
1D00
1C00
2C00
BF80
3900
3400
3450
39D0
1F40
ENDCHAR
STARTCHAR uni0163.ss01
ENCODING -1
SWIDTH 343 0
DWIDTH 4 0
BBX 6 14 0 -4
BITMAP
0900
1D00
1D00
2C00
BF80
3900
3400
3410
39D0
2F40
1B00
0700
7E00
1400
ENDCHAR
STARTCHAR uni021B.ss01
ENCODING -1
SWIDTH 343 0
DWIDTH 4 0
BBX 6 14 0 -4
BITMAP
0D00
1D00
1C00
2C00
BF80
3900
3400
3450
39D0
1F40
0000
0900
0D00
0C00
ENDCHAR
STARTCHAR z.ss01
ENCODING -1
SWIDTH 432 0
DWIDTH 5 0
BBX 8 12 -1 -5
BITMAP
0510
1FF4
02E0
0740
1E09
0F78
03D0
0BC0
2A80
7380
6700
7D00
ENDCHAR
STARTCHAR zacute.ss01
ENCODING -1
SWIDTH 432 0
DWIDTH 5 0
BBX 8 16 -1 -5
BITMAP
0030
00B0
00D0
0180
0510
1FF4
02E0
0740
1E09
0F78
03D0
0BC0
2A80
7380
6700
7D00
ENDCHAR
STARTCHAR zcaron.ss01
ENCODING -1
SWIDTH 432 0
DWIDTH 5 0
BBX 8 16 -1 -5
BITMAP
0628
0774
03A0
0280
0510
1FF4
02E0
0740
1E09
0F78
03D0
0BC0
2A80
7380
6700
7D00
ENDCHAR
STARTCHAR zdotaccent.ss01
ENCODING -1
SWIDTH 432 0
DWIDTH 5 0
BBX 8 13 -1 -5
BITMAP
02D0
0550
1FF4
02E0
0740
1E09
0F78
03D0
0BC0
2A80
7380
6700
7D00
ENDCHAR
STARTCHAR f_f
ENCODING -1
SWIDTH 684 0
DWIDTH 8 0
BBX 10 17 0 -5
BITMAP
02C2C0
07DAD0
0DADD0
1CECD0
29F9C0
2AB680
3F7700
3D7E00
7BF800
7AB7D0
76B940
76B900
76B500
767600
3A7900
2D3C00
040000
ENDCHAR
STARTCHAR f_j
ENCODING -1
SWIDTH 633 0
DWIDTH 8 0
BBX 9 16 0 -4
BITMAP
01E000
03B000
0A6000
0DA000
1DDE00
2E4400
BFFC00
796C00
392C00
366880
366E80
367E00
3A7400
3B7400
2E7000
046000
ENDCHAR
STARTCHAR lslash_lslash
ENCODING -1
SWIDTH 654 0
DWIDTH 8 0
BBX 11 13 0 0
BITMAP
06FFF8
1E5554
078780
0EDEC0
1CECC0
29F9C0
36B680
777700
7A7A00
7C7C00
747450
3AFAC0
1F5E40
ENDCHAR
STARTCHAR t_t
ENCODING -1
SWIDTH 706 0
DWIDTH 8 0
BBX 10 11 0 0
BITMAP
03C780
0ADEC0
0DDDC0
1DEA80
2F7B40
FFFFC0
797900
387400
387420
2DFDA0
0B5F80
ENDCHAR
STARTCHAR f_j.fina
ENCODING -1
SWIDTH 624 0
DWIDTH 7 0
BBX 8 17 0 -5
BITMAP
01E0
03B0
0A60
0DA0
1DDE
2E44
BFFC
796C
392C
3668
3668
3678
3A74
3B74
2E74
0470
0010
ENDCHAR
STARTCHAR fi.fina
ENCODING -1
SWIDTH 603 0
DWIDTH 7 0
BBX 8 17 0 -5
BITMAP
01E0
03B0
0A60
0DA0
1DDE
2E44
BFFC
796C
3968
3678
3678
3674
3640
3A40
2B00
1E00
0400
ENDCHAR
STARTCHAR fl.fina
ENCODING -1
SWIDTH 730 0
DWIDTH 9 0
BBX 10 17 0 -5
BITMAP
02D2C0
07A6D0
0EAD90
1DAC90
2CECC0
29A9C0
3A2A40
3D3B00
743D00
7BF800
792D80
761F80
760000
760000
3A0000
2D0000
040000
ENDCHAR
STARTCHAR f_ij.loclNLD.fina
ENCODING -1
SWIDTH 837 0
DWIDTH 10 0
BBX 11 18 0 -6
BITMAP
01E000
03B000
0A6000
0DA000
1DDF78
2E4410
BFFC60
796CA0
396CE0
3669D0
366AD0
365EC0
3642C0
3A4B80
2B2A80
1E7340
047A00
003D00
ENDCHAR
STARTCHAR i_j.loclNLD.fina
ENCODING -1
SWIDTH 451 0
DWIDTH 5 0
BBX 6 14 0 -6
BITMAP
2DF0
0440
24D0
35C0
72C0
7780
7F80
3A80
0B40
2F00
6700
DA00
ED00
B400
ENDCHAR
STARTCHAR t_t.ss01.fina
ENCODING -1
SWIDTH 666 0
DWIDTH 8 0
BBX 9 10 0 0
BITMAP
0D1C00
1D2C00
1C3800
2C7400
BFFF40
39B400
34B000
34B000
3AF600
1E6E00
ENDCHAR
STARTCHAR I_J.loclNLD
ENCODING -1
SWIDTH 776 0
DWIDTH 9 0
BBX 8 11 1 0
BITMAP
340A
780B
740E
741E
B42E
B07D
7EED
2F5C
0028
A5B4
6F90
ENDCHAR
STARTCHAR f_ij.loclNLD
ENCODING -1
SWIDTH 865 0
DWIDTH 10 0
BBX 12 18 0 -6
BITMAP
016000
027000
0A6000
0DA000
1DDF78
2F4410
BFFC60
796CA0
396CE0
3669D1
366AED
365EF4
3642C0
3A4B80
2B2A80
1E7340
047A00
003D00
ENDCHAR
STARTCHAR i_j.loclNLD
ENCODING -1
SWIDTH 479 0
DWIDTH 6 0
BBX 7 14 0 -6
BITMAP
2DF0
0440
28D0
35C0
72C0
7788
7FF8
3AD0
0B40
2F00
6700
DA00
ED00
B400
ENDCHAR
STARTCHAR t_t.ss01
ENCODING -1
SWIDTH 632 0
DWIDTH 8 0
BBX 9 10 0 0
BITMAP
0D1C00
1D2C00
1C3800
2C7400
BFFF40
39B400
34B000
34B080
3AF6C0
1E6E00
ENDCHAR
STARTCHAR uni0410.ss01
ENCODING -1
SWIDTH 780 0
DWIDTH 9 0
BBX 10 11 0 0
BITMAP
006FE0
02E950
0B4280
1D0380
2C0740
380740
780B00
740F00
782F00
2EBE00
0B9E00
ENDCHAR
STARTCHAR uni0411.ss01
ENCODING -1
SWIDTH 881 0
DWIDTH 11 0
BBX 9 12 2 -1
BITMAP
7FFE00
6E5500
1D0000
1D0000
2C0000
2EF900
BE6F00
780740
380740
740F00
74BD00
62A000
ENDCHAR
STARTCHAR uni0412.ss01
ENCODING -1
SWIDTH 826 0
DWIDTH 10 0
BBX 9 11 1 0
BITMAP
1BF900
296F40
040780
380780
381F40
75F800
B06D00
B00F00
B01E00
F5BD00
BFE000
ENDCHAR
STARTCHAR uni0413.ss01
ENCODING -1
SWIDTH 634 0
DWIDTH 8 0
BBX 9 11 2 0
BITMAP
7FFF40
6E5500
1D0000
1D0000
2C0000
2C0000
380000
380000
740000
740000
740000
ENDCHAR
STARTCHAR uni0403.ss01
ENCODING -1
SWIDTH 634 0
DWIDTH 8 0
BBX 9 15 2 0
BITMAP
002800
00B800
028000
000000
7FFF40
6E5500
1D0000
1D0000
2C0000
2C0000
380000
380000
740000
740000
740000
ENDCHAR
STARTCHAR uni0490.ss01
ENCODING -1
SWIDTH 639 0
DWIDTH 8 0
BBX 9 14 2 0
BITMAP
000240
000380
000340
7FFF40
7E5500
1D0000
1D0000
2C0000
2C0000
380000
380000
740000
740000
740000
ENDCHAR
STARTCHAR uni0414.ss01
ENCODING -1
SWIDTH 836 0
DWIDTH 10 0
BBX 10 11 0 0
BITMAP
0AF900
7E6B80
5102D0
0B00E0
0B00E0
0E00E0
1D01E0
1D02D0
2D0780
2D6E00
1FE400
ENDCHAR
STARTCHAR uni0415.ss01
ENCODING -1
SWIDTH 720 0
DWIDTH 9 0
BBX 9 11 0 0
BITMAP
02FD00
0F9B40
2D0380
2D0340
1E4100
0BE000
2E4000
740000
740140
3E6F00
1BF800
ENDCHAR
STARTCHAR uni0400.ss01
ENCODING -1
SWIDTH 720 0
DWIDTH 9 0
BBX 9 15 0 0
BITMAP
0A0000
07C000
00A000
000000
02FD00
0F9B40
2D0380
2D0340
1E4100
0BE000
2E4000
740000
740140
3E6F00
1BF800
ENDCHAR
STARTCHAR uni0401.ss01
ENCODING -1
SWIDTH 720 0
DWIDTH 9 0
BBX 9 14 0 0
BITMAP
01DA00
01DA00
000000
02FD00
0F9B40
2D0380
2D0340
1E4100
0BE000
2E4000
740000
740140
3E6F00
1BF800
ENDCHAR
STARTCHAR uni0416.ss01
ENCODING -1
SWIDTH 1196 0
DWIDTH 14 0
BBX 15 11 0 0
BITMAP
1F4281F4
16C3C390
01D38700
00E38E00
00B7AD00
003FE000
01FBB400
03CB2C00
074B1D00
9E0E0FA0
B80D06E0
ENDCHAR
STARTCHAR uni0417.ss01
ENCODING -1
SWIDTH 725 0
DWIDTH 9 0
BBX 9 11 0 0
BITMAP
02F800
0F5E00
1D0A00
1C0E00
002C00
02FD00
014B00
340B40
740F00
3D6D00
1BE400
ENDCHAR
STARTCHAR uni0418.ss01
ENCODING -1
SWIDTH 800 0
DWIDTH 10 0
BBX 8 11 1 0
BITMAP
2807
3C0B
380B
380F
740E
741E
B02E
B07D
F0ED
BBAC
7E28
ENDCHAR
STARTCHAR uni0419.ss01
ENCODING -1
SWIDTH 800 0
DWIDTH 10 0
BBX 8 14 1 0
BITMAP
0005
034D
02F8
2807
3C0B
380B
380F
740E
741E
B02E
B07D
F0ED
BBAC
7E28
ENDCHAR
STARTCHAR uni040D.ss01
ENCODING -1
SWIDTH 800 0
DWIDTH 10 0
BBX 8 15 1 0
BITMAP
1D00
0F40
01C0
0000
2807
3C0B
380B
380F
740E
741E
B02E
B07D
F0ED
BBAC
7E28
ENDCHAR
STARTCHAR uni048A.ss01
ENCODING -1
SWIDTH 815 0
DWIDTH 10 0
BBX 9 14 1 -3
BITMAP
280700
3C0B00
380B00
380F00
740E00
741E00
B02E00
B07D00
F0ED00
BBAE40
7E2F40
001E00
002C00
003400
ENDCHAR
STARTCHAR uni041A.ss01
ENCODING -1
SWIDTH 779 0
DWIDTH 9 0
BBX 8 11 1 0
BITMAP
2C07
2C0F
381D
3838
79B0
FF80
B7C0
B1E0
B0F0
E079
A02F
ENDCHAR
STARTCHAR uni040C.ss01
ENCODING -1
SWIDTH 779 0
DWIDTH 9 0
BBX 8 15 1 0
BITMAP
0007
002E
0064
0000
2C07
2C0F
381D
3838
79B0
FF80
B7C0
B1E0
B0F0
E079
A02F
ENDCHAR
STARTCHAR uni041B.ss01
ENCODING -1
SWIDTH 706 0
DWIDTH 8 0
BBX 9 11 -1 0
BITMAP
001E00
002E00
003E00
007E00
00BD00
00ED00
01DE00
02CE00
074E00
2E0B80
7802C0
ENDCHAR
STARTCHAR uni041C.ss01
ENCODING -1
SWIDTH 967 0
DWIDTH 12 0
BBX 12 11 0 0
BITMAP
01D074
02E0F4
03E1F4
03E2F4
07E3B0
0BA7B0
0EAA70
0DADB0
2CBC74
787878
A0342D
ENDCHAR
STARTCHAR uni041D.ss01
ENCODING -1
SWIDTH 846 0
DWIDTH 10 0
BBX 10 11 0 0
BITMAP
0700D0
0B01D0
0B01D0
0E01D0
0E02C0
7FFFF0
2E57D0
2C0380
2C0740
3C0740
280700
ENDCHAR
STARTCHAR uni041E.ss01
ENCODING -1
SWIDTH 816 0
DWIDTH 10 0
BBX 10 11 0 0
BITMAP
01BE00
079B80
1E02D0
2C01D0
3801E0
3801D0
7801D0
3802C0
3C0780
1E6E00
06F400
ENDCHAR
STARTCHAR uni041F.ss01
ENCODING -1
SWIDTH 847 0
DWIDTH 10 0
BBX 10 11 1 0
BITMAP
BFFFD0
6D5B80
2C0B00
380B00
380B00
740E00
740E00
B41D00
B01D00
B02D00
A01C00
ENDCHAR
STARTCHAR uni0420.ss01
ENCODING -1
SWIDTH 662 0
DWIDTH 8 0
BBX 8 11 0 0
BITMAP
1BE4
2FAD
0B0F
0F0B
0E0E
1E2D
7FF4
2E40
2C00
2C00
2800
ENDCHAR
STARTCHAR uni0421.ss01
ENCODING -1
SWIDTH 704 0
DWIDTH 8 0
BBX 9 11 0 0
BITMAP
01BD00
079B40
1E0740
2C0740
380100
380000
780000
380000
3C0240
1F5B00
06F800
ENDCHAR
STARTCHAR uni0422.ss01
ENCODING -1
SWIDTH 631 0
DWIDTH 8 0
BBX 8 11 1 0
BITMAP
BFFE
5795
0740
0740
0B00
0B00
0E00
0E00
1D00
1D00
1D00
ENDCHAR
STARTCHAR uni0423.ss01
ENCODING -1
SWIDTH 776 0
DWIDTH 9 0
BBX 8 11 1 0
BITMAP
340A
780B
740E
741E
B42E
B07D
7EED
2F5C
0028
A5B4
6F90
ENDCHAR
STARTCHAR uni040E.ss01
ENCODING -1
SWIDTH 776 0
DWIDTH 9 0
BBX 8 14 1 0
BITMAP
0004
071C
02F4
340A
780B
740E
741E
B42E
B07D
7EED
2F5C
0028
A5B4
6F90
ENDCHAR
STARTCHAR uni0424.ss01
ENCODING -1
SWIDTH 978 0
DWIDTH 12 0
BBX 12 12 0 -1
BITMAP
000900
000D00
07EDB8
1E7FAD
2C1E0E
382C1E
78281D
74782C
39FD78
2F7FE0
047540
003000
ENDCHAR
STARTCHAR uni0425.ss01
ENCODING -1
SWIDTH 677 0
DWIDTH 8 0
BBX 10 11 -1 0
BITMAP
0740A0
0382D0
02D780
01EE00
00BC00
00B400
01FC00
079D00
1E0E00
3C0B40
740740
ENDCHAR
STARTCHAR uni0427.ss01
ENCODING -1
SWIDTH 773 0
DWIDTH 9 0
BBX 8 11 1 0
BITMAP
340A
380A
780E
741E
B42D
B07D
7EED
2F5C
002C
002C
0028
ENDCHAR
STARTCHAR uni0426.ss01
ENCODING -1
SWIDTH 822 0
DWIDTH 10 0
BBX 9 16 1 -5
BITMAP
280700
3C0B00
380B00
380F00
740E00
741E00
B02D00
B07D00
F0ED00
BB9F40
7E0740
002F40
00B700
00EA00
00BD00
001000
ENDCHAR
STARTCHAR uni0428.ss01
ENCODING -1
SWIDTH 1174 0
DWIDTH 14 0
BBX 13 11 1 0
BITMAP
280A0340
3C0E0380
380E0780
381D0740
741D0B40
742C0F00
B0381F00
B0782E00
F1E86E00
BB6EDE00
7E1F4D00
ENDCHAR
STARTCHAR uni0429.ss01
ENCODING -1
SWIDTH 1194 0
DWIDTH 14 0
BBX 13 16 1 -5
BITMAP
280A0340
3C0E0380
380E0780
381D0740
741D0B40
742C0F00
B0381F00
B0782E00
F0E86E00
BBAEDBC0
7E1F42C0
00001F80
00007A80
0000B740
00007E00
00000400
ENDCHAR
STARTCHAR uni040F.ss01
ENCODING -1
SWIDTH 800 0
DWIDTH 10 0
BBX 8 14 1 -3
BITMAP
2807
3C0B
380B
380F
740E
741E
B02E
B07D
F0ED
BBAC
7F28
0A00
0E00
0400
ENDCHAR
STARTCHAR uni042C.ss01
ENCODING -1
SWIDTH 721 0
DWIDTH 9 0
BBX 9 11 0 0
BITMAP
060000
0F0000
0E0000
1D0000
1FFD00
7E5B40
7C0740
2C0740
2C0B00
1E6E00
07E400
ENDCHAR
STARTCHAR uni042A.ss01
ENCODING -1
SWIDTH 863 0
DWIDTH 10 0
BBX 10 11 1 0
BITMAP
015000
BFD000
178000
074000
0BFF40
2F57C0
1E02D0
0E02C0
0E0380
0B5F40
02F900
ENDCHAR
STARTCHAR uni042B.ss01
ENCODING -1
SWIDTH 1078 0
DWIDTH 13 0
BBX 13 11 0 0
BITMAP
06000340
0F000740
0E000740
1D000740
1FFD0B00
7E5B4B00
7C074E00
2C074E00
2C0B1D00
1E6E1D00
07E41D00
ENDCHAR
STARTCHAR uni0409.ss01
ENCODING -1
SWIDTH 998 0
DWIDTH 12 0
BBX 13 11 -1 0
BITMAP
001D0000
002E0000
003E0000
007E0000
00AEBE00
00EF5B80
01DD0380
02CE0380
074E0740
1E0B9F00
7802F800
ENDCHAR
STARTCHAR uni040A.ss01
ENCODING -1
SWIDTH 1102 0
DWIDTH 13 0
BBX 13 11 0 0
BITMAP
07034000
0B074000
0B074000
0E0B0000
0E5FFE40
7FEE57C0
2D0D02C0
2C0D02C0
2C0E0380
3C0B5F40
2802F800
ENDCHAR
STARTCHAR uni0405.ss01
ENCODING -1
SWIDTH 693 0
DWIDTH 8 0
BBX 9 11 0 0
BITMAP
06F900
1E5F00
2C0740
2C0700
1F4000
07F400
007D00
700E00
B00E00
796D00
1BE400
ENDCHAR
STARTCHAR uni0404.ss01
ENCODING -1
SWIDTH 704 0
DWIDTH 8 0
BBX 9 11 0 0
BITMAP
01BD00
079B00
1E0740
2C0740
380100
3FF000
795000
380000
3C0240
1F5B00
06F800
ENDCHAR
STARTCHAR uni042D.ss01
ENCODING -1
SWIDTH 755 0
DWIDTH 9 0
BBX 9 11 0 0
BITMAP
06F800
1E6F00
240B40
000380
000380
07FF80
015780
200740
700F00
797D00
1FE000
ENDCHAR
STARTCHAR uni0406.ss01
ENCODING -1
SWIDTH 357 0
DWIDTH 4 0
BBX 3 11 1 0
BITMAP
28
3C
38
38
74
74
B0
B0
E0
E0
D0
ENDCHAR
STARTCHAR uni0407.ss01
ENCODING -1
SWIDTH 357 0
DWIDTH 4 0
BBX 5 14 1 0
BITMAP
B340
A340
0000
2800
3C00
3800
3800
7400
7400
B000
B000
E000
E000
D000
ENDCHAR
STARTCHAR uni0408.ss01
ENCODING -1
SWIDTH 716 0
DWIDTH 9 0
BBX 8 11 1 0
BITMAP
1BF9
B96D
D02C
E038
5038
0038
0074
0070
D0A0
F6D0
2F40
ENDCHAR
STARTCHAR uni040B.ss01
ENCODING -1
SWIDTH 884 0
DWIDTH 11 0
BBX 9 11 1 0
BITMAP
BFFE00
579500
074000
074000
0B0000
0B6F40
0FE7C0
0F42C0
1E03C0
1D0380
1D0280
ENDCHAR
STARTCHAR uni042E.ss01
ENCODING -1
SWIDTH 1166 0
DWIDTH 14 0
BBX 14 11 0 0
BITMAP
0700BE00
0B07DBC0
0B0E01D0
0E1D00E0
0E2C00E0
7FF800E0
2E7801E0
2C3C02D0
2C2D0380
3C1F6F00
2806F800
ENDCHAR
STARTCHAR uni042F.ss01
ENCODING -1
SWIDTH 827 0
DWIDTH 10 0
BBX 9 11 1 0
BITMAP
06FB40
0F5B40
2C0740
2C0B00
2C0F00
1E1F00
0BFE00
01BA00
01DA00
5B8A00
F90A00
ENDCHAR
STARTCHAR uni0402.ss01
ENCODING -1
SWIDTH 843 0
DWIDTH 10 0
BBX 9 17 1 -6
BITMAP
BFFE00
579500
074000
074000
0B0000
0B6F40
0FE780
0F42C0
1E0380
1D0380
1D0780
001F40
007F00
00EB00
01CD00
01EC00
00F400
ENDCHAR
STARTCHAR uni0462.ss01
ENCODING -1
SWIDTH 721 0
DWIDTH 9 0
BBX 9 11 0 0
BITMAP
0B0000
7FD000
1E4000
1D0000
1FFD00
BE5B40
7C0740
2C0740
2C0B00
1E6E00
07E400
ENDCHAR
STARTCHAR uni046A.ss01
ENCODING -1
SWIDTH 1196 0
DWIDTH 14 0
BBX 14 11 0 0
BITMAP
1FFFFFF0
06E55B90
01D00B00
00E00E00
00B06C00
003FE000
01FBB400
03CB2C00
074B1D00
5E0E0F50
B80D06E0
ENDCHAR
ENDFONT
